<?xml version="1.0" encoding="UTF-8" standalone="no"?>
<svg
   width="807.46698"
   height="314.61874"
   viewbox="0 0 808 315"
   fill="none"
   version="1.1"
   id="svg2049"
   sodipodi:docname="logo-core2.svg"
   inkscape:version="1.1.2 (0a00cf5339, 2022-02-04)"
   xmlns:inkscape="http://www.inkscape.org/namespaces/inkscape"
   xmlns:sodipodi="http://sodipodi.sourceforge.net/DTD/sodipodi-0.dtd"
   xmlns:xlink="http://www.w3.org/1999/xlink"
   xmlns="http://www.w3.org/2000/svg"
   xmlns:svg="http://www.w3.org/2000/svg"
   xmlns:rdf="http://www.w3.org/1999/02/22-rdf-syntax-ns#"
   xmlns:cc="http://creativecommons.org/ns#">
  <metadata
     id="metadata2053">
    <rdf:RDF>
      <cc:Work
         rdf:about="" />
    </rdf:RDF>
  </metadata>
  <sodipodi:namedview
     pagecolor="#aba3a1"
     bordercolor="#666666"
     borderopacity="1"
     objecttolerance="10"
     gridtolerance="10"
     guidetolerance="10"
     inkscape:pageopacity="0"
     inkscape:pageshadow="2"
     inkscape:window-width="3780"
     inkscape:window-height="2122"
     id="namedview2051"
     showgrid="false"
     inkscape:zoom="1.4181409"
     inkscape:cx="1018.5871"
     inkscape:cy="529.56656"
     inkscape:window-x="60"
     inkscape:window-y="0"
     inkscape:window-maximized="1"
     inkscape:current-layer="svg2049"
     inkscape:pagecheckerboard="0"
     fit-margin-top="0"
     fit-margin-left="0"
     fit-margin-right="0"
     fit-margin-bottom="0" />
  <path
     d="M 765.777,66.207001 H 242.727 V 248.414 h 523.05 c 23.02,0 41.69,-18.53 41.69,-41.398 v -99.41 c 0,-22.859999 -18.67,-41.399999 -41.69,-41.399999 z"
     fill="#ffffff"
     id="path1717" />
  <path
     d="m 139.86,24.420001 115.45,66.53 V 223.68 L 139.86,290.21 24.41,223.68 V 90.950001 Z M 139.85,153.77 246.23,92.660001 l -106.35,-61.47 -106.38,61.11 z M 143,281.1 249.34,220.01 V 97.740001 L 143,158.83 Z m -6.27,0 V 158.83 L 30.39,97.740001 V 220.01 Z M 139.86,5.4029493e-7 C 135.65,5.4029493e-7 131.44,1.0900005 127.67,3.2600005 L 12.22,69.800001 A 24.412,24.412 0 0 0 0,90.950001 V 223.68 c 0,8.73 4.66,16.79 12.22,21.15 l 115.45,66.53 a 24.429,24.429 0 0 0 24.38,0 L 267.5,244.83 a 24.412,24.412 0 0 0 12.22,-21.15 V 90.950001 c 0,-8.73 -4.66,-16.79 -12.22,-21.15 L 152.05,3.2700005 A 24.337,24.337 0 0 0 139.86,5.4029493e-7 Z"
     fill="#ffffff"
     id="path1719" />
  <path
     d="m 357.927,128.941 15.79,21.29 39.32,-57.729999 h -31.52 z"
     fill="#f7941e"
     id="path1723" />
  <path
     d="m 227.53,206.79 14.24,8.78 7.12,4.39 0.96,0.6 V 98.890001 C 246.18,106.57 242.31,114.13 238.35,121.64 c -4.29,8.14 -8.66,16.24 -13.14,24.27 a 786.739,786.739 0 0 1 -13.86,23.86 l -7.16,11.79 -4.88,8.09 13.93,8.42 z M 69.96,89.760001 l 13.95,-0.27 c 9.3,-0.12 18.61,-0.08 27.91,0.13 l 13.95,0.33 13.95,0.29 55.81,1.02 27.91,0.62 13.95,0.31 6.56,0.17 c -4.36,-1.47 -8.63,-3.1 -12.87,-4.81 -5.1,-2.05 -10.13,-4.23 -15.12,-6.52 -4.99,-2.28 -9.88,-4.76 -14.71,-7.35 l -7.26,-3.87 -7.3,-3.8 -0.19,-0.1 -0.09,-0.07 -11.87,-8.76 -11.83,-8.82 -11.79,-8.87 -5.89,-4.44 -4.04,-3.07 -1.12,-0.65 -104.37,59.96 c 6.83,-0.44 13.67,-0.75 20.5,-1 4.66,-0.2 9.31,-0.29 13.96,-0.43 z M 166.37,239.35 l 13.45,-24.09 13.49,-23.99 c -3.75,-2.02 -7.52,-4 -11.28,-6 -4.92,-2.63 -9.76,-5.4 -14.51,-8.31 -4.75,-2.92 -9.46,-5.91 -14.1,-9.03 -3.51,-2.34 -6.99,-4.74 -10.4,-7.26 v 120.81 l 3.27,-5.94 6.69,-12.06 z"
     fill="#ffffff"
     id="path1725" />
  <path
     opacity="0.33"
     d="m 166.37,239.35 13.45,-24.09 13.49,-23.99 c -3.75,-2.02 -7.52,-4 -11.28,-6 -4.92,-2.63 -9.76,-5.4 -14.51,-8.31 -4.75,-2.92 -9.46,-5.91 -14.1,-9.03 -3.51,-2.34 -6.99,-4.74 -10.4,-7.26 v 120.81 l 3.27,-5.94 6.69,-12.06 z"
     fill="url(#b)"
     id="path1727"
     style="fill:url(#b)" />
  <path
     d="M 79.88,189.5 C 70.91,173.95 62.06,158.34 53.42,142.6 45.37,127.98 37.45,113.29 29.86,98.400001 V 220.94 l 0.19,0.11 c 8.02,-5.7 16.24,-11.05 24.53,-16.28 8.35,-5.23 16.79,-10.31 25.3,-15.27 z m 4.66,-2.69 c 8.65,-4.97 17.37,-9.8 26.19,-14.48 8.52,-4.49 17.1,-8.87 25.88,-12.91 L 30.89,98.690001 C 39.87,112.48 48.52,126.45 57.05,140.5 c 9.35,15.33 18.48,30.79 27.49,46.31 z"
     fill="#ffffff"
     id="path1729" />
  <path
     opacity="0.33"
     d="m 84.54,186.81 c 8.65,-4.97 17.37,-9.8 26.19,-14.48 8.52,-4.49 17.1,-8.87 25.88,-12.91 L 30.89,98.690001 C 39.87,112.48 48.52,126.45 57.05,140.5 c 9.35,15.33 18.48,30.79 27.49,46.31 z"
     fill="url(#c)"
     id="path1731"
     style="fill:url(#c)" />
  <path
     d="m 82.57,194.15 c -8.54,4.9 -17.16,9.67 -25.87,14.29 -8.56,4.52 -17.19,8.92 -26.02,12.98 l 105.35,60.52 c -8.99,-13.8 -17.66,-27.79 -26.2,-41.85 -9.27,-15.21 -18.33,-30.54 -27.26,-45.94 z"
     fill="#ffffff"
     id="path1733" />
  <path
     opacity="0.33"
     d="m 82.57,194.15 c -8.54,4.9 -17.16,9.67 -25.87,14.29 -8.56,4.52 -17.19,8.92 -26.02,12.98 l 105.35,60.52 c -8.99,-13.8 -17.66,-27.79 -26.2,-41.85 -9.27,-15.21 -18.33,-30.54 -27.26,-45.94 z"
     fill="url(#d)"
     id="path1735"
     style="fill:url(#d)" />
  <path
     d="m 87.23,191.46 c 8.9,15.42 17.68,30.9 26.24,46.51 7.94,14.41 15.75,28.89 23.23,43.56 V 160.21 c -7.8,5.53 -15.8,10.72 -23.86,15.8 -8.44,5.3 -16.99,10.44 -25.61,15.45 z m 159.19,-98.289999 -9.02,0.16 -13.95,0.21 -27.91,0.41 -55.82,0.6 -13.95,0.18 -13.95,0.23 c -9.3,0.14 -18.61,0.11 -27.91,-0.08 l -13.95,-0.37 c -4.65,-0.18 -9.3,-0.3 -13.95,-0.54 -7.13,-0.31 -14.25,-0.69 -21.37,-1.21 l 3.14,1.4 6.93,3.13 13.86,6.259999 13.84,6.31 13.8,6.38 0.1,0.05 0.18,0.12 6.95,4.59 6.99,4.53 c 4.67,3.01 9.26,6.12 13.72,9.42 4.47,3.29 8.88,6.67 13.2,10.17 2.69,2.16 5.35,4.38 7.96,6.65 l 4.56,2.63 z"
     fill="#ffffff"
     id="path1737" />
  <path
     d="m 90.78,124.78 -6.61,-4.87 -13.3,-6.93 -13.46,-7.09 -13.43,-7.139999 -5.25,-2.8 L 98.07,130.25 c -0.21,-0.16 -0.42,-0.31 -0.63,-0.47 z m 64.52,39.86 c 5.03,2.44 9.98,5 14.9,7.64 4.91,2.64 9.74,5.43 14.49,8.36 3.6,2.23 7.2,4.48 10.81,6.69 l 4.55,-8.17 6.68,-12.07 c 4.46,-8.04 9.07,-16 13.81,-23.88 4.74,-7.88 9.59,-15.7 14.53,-23.47 4.53,-7.12 9.14,-14.19 13.94,-21.149999 L 143.51,159.19 c 4,1.71 7.91,3.55 11.79,5.45 z m -8.03,111.48 -3.52,5.78 105.36,-60.53 -0.79,-0.42 -7.38,-3.94 -14.76,-7.88 -14.72,-7.95 -14.36,-7.85 -0.03,0.05 -14.15,23.68 -14.22,23.65 -14.29,23.61 z m 16.94,-229.979999 12.32,8.12 12.1,8.06 7.38,3.37 7.52,3.35 c 2.9,1.28 5.78,2.6 8.64,3.98 l -59.25,-34.25 z"
     fill="#f7941e"
     id="path1739" />
  <path
     opacity="0.49"
     d="m 142.12,285.25 109.07,-63.31 -43.07,-24.47 -12.98,-7.18 z"
     fill="url(#e)"
     id="path1741"
     style="fill:url(#e)" />
  <path
     opacity="0.3"
     d="m 142.12,285.25 109.07,-63.31 -43.07,-24.47 -12.98,-7.18 z"
     fill="url(#f)"
     id="path1743"
     style="fill:url(#f)" />
  <path
     d="m 142.12,285.25 109.07,-63.31 -43.07,-24.47 -12.98,-7.18 z"
     fill="url(#g)"
     id="path1745"
     style="fill:url(#g)" />
  <path
     d="m 142.12,285.25 109.07,-63.31 -43.07,-24.47 -12.98,-7.18 z"
     fill="url(#h)"
     id="path1747"
     style="fill:url(#h)" />
  <path
     d="M 250.14,95.330001 141.07,158.64 l 43.07,24.47 12.98,7.18 z"
     fill="url(#i)"
     id="path1749"
     style="fill:url(#i)" />
  <path
     opacity="0.71"
     d="m 250.66,124.59 c 0,0 -0.25,33.86 -24.09,76.78 -19.29,34.73 -77.74,80.94 -77.74,80.94 l 103.89,-60.12 -0.17,-90.79 z"
     fill="url(#j)"
     id="path1751"
     style="fill:url(#j)" />
  <path
     d="m 234.25,212.56 c 0,0 -2.25,-0.75 -2.88,-3.01 -0.63,1.32 -0.91,-2.02 -2.26,0.26 -20.57,34.7 -80.27,72.5 -80.27,72.5 l 103.89,-60.12 -3.62,-0.82 z"
     fill="url(#k)"
     id="path1753"
     style="fill:url(#k)" />
  <path
     opacity="0.43"
     d="m 34.91,93.740001 -6.82,-1.76 H 252.54 L 141.21,157.19 83.45,117.22 Z"
     fill="url(#l)"
     id="path1755"
     style="fill:url(#l)" />
  <path
     opacity="0.43"
     d="m 244.72,91.380001 6.82,1.76 H 27.09 l 111.33,-65.21 57.77,39.97 z"
     fill="url(#m)"
     id="path1757"
     style="fill:url(#m)" />
  <path
     opacity="0.23"
     d="m 100.36,128.27 c 0,0 40.87,4.76 66.28,-10.9 25.41,-15.66 54.26,-25.639999 80.72,-24.969999 26.47,0.67 -19.62,13.449999 -19.62,13.449999 l -86.67,52.06 z"
     fill="url(#n)"
     id="path1759"
     style="fill:url(#n)" />
  <path
     opacity="0.23"
     d="m 174.52,54.950001 c 0,0 -24.52,-16.82 -49.92,-8.19 -25.4,8.62 10.38,21.96 -16.09,21.59 -26.47,-0.37 -39.09,0 -39.09,0 l 70.31,-42.16 z"
     fill="url(#o)"
     id="path1761"
     style="fill:url(#o)" />
  <path
     opacity="0.33"
     d="m 26.66,100.09 c 0,0 1.94,18.79 8.95,28.81 7.01,10.02 22.79,19.29 28.56,45.84 5.76,26.55 12.02,51.35 31.56,67.38 19.54,16.03 32.31,38.58 32.31,38.58 L 28.09,224.63 Z"
     fill="url(#p)"
     id="path1763"
     style="fill:url(#p)" />
  <path
     d="M 255.86,224.58 V 91.270001 l -116,-66.85 -116,66.85 V 224.62 l 116,66.85 c 38.55,-22.48 77.548,-44.305 116,-66.89 z m -112.85,56.9 V 160.67 c 3.41,2.52 6.89,4.92 10.4,7.26 4.64,3.12 9.35,6.11 14.1,9.03 4.76,2.91 9.59,5.68 14.51,8.31 3.76,2 7.53,3.98 11.28,6 l -13.49,23.99 -13.45,24.09 -13.39,24.13 -6.69,12.06 z m 4.26,-5.36 7.14,-11.8 14.28,-23.61 14.22,-23.65 14.15,-23.69 0.03,-0.04 14.36,7.85 14.72,7.95 14.76,7.89 7.38,3.94 0.79,0.42 -105.36,60.53 z m 102.58,-55.56 -0.96,-0.6 -7.12,-4.39 -14.24,-8.78 -14.28,-8.72 -13.93,-8.42 4.88,-8.09 7.16,-11.79 a 774.815,774.815 0 0 0 13.86,-23.86 c 4.48,-8.03 8.86,-16.13 13.14,-24.27 3.95,-7.51 7.82,-15.07 11.5,-22.749999 V 220.56 Z M 235.07,119.74 c -4.94,7.77 -9.78,15.59 -14.53,23.47 -4.75,7.88 -9.35,15.84 -13.81,23.88 l -6.68,12.07 -4.55,8.17 c -3.61,-2.21 -7.21,-4.46 -10.81,-6.69 -4.75,-2.93 -9.58,-5.72 -14.49,-8.36 -4.91,-2.64 -9.87,-5.2 -14.9,-7.64 -3.88,-1.9 -7.8,-3.74 -11.79,-5.45 L 249.01,98.590001 C 244.21,105.55 239.6,112.62 235.07,119.74 Z M 141,31.880001 l 4.04,3.07 5.89,4.44 11.79,8.87 11.83,8.82 11.87,8.76 0.09,0.07 0.19,0.1 7.3,3.8 7.26,3.87 c 4.83,2.6 9.72,5.08 14.71,7.35 4.99,2.28 10.02,4.47 15.12,6.52 4.24,1.72 8.51,3.35 12.87,4.81 l -6.56,-0.17 -13.95,-0.31 -27.91,-0.62 -55.81,-1.02 -13.95,-0.29 -13.95,-0.33 c -9.3,-0.21 -18.6,-0.25 -27.91,-0.13 l -13.95,0.27 c -4.65,0.14 -9.3,0.23 -13.96,0.43 -6.83,0.25 -13.67,0.56 -20.5,1 l 104.37,-59.96 z m 62.52,37.16 -7.52,-3.35 -7.38,-3.37 -12.1,-8.06 -12.32,-8.12 -11.29,-7.38 59.25,34.25 c -2.85,-1.37 -5.73,-2.69 -8.64,-3.97 z M 109.83,240.08 c 8.54,14.06 17.2,28.05 26.2,41.85 L 30.68,221.41 c 8.83,-4.06 17.46,-8.46 26.02,-12.98 8.71,-4.62 17.32,-9.39 25.87,-14.29 8.93,15.41 17.99,30.74 27.26,45.94 z M 57.05,140.5 C 48.52,126.45 39.86,112.48 30.89,98.690001 L 136.61,159.43 c -8.78,4.04 -17.37,8.41 -25.88,12.91 -8.82,4.67 -17.54,9.51 -26.19,14.48 C 75.53,171.29 66.4,155.83 57.05,140.5 Z m 56.42,97.47 c -8.57,-15.61 -17.34,-31.1 -26.24,-46.51 8.62,-5.01 17.17,-10.15 25.62,-15.45 8.06,-5.08 16.05,-10.27 23.86,-15.8 v 121.33 c -7.49,-14.68 -15.3,-29.16 -23.24,-43.57 z M 38.72,95.950001 l 5.25,2.8 13.43,7.139999 13.46,7.09 13.3,6.93 6.61,4.87 6.66,5 c 0.21,0.16 0.42,0.31 0.63,0.47 z m -8.86,2.46 C 37.45,113.3 45.37,127.99 53.42,142.61 c 8.64,15.74 17.49,31.36 26.46,46.9 a 880.272,880.272 0 0 0 -25.3,15.27 c -8.29,5.23 -16.51,10.58 -24.53,16.28 l -0.19,-0.11 z M 135.29,151.76 c -2.61,-2.28 -5.27,-4.49 -7.96,-6.65 -4.32,-3.5 -8.73,-6.88 -13.2,-10.17 -4.46,-3.3 -9.06,-6.41 -13.72,-9.42 l -6.99,-4.53 -6.95,-4.59 -0.18,-0.12 -0.1,-0.05 -13.8,-6.38 -13.84,-6.31 -13.86,-6.259999 -6.93,-3.13 -3.14,-1.4 c 7.12,0.52 14.25,0.9 21.37,1.21 4.65,0.23 9.3,0.36 13.95,0.54 l 13.95,0.37 c 9.3,0.19 18.6,0.21 27.91,0.08 l 13.95,-0.23 13.95,-0.18 55.82,-0.6 27.91,-0.41 13.95,-0.21 9.02,-0.16 L 139.82,154.38 Z"
     fill="#333333"
     id="path1765" />
  <path
     style="opacity:1;fill:url(#linearGradient2739);fill-opacity:1;stroke-width:0.195301"
     d="m 528.26395,246.40892 c -6.59542,-4.62933 -12.01235,-12.42996 -14.54897,-20.95109 -1.91298,-6.42608 -2.25688,-12.82488 -0.97692,-18.17534 0.61489,-2.57 2.07183,-6.39438 2.9837,-7.83169 0.84063,-1.32507 4.35482,-5.10574 5.5439,-5.96438 0.42088,-0.30385 0.80692,-0.65086 0.85786,-0.77111 0.0509,-0.12021 0.25523,-0.30362 0.45389,-0.40743 0.87291,-0.45611 33.53399,-24.63508 68.00146,-50.34142 9.46954,-7.06255 20.75881,-15.48134 25.08723,-18.70849 5.15898,-3.84637 8.17614,-6.22243 8.75913,-6.89798 1.9085,-2.21166 1.84915,-2.08189 14.07722,-30.755725 l 11.58159,-27.158142 -1.10418,-1.141471 c -3.74571,-3.871895 -5.13358,-7.315913 -5.04804,-12.526537 0.0457,-2.781236 0.42973,-4.501412 1.46305,-6.55301 1.06029,-2.105016 1.93752,-3.193627 4.09237,-5.07835 2.21123,-1.93397 2.77315,-2.258199 5.37567,-3.102 2.54082,-0.823794 4.20012,-1.034056 6.33271,-0.80245 3.63155,0.394357 2.69438,0.02192 40.80961,16.219341 19.81804,8.42185 37.29996,15.943829 39.72251,17.091531 4.9063,2.32429 6.87035,3.524035 8.13242,4.967632 1.61798,1.850755 3.76639,6.319249 3.73833,7.775443 -0.008,0.387496 0.056,1.094068 0.14103,1.570365 0.18865,1.056527 -0.11512,4.129829 -0.60222,6.093851 -1.09711,4.423094 -5.59795,9.1511 -10.14732,10.659481 -1.576,0.522512 -4.05019,0.863757 -6.21528,0.857114 l -1.67408,-0.0052 -11.94463,28.515587 -11.94448,28.51566 0.17834,2.53384 c 0.0981,1.39362 0.28312,3.02931 0.41119,3.63488 0.12813,0.60555 3.81042,28.96891 8.18291,63.02971 5.96099,46.43387 7.93656,62.4376 7.89571,63.96237 l -0.0545,2.03363 -1.98986,4.8544 -1.99131,4.85379 -1.35713,1.73814 c -3.94258,5.04933 -8.4463,8.51856 -14.69178,11.31674 -8.54746,3.8295 -15.82308,4.83205 -23.20907,3.19818 -2.09632,-0.46375 -3.06735,-0.87 -78.46138,-32.82571 -75.04742,-31.80881 -76.36471,-32.37395 -77.86057,-33.42416 z M 691.42034,37.679888 c 2.0368,-1.757801 6.51004,-3.358919 10.25813,-3.671759 2.18065,-0.181997 3.2319,-0.06765 5.4276,0.590481 2.36342,0.708413 5.58669,2.402412 7.03016,3.694778 2.12548,1.902944 3.69629,4.263939 4.8767,7.329972 0.71207,1.849541 1.33849,4.396395 1.17582,4.780441 -0.0327,0.07712 -6.64189,-2.648115 -14.68727,-6.055928 l -14.62799,-6.196041 z m 41.93971,9.736658 c -0.40378,-0.395825 -1.06791,-1.035425 -1.47594,-1.421368 -1.31101,-1.24012 -1.43622,-1.4429 -2.28316,-3.699434 -0.97267,-2.591486 -1.39611,-4.747513 -1.21696,-6.196652 0.43636,-3.530308 2.77083,-8.333402 4.80883,-9.89405 1.93896,-1.484819 5.04921,-2.656767 7.61382,-2.868895 2.81587,-0.232889 5.93506,0.54717 7.80825,1.95279 1.10421,0.828546 3.42618,3.606829 4.26735,5.105895 1.86616,3.325817 1.69637,7.374793 -0.50073,11.943464 -1.64278,3.41597 -3.11917,4.801769 -6.75863,6.343866 -3.1638,1.340578 -6.33953,1.37988 -9.733,0.120501 -1.45881,-0.541361 -1.93372,-0.800777 -2.52983,-1.386117 z M 687.0016,27.741708 c 3.10785,0.776964 -5.19873,-5.167923 -5.02696,-6.992026 0.0361,-0.384228 -0.028,-0.912012 -0.14268,-1.172844 -0.30307,-0.689445 0.0558,-3.496676 0.67597,-5.288971 1.13255,-3.272455 3.1984,-5.6875397 5.98184,-6.9928161 1.69568,-0.79514 4.14488,-1.42721 4.66943,-1.205026 0.16924,0.07169 0.71201,0.03443 1.20617,-0.08278 0.8761,-0.207753 0.96005,-0.186999 3.36514,0.831738 2.40505,1.018714 2.47832,1.0647 2.93864,1.8383843 0.25969,0.4365178 0.60123,0.8483404 0.75903,0.9151788 1.19909,0.507904 3.10669,6.095421 2.95755,8.663116 -0.24501,4.219289 -2.53106,7.690033 -6.47944,9.837233 -3.1853,1.732224 -14.42478,-1.23121 -10.90473,-0.351197 z"
     id="path1326"
     sodipodi:nodetypes="ssssssssscscsssssssssssssscccsssscccssssssssssssscscsssssssssscssssssssssssss" />
  <path
     d="m 407.787,115.061 14.82,-22.639999 h 104.01 V 115.061 h -42.21 v 107.14 h -28.26 v -107.14 z m -111.59,-22.640999 43.84,65.030999 -45.29,64.75 h 32.25 l 28.98,-45.01 27.35,45.01 h 31.24 L 325.717,92.421001 h -29.52 z m 322.08,8.700999 c -9.48,-5.769999 -21.4,-8.699999 -35.43,-8.699999 h -47.57 V 222.2 h 47.57 c 12.94,0 24.33,-2.7 33.86,-8.04 9.56,-5.36 17.05,-13.01 22.28,-22.74 5.21,-9.7 7.86,-21.24 7.86,-34.28 0,-11.84 -2.39,-22.79 -7.11,-32.53 -4.75,-9.81 -11.97,-17.71 -21.46,-23.49 z m 0.78,56.02 c 0,7.73 -1.43,14.76 -4.24,20.91 -2.79,6.08 -6.9,10.92 -12.23,14.38 -5.33,3.46 -11.97,5.21 -19.74,5.21 h -19.95 v -80.63 h 19.95 c 7.65,0 14.24,1.7 19.58,5.04 5.33,3.35 9.47,8.07 12.31,14.03 2.87,6.02 4.32,13.1 4.32,21.06 z m 135.48,9.29 c -3.72,-4.93 -8.63,-8.61 -14.62,-10.98 4.69,-2.7 8.4,-6.44 11.07,-11.16 3.21,-5.68 4.84,-11.75 4.84,-18.06 0,-5.55 -1.22,-10.96 -3.62,-16.08 -2.42,-5.15 -5.94,-9.42 -10.47,-12.719999 -4.59,-3.33 -10.08,-5.01 -16.32,-5.01 h -69.36 V 222.2 h 62.75 c 7.54,0 14.61,-1.3 21,-3.86 6.47,-2.59 11.7,-6.45 15.54,-11.46 3.88,-5.07 5.84,-11.41 5.84,-18.85 -0.01,-8.49 -2.24,-15.77 -6.65,-21.6 z m -27.84,-27.72 c -1.23,2.14 -2.88,3.82 -4.91,4.99 -2.02,1.17 -4.3,1.76 -6.76,1.76 h -31.39 v -29.01 h 32.46 c 2.32,0 4.43,0.58 6.27,1.74 1.85,1.17 3.36,2.84 4.48,4.97 1.13,2.16 1.71,4.75 1.71,7.71 0,3.06 -0.62,5.7 -1.86,7.84 z m -43.05,29.2 h 36.39 c 2.58,0 4.79,0.65 6.76,1.98 1.98,1.34 3.59,3.2 4.78,5.52 1.2,2.34 1.8,5.03 1.8,7.99 0,2.7 -0.66,5.22 -1.95,7.48 -1.3,2.27 -3.08,4.1 -5.29,5.45 -2.19,1.34 -4.67,2.02 -7.36,2.02 h -35.14 v -30.44 z"
     fill="#333333"
     id="path1721" />
  <defs
     id="defs2047">
    <linearGradient
       inkscape:collect="always"
       id="linearGradient2737">
      <stop
         style="stop-color:#5aa762;stop-opacity:1"
         offset="0"
         id="stop2733" />
      <stop
         style="stop-color:#b6e0ba;stop-opacity:1"
         offset="1"
         id="stop2735" />
    </linearGradient>
    <linearGradient
       id="b"
       x1="143.013"
       y1="221.076"
       x2="193.304"
       y2="221.076"
       gradientUnits="userSpaceOnUse">
      <stop
         offset=".464"
         stop-color="#fff"
         id="stop1769" />
      <stop
         offset=".567"
         stop-color="#FCFCFC"
         id="stop1771" />
      <stop
         offset=".639"
         stop-color="#F3F3F3"
         id="stop1773" />
      <stop
         offset=".701"
         stop-color="#E4E4E4"
         id="stop1775" />
      <stop
         offset=".758"
         stop-color="#CECECE"
         id="stop1777" />
      <stop
         offset=".811"
         stop-color="#B2B2B2"
         id="stop1779" />
      <stop
         offset=".861"
         stop-color="#8F8F8F"
         id="stop1781" />
      <stop
         offset=".909"
         stop-color="#666"
         id="stop1783" />
      <stop
         offset=".955"
         stop-color="#373737"
         id="stop1785" />
      <stop
         offset=".998"
         stop-color="#020202"
         id="stop1787" />
      <stop
         offset="1"
         id="stop1789" />
    </linearGradient>
    <linearGradient
       id="c"
       x1="83.75"
       y1="98.693001"
       x2="83.75"
       y2="186.80901"
       gradientUnits="userSpaceOnUse">
      <stop
         offset=".464"
         stop-color="#fff"
         id="stop1792" />
      <stop
         offset=".56"
         stop-color="#FCFCFC"
         id="stop1794" />
      <stop
         offset=".631"
         stop-color="#F3F3F3"
         id="stop1796" />
      <stop
         offset=".694"
         stop-color="#E3E3E3"
         id="stop1798" />
      <stop
         offset=".752"
         stop-color="#CCC"
         id="stop1800" />
      <stop
         offset=".807"
         stop-color="#AFAFAF"
         id="stop1802" />
      <stop
         offset=".86"
         stop-color="#8B8B8B"
         id="stop1804" />
      <stop
         offset=".91"
         stop-color="#606060"
         id="stop1806" />
      <stop
         offset=".958"
         stop-color="#303030"
         id="stop1808" />
      <stop
         offset="1"
         id="stop1810" />
    </linearGradient>
    <linearGradient
       id="d"
       x1="83.353996"
       y1="281.93301"
       x2="83.353996"
       y2="194.14999"
       gradientUnits="userSpaceOnUse">
      <stop
         offset=".464"
         stop-color="#fff"
         id="stop1813" />
      <stop
         offset=".663"
         stop-color="#FDFDFD"
         id="stop1815" />
      <stop
         offset=".736"
         stop-color="#F6F6F6"
         id="stop1817" />
      <stop
         offset=".787"
         stop-color="#EBEBEB"
         id="stop1819" />
      <stop
         offset=".828"
         stop-color="#DADADA"
         id="stop1821" />
      <stop
         offset=".864"
         stop-color="#C4C4C4"
         id="stop1823" />
      <stop
         offset=".895"
         stop-color="#A8A8A8"
         id="stop1825" />
      <stop
         offset=".924"
         stop-color="#888"
         id="stop1827" />
      <stop
         offset=".95"
         stop-color="#626262"
         id="stop1829" />
      <stop
         offset=".974"
         stop-color="#373737"
         id="stop1831" />
      <stop
         offset=".996"
         stop-color="#090909"
         id="stop1833" />
      <stop
         offset="1"
         id="stop1835" />
    </linearGradient>
    <linearGradient
       id="e"
       x1="196.728"
       y1="253.726"
       x2="168.86301"
       y2="205.463"
       gradientUnits="userSpaceOnUse">
      <stop
         stop-color="#F7941E"
         id="stop1838" />
      <stop
         offset=".252"
         stop-color="#F5931E"
         id="stop1840" />
      <stop
         offset=".391"
         stop-color="#ED8E1D"
         id="stop1842" />
      <stop
         offset=".501"
         stop-color="#DF861B"
         id="stop1844" />
      <stop
         offset=".598"
         stop-color="#CB7A19"
         id="stop1846" />
      <stop
         offset=".685"
         stop-color="#B26B16"
         id="stop1848" />
      <stop
         offset=".765"
         stop-color="#935812"
         id="stop1850" />
      <stop
         offset=".84"
         stop-color="#6E420D"
         id="stop1852" />
      <stop
         offset=".91"
         stop-color="#432808"
         id="stop1854" />
      <stop
         offset=".976"
         stop-color="#140C02"
         id="stop1856" />
      <stop
         offset="1"
         id="stop1858" />
    </linearGradient>
    <linearGradient
       id="f"
       x1="196.728"
       y1="253.726"
       x2="168.86301"
       y2="205.463"
       gradientUnits="userSpaceOnUse">
      <stop
         stop-color="#FCAA20"
         id="stop1861" />
      <stop
         offset=".559"
         stop-color="#FCA820"
         id="stop1863" />
      <stop
         offset=".76"
         stop-color="#FBA11E"
         id="stop1865" />
      <stop
         offset=".903"
         stop-color="#F9961B"
         id="stop1867" />
      <stop
         offset="1"
         stop-color="#F78817"
         id="stop1869" />
    </linearGradient>
    <linearGradient
       id="g"
       x1="196.728"
       y1="253.726"
       x2="168.86301"
       y2="205.463"
       gradientUnits="userSpaceOnUse">
      <stop
         stop-color="#FAAD3A"
         id="stop1872" />
      <stop
         offset=".523"
         stop-color="#FAAB39"
         id="stop1874" />
      <stop
         offset=".712"
         stop-color="#FAA433"
         id="stop1876" />
      <stop
         offset=".846"
         stop-color="#FA992A"
         id="stop1878" />
      <stop
         offset=".954"
         stop-color="#F9881D"
         id="stop1880" />
      <stop
         offset="1"
         stop-color="#F97E16"
         id="stop1882" />
    </linearGradient>
    <linearGradient
       id="h"
       x1="196.728"
       y1="253.726"
       x2="168.86301"
       y2="205.463"
       gradientUnits="userSpaceOnUse">
      <stop
         stop-color="#FBBE3F"
         id="stop1885" />
      <stop
         offset=".506"
         stop-color="#FABE42"
         id="stop1887" />
      <stop
         offset="1"
         stop-color="#F8A232"
         id="stop1889" />
    </linearGradient>
    <linearGradient
       id="i"
       x1="195.532"
       y1="126.856"
       x2="223.397"
       y2="175.119"
       gradientUnits="userSpaceOnUse">
      <stop
         stop-color="#FCAA20"
         id="stop1892" />
      <stop
         offset=".567"
         stop-color="#FBA61F"
         id="stop1894" />
      <stop
         offset="1"
         stop-color="#F67C13"
         id="stop1896" />
    </linearGradient>
    <linearGradient
       id="j"
       x1="174.77901"
       y1="297.285"
       x2="268.52899"
       y2="134.905"
       gradientUnits="userSpaceOnUse">
      <stop
         offset=".386"
         stop-color="#333"
         stop-opacity="0"
         id="stop1899" />
      <stop
         offset=".663"
         stop-color="#313131"
         stop-opacity=".451"
         id="stop1901" />
      <stop
         offset=".789"
         stop-color="#292929"
         stop-opacity=".657"
         id="stop1903" />
      <stop
         offset=".885"
         stop-color="#1D1D1D"
         stop-opacity=".813"
         id="stop1905" />
      <stop
         offset=".965"
         stop-color="#0B0B0B"
         stop-opacity=".942"
         id="stop1907" />
      <stop
         offset="1"
         id="stop1909" />
    </linearGradient>
    <linearGradient
       id="k"
       x1="189.838"
       y1="241.304"
       x2="211.72501"
       y2="263.19"
       gradientUnits="userSpaceOnUse">
      <stop
         stop-color="#FCAD2E"
         stop-opacity="0"
         id="stop1912" />
      <stop
         offset=".528"
         stop-color="#F99720"
         stop-opacity=".8"
         id="stop1914" />
      <stop
         offset="1"
         stop-color="#F88218"
         id="stop1916" />
    </linearGradient>
    <linearGradient
       id="l"
       x1="140.315"
       y1="157.19299"
       x2="140.315"
       y2="91.984001"
       gradientUnits="userSpaceOnUse">
      <stop
         offset=".774"
         stop-color="#fff"
         id="stop1919" />
      <stop
         offset=".858"
         stop-color="#FDFDFD"
         id="stop1921" />
      <stop
         offset=".888"
         stop-color="#F6F6F6"
         id="stop1923" />
      <stop
         offset=".91"
         stop-color="#EBEBEB"
         id="stop1925" />
      <stop
         offset=".928"
         stop-color="#DADADA"
         id="stop1927" />
      <stop
         offset=".943"
         stop-color="#C4C4C4"
         id="stop1929" />
      <stop
         offset=".956"
         stop-color="#A8A8A8"
         id="stop1931" />
      <stop
         offset=".968"
         stop-color="#888"
         id="stop1933" />
      <stop
         offset=".979"
         stop-color="#626262"
         id="stop1935" />
      <stop
         offset=".989"
         stop-color="#373737"
         id="stop1937" />
      <stop
         offset=".998"
         stop-color="#090909"
         id="stop1939" />
      <stop
         offset="1"
         id="stop1941" />
    </linearGradient>
    <linearGradient
       id="m"
       x1="139.31599"
       y1="27.926001"
       x2="139.31599"
       y2="93.135002"
       gradientUnits="userSpaceOnUse">
      <stop
         offset=".774"
         stop-color="#fff"
         id="stop1944" />
      <stop
         offset=".858"
         stop-color="#FDFDFD"
         id="stop1946" />
      <stop
         offset=".888"
         stop-color="#F6F6F6"
         id="stop1948" />
      <stop
         offset=".91"
         stop-color="#EBEBEB"
         id="stop1950" />
      <stop
         offset=".928"
         stop-color="#DADADA"
         id="stop1952" />
      <stop
         offset=".943"
         stop-color="#C4C4C4"
         id="stop1954" />
      <stop
         offset=".956"
         stop-color="#A8A8A8"
         id="stop1956" />
      <stop
         offset=".968"
         stop-color="#888"
         id="stop1958" />
      <stop
         offset=".979"
         stop-color="#626262"
         id="stop1960" />
      <stop
         offset=".989"
         stop-color="#373737"
         id="stop1962" />
      <stop
         offset=".998"
         stop-color="#090909"
         id="stop1964" />
      <stop
         offset="1"
         id="stop1966" />
    </linearGradient>
    <linearGradient
       id="n"
       x1="204.968"
       y1="64.671997"
       x2="148.62"
       y2="162.27"
       gradientUnits="userSpaceOnUse">
      <stop
         stop-color="#fff"
         id="stop1969" />
      <stop
         offset=".373"
         stop-color="#FDFDFD"
         id="stop1971" />
      <stop
         offset=".507"
         stop-color="#F6F6F6"
         id="stop1973" />
      <stop
         offset=".603"
         stop-color="#EBEBEB"
         id="stop1975" />
      <stop
         offset=".68"
         stop-color="#DADADA"
         id="stop1977" />
      <stop
         offset=".746"
         stop-color="#C4C4C4"
         id="stop1979" />
      <stop
         offset=".805"
         stop-color="#A8A8A8"
         id="stop1981" />
      <stop
         offset=".858"
         stop-color="#888"
         id="stop1983" />
      <stop
         offset=".907"
         stop-color="#626262"
         id="stop1985" />
      <stop
         offset=".952"
         stop-color="#373737"
         id="stop1987" />
      <stop
         offset=".993"
         stop-color="#090909"
         id="stop1989" />
      <stop
         offset="1"
         id="stop1991" />
    </linearGradient>
    <linearGradient
       id="o"
       x1="105.925"
       y1="89.43"
       x2="141.757"
       y2="27.367001"
       gradientUnits="userSpaceOnUse">
      <stop
         stop-color="#fff"
         id="stop1994" />
      <stop
         offset=".373"
         stop-color="#FDFDFD"
         id="stop1996" />
      <stop
         offset=".507"
         stop-color="#F6F6F6"
         id="stop1998" />
      <stop
         offset=".603"
         stop-color="#EBEBEB"
         id="stop2000" />
      <stop
         offset=".68"
         stop-color="#DADADA"
         id="stop2002" />
      <stop
         offset=".746"
         stop-color="#C4C4C4"
         id="stop2004" />
      <stop
         offset=".805"
         stop-color="#A8A8A8"
         id="stop2006" />
      <stop
         offset=".858"
         stop-color="#888"
         id="stop2008" />
      <stop
         offset=".907"
         stop-color="#626262"
         id="stop2010" />
      <stop
         offset=".952"
         stop-color="#373737"
         id="stop2012" />
      <stop
         offset=".993"
         stop-color="#090909"
         id="stop2014" />
      <stop
         offset="1"
         id="stop2016" />
    </linearGradient>
    <linearGradient
       id="p"
       x1="-4.118"
       y1="130.86301"
       x2="136.877"
       y2="271.858"
       gradientUnits="userSpaceOnUse">
      <stop
         stop-color="#fff"
         id="stop2019" />
      <stop
         offset=".373"
         stop-color="#FDFDFD"
         id="stop2021" />
      <stop
         offset=".507"
         stop-color="#F6F6F6"
         id="stop2023" />
      <stop
         offset=".603"
         stop-color="#EBEBEB"
         id="stop2025" />
      <stop
         offset=".68"
         stop-color="#DADADA"
         id="stop2027" />
      <stop
         offset=".746"
         stop-color="#C4C4C4"
         id="stop2029" />
      <stop
         offset=".805"
         stop-color="#A8A8A8"
         id="stop2031" />
      <stop
         offset=".858"
         stop-color="#888"
         id="stop2033" />
      <stop
         offset=".907"
         stop-color="#626262"
         id="stop2035" />
      <stop
         offset=".952"
         stop-color="#373737"
         id="stop2037" />
      <stop
         offset=".993"
         stop-color="#090909"
         id="stop2039" />
      <stop
         offset="1"
         id="stop2041" />
    </linearGradient>
    <clipPath
       id="a">
      <path
         fill="#ffffff"
         d="M 0,0 H 807.466 V 314.62 H 0 Z"
         id="path2044" />
    </clipPath>
    <linearGradient
       inkscape:collect="always"
       xlink:href="#linearGradient2737"
       id="linearGradient2739"
       x1="574.23779"
       y1="289.38748"
       x2="725.00726"
       y2="13.985364"
       gradientUnits="userSpaceOnUse" />
  </defs>
</svg>
