<?xml version="1.0"?>
<svg xmlns:inkscape="http://www.inkscape.org/namespaces/inkscape" xmlns:sodipodi="http://sodipodi.sourceforge.net/DTD/sodipodi-0.dtd" xmlns="http://www.w3.org/2000/svg" xmlns:svg="http://www.w3.org/2000/svg" width="344" height="317" viewBox="0 0 344 317" fill="none" version="1.1" id="svg55044" sodipodi:docname="xtdb-origami-cube-lg.svg" inkscape:version="1.1.1 (3bf5ae0d25, 2021-09-20)">
  <defs id="defs55048">
    <linearGradient id="b" x1="143.013" y1="221.076" x2="193.304" y2="221.076" gradientUnits="userSpaceOnUse">
      <stop offset=".464" stop-color="#fff" id="stop55672"/>
      <stop offset=".567" stop-color="#FCFCFC" id="stop55674"/>
      <stop offset=".639" stop-color="#F3F3F3" id="stop55676"/>
      <stop offset=".701" stop-color="#E4E4E4" id="stop55678"/>
      <stop offset=".758" stop-color="#CECECE" id="stop55680"/>
      <stop offset=".811" stop-color="#B2B2B2" id="stop55682"/>
      <stop offset=".861" stop-color="#8F8F8F" id="stop55684"/>
      <stop offset=".909" stop-color="#666" id="stop55686"/>
      <stop offset=".955" stop-color="#373737" id="stop55688"/>
      <stop offset=".998" stop-color="#020202" id="stop55690"/>
      <stop offset="1" id="stop55692"/>
    </linearGradient>
    <linearGradient id="c" x1="83.75" y1="98.693" x2="83.75" y2="186.809" gradientUnits="userSpaceOnUse">
      <stop offset=".464" stop-color="#fff" id="stop55695"/>
      <stop offset=".56" stop-color="#FCFCFC" id="stop55697"/>
      <stop offset=".631" stop-color="#F3F3F3" id="stop55699"/>
      <stop offset=".694" stop-color="#E3E3E3" id="stop55701"/>
      <stop offset=".752" stop-color="#CCC" id="stop55703"/>
      <stop offset=".807" stop-color="#AFAFAF" id="stop55705"/>
      <stop offset=".86" stop-color="#8B8B8B" id="stop55707"/>
      <stop offset=".91" stop-color="#606060" id="stop55709"/>
      <stop offset=".958" stop-color="#303030" id="stop55711"/>
      <stop offset="1" id="stop55713"/>
    </linearGradient>
    <linearGradient id="d" x1="83.354" y1="281.933" x2="83.354" y2="194.15" gradientUnits="userSpaceOnUse">
      <stop offset=".464" stop-color="#fff" id="stop55716"/>
      <stop offset=".663" stop-color="#FDFDFD" id="stop55718"/>
      <stop offset=".736" stop-color="#F6F6F6" id="stop55720"/>
      <stop offset=".787" stop-color="#EBEBEB" id="stop55722"/>
      <stop offset=".828" stop-color="#DADADA" id="stop55724"/>
      <stop offset=".864" stop-color="#C4C4C4" id="stop55726"/>
      <stop offset=".895" stop-color="#A8A8A8" id="stop55728"/>
      <stop offset=".924" stop-color="#888" id="stop55730"/>
      <stop offset=".95" stop-color="#626262" id="stop55732"/>
      <stop offset=".974" stop-color="#373737" id="stop55734"/>
      <stop offset=".996" stop-color="#090909" id="stop55736"/>
      <stop offset="1" id="stop55738"/>
    </linearGradient>
    <linearGradient id="e" x1="196.728" y1="253.726" x2="168.863" y2="205.463" gradientUnits="userSpaceOnUse">
      <stop stop-color="#F7941E" id="stop55741"/>
      <stop offset=".252" stop-color="#F5931E" id="stop55743"/>
      <stop offset=".391" stop-color="#ED8E1D" id="stop55745"/>
      <stop offset=".501" stop-color="#DF861B" id="stop55747"/>
      <stop offset=".598" stop-color="#CB7A19" id="stop55749"/>
      <stop offset=".685" stop-color="#B26B16" id="stop55751"/>
      <stop offset=".765" stop-color="#935812" id="stop55753"/>
      <stop offset=".84" stop-color="#6E420D" id="stop55755"/>
      <stop offset=".91" stop-color="#432808" id="stop55757"/>
      <stop offset=".976" stop-color="#140C02" id="stop55759"/>
      <stop offset="1" id="stop55761"/>
    </linearGradient>
    <linearGradient id="f" x1="196.728" y1="253.726" x2="168.863" y2="205.463" gradientUnits="userSpaceOnUse">
      <stop stop-color="#FCAA20" id="stop55764"/>
      <stop offset=".559" stop-color="#FCA820" id="stop55766"/>
      <stop offset=".76" stop-color="#FBA11E" id="stop55768"/>
      <stop offset=".903" stop-color="#F9961B" id="stop55770"/>
      <stop offset="1" stop-color="#F78817" id="stop55772"/>
    </linearGradient>
    <linearGradient id="g" x1="196.728" y1="253.726" x2="168.863" y2="205.463" gradientUnits="userSpaceOnUse">
      <stop stop-color="#FAAD3A" id="stop55775"/>
      <stop offset=".523" stop-color="#FAAB39" id="stop55777"/>
      <stop offset=".712" stop-color="#FAA433" id="stop55779"/>
      <stop offset=".846" stop-color="#FA992A" id="stop55781"/>
      <stop offset=".954" stop-color="#F9881D" id="stop55783"/>
      <stop offset="1" stop-color="#F97E16" id="stop55785"/>
    </linearGradient>
    <linearGradient id="h" x1="196.728" y1="253.726" x2="168.863" y2="205.463" gradientUnits="userSpaceOnUse">
      <stop stop-color="#FBBE3F" id="stop55788"/>
      <stop offset=".506" stop-color="#FABE42" id="stop55790"/>
      <stop offset="1" stop-color="#F8A232" id="stop55792"/>
    </linearGradient>
    <linearGradient id="i" x1="195.532" y1="126.856" x2="223.397" y2="175.119" gradientUnits="userSpaceOnUse">
      <stop stop-color="#FCAA20" id="stop55795"/>
      <stop offset=".567" stop-color="#FBA61F" id="stop55797"/>
      <stop offset="1" stop-color="#F67C13" id="stop55799"/>
    </linearGradient>
    <linearGradient id="j" x1="174.779" y1="297.285" x2="268.529" y2="134.905" gradientUnits="userSpaceOnUse">
      <stop offset=".386" stop-color="#333" stop-opacity="0" id="stop55802"/>
      <stop offset=".663" stop-color="#313131" stop-opacity=".451" id="stop55804"/>
      <stop offset=".789" stop-color="#292929" stop-opacity=".657" id="stop55806"/>
      <stop offset=".885" stop-color="#1D1D1D" stop-opacity=".813" id="stop55808"/>
      <stop offset=".965" stop-color="#0B0B0B" stop-opacity=".942" id="stop55810"/>
      <stop offset="1" id="stop55812"/>
    </linearGradient>
    <linearGradient id="k" x1="189.838" y1="241.304" x2="211.725" y2="263.19" gradientUnits="userSpaceOnUse">
      <stop stop-color="#FCAD2E" stop-opacity="0" id="stop55815"/>
      <stop offset=".528" stop-color="#F99720" stop-opacity=".8" id="stop55817"/>
      <stop offset="1" stop-color="#F88218" id="stop55819"/>
    </linearGradient>
    <linearGradient id="l" x1="140.315" y1="157.193" x2="140.315" y2="91.984" gradientUnits="userSpaceOnUse">
      <stop offset=".774" stop-color="#fff" id="stop55822"/>
      <stop offset=".858" stop-color="#FDFDFD" id="stop55824"/>
      <stop offset=".888" stop-color="#F6F6F6" id="stop55826"/>
      <stop offset=".91" stop-color="#EBEBEB" id="stop55828"/>
      <stop offset=".928" stop-color="#DADADA" id="stop55830"/>
      <stop offset=".943" stop-color="#C4C4C4" id="stop55832"/>
      <stop offset=".956" stop-color="#A8A8A8" id="stop55834"/>
      <stop offset=".968" stop-color="#888" id="stop55836"/>
      <stop offset=".979" stop-color="#626262" id="stop55838"/>
      <stop offset=".989" stop-color="#373737" id="stop55840"/>
      <stop offset=".998" stop-color="#090909" id="stop55842"/>
      <stop offset="1" id="stop55844"/>
    </linearGradient>
    <linearGradient id="m" x1="139.316" y1="27.926" x2="139.316" y2="93.135" gradientUnits="userSpaceOnUse">
      <stop offset=".774" stop-color="#fff" id="stop55847"/>
      <stop offset=".858" stop-color="#FDFDFD" id="stop55849"/>
      <stop offset=".888" stop-color="#F6F6F6" id="stop55851"/>
      <stop offset=".91" stop-color="#EBEBEB" id="stop55853"/>
      <stop offset=".928" stop-color="#DADADA" id="stop55855"/>
      <stop offset=".943" stop-color="#C4C4C4" id="stop55857"/>
      <stop offset=".956" stop-color="#A8A8A8" id="stop55859"/>
      <stop offset=".968" stop-color="#888" id="stop55861"/>
      <stop offset=".979" stop-color="#626262" id="stop55863"/>
      <stop offset=".989" stop-color="#373737" id="stop55865"/>
      <stop offset=".998" stop-color="#090909" id="stop55867"/>
      <stop offset="1" id="stop55869"/>
    </linearGradient>
    <linearGradient id="n" x1="204.968" y1="64.672" x2="148.62" y2="162.27" gradientUnits="userSpaceOnUse">
      <stop stop-color="#fff" id="stop55872"/>
      <stop offset=".373" stop-color="#FDFDFD" id="stop55874"/>
      <stop offset=".507" stop-color="#F6F6F6" id="stop55876"/>
      <stop offset=".603" stop-color="#EBEBEB" id="stop55878"/>
      <stop offset=".68" stop-color="#DADADA" id="stop55880"/>
      <stop offset=".746" stop-color="#C4C4C4" id="stop55882"/>
      <stop offset=".805" stop-color="#A8A8A8" id="stop55884"/>
      <stop offset=".858" stop-color="#888" id="stop55886"/>
      <stop offset=".907" stop-color="#626262" id="stop55888"/>
      <stop offset=".952" stop-color="#373737" id="stop55890"/>
      <stop offset=".993" stop-color="#090909" id="stop55892"/>
      <stop offset="1" id="stop55894"/>
    </linearGradient>
    <linearGradient id="o" x1="105.925" y1="89.43" x2="141.757" y2="27.367" gradientUnits="userSpaceOnUse">
      <stop stop-color="#fff" id="stop55897"/>
      <stop offset=".373" stop-color="#FDFDFD" id="stop55899"/>
      <stop offset=".507" stop-color="#F6F6F6" id="stop55901"/>
      <stop offset=".603" stop-color="#EBEBEB" id="stop55903"/>
      <stop offset=".68" stop-color="#DADADA" id="stop55905"/>
      <stop offset=".746" stop-color="#C4C4C4" id="stop55907"/>
      <stop offset=".805" stop-color="#A8A8A8" id="stop55909"/>
      <stop offset=".858" stop-color="#888" id="stop55911"/>
      <stop offset=".907" stop-color="#626262" id="stop55913"/>
      <stop offset=".952" stop-color="#373737" id="stop55915"/>
      <stop offset=".993" stop-color="#090909" id="stop55917"/>
      <stop offset="1" id="stop55919"/>
    </linearGradient>
    <linearGradient id="p" x1="-4.118" y1="130.863" x2="136.877" y2="271.858" gradientUnits="userSpaceOnUse">
      <stop stop-color="#fff" id="stop55922"/>
      <stop offset=".373" stop-color="#FDFDFD" id="stop55924"/>
      <stop offset=".507" stop-color="#F6F6F6" id="stop55926"/>
      <stop offset=".603" stop-color="#EBEBEB" id="stop55928"/>
      <stop offset=".68" stop-color="#DADADA" id="stop55930"/>
      <stop offset=".746" stop-color="#C4C4C4" id="stop55932"/>
      <stop offset=".805" stop-color="#A8A8A8" id="stop55934"/>
      <stop offset=".858" stop-color="#888" id="stop55936"/>
      <stop offset=".907" stop-color="#626262" id="stop55938"/>
      <stop offset=".952" stop-color="#373737" id="stop55940"/>
      <stop offset=".993" stop-color="#090909" id="stop55942"/>
      <stop offset="1" id="stop55944"/>
    </linearGradient>
    <clipPath id="a">
      <path fill="#fff" d="M0 0h807.466v314.62H0z" id="path55947"/>
    </clipPath>
  </defs>
  <sodipodi:namedview id="namedview55046" pagecolor="#ffffff" bordercolor="#666666" borderopacity="1.0" inkscape:pageshadow="2" inkscape:pageopacity="0.0" inkscape:pagecheckerboard="0" showgrid="false" inkscape:zoom="1.4179811" inkscape:cx="429.13126" inkscape:cy="444.99889" inkscape:window-width="3784" inkscape:window-height="2122" inkscape:window-x="56" inkscape:window-y="0" inkscape:window-maximized="1" inkscape:current-layer="svg55044"/>
  <g style="fill:none" id="g56129" transform="matrix(1.0014878,0,0,1.0014878,31.931916,0.9565855)">
    <g clip-path="url(#a)" id="g55670">
      <path d="M 139.86,24.42 255.31,90.95 V 223.68 L 139.86,290.21 24.41,223.68 V 90.95 Z M 139.85,153.77 246.23,92.66 139.88,31.19 33.5,92.3 Z M 143,281.1 249.34,220.01 V 97.74 L 143,158.83 Z m -6.27,0 V 158.83 L 30.39,97.74 V 220.01 Z M 139.86,0 c -4.21,0 -8.42,1.09 -12.19,3.26 L 12.22,69.8 A 24.412,24.412 0 0 0 0,90.95 v 132.73 c 0,8.73 4.66,16.79 12.22,21.15 l 115.45,66.53 a 24.429,24.429 0 0 0 24.38,0 L 267.5,244.83 a 24.412,24.412 0 0 0 12.22,-21.15 V 90.95 c 0,-8.73 -4.66,-16.79 -12.22,-21.15 L 152.05,3.27 A 24.337,24.337 0 0 0 139.86,0 Z" fill="#ffffff" id="path55622"/>
      <path d="m 227.53,206.79 14.24,8.78 7.12,4.39 0.96,0.6 V 98.89 c -3.67,7.68 -7.54,15.24 -11.5,22.75 -4.29,8.14 -8.66,16.24 -13.14,24.27 a 786.739,786.739 0 0 1 -13.86,23.86 l -7.16,11.79 -4.88,8.09 13.93,8.42 z M 69.96,89.76 83.91,89.49 c 9.3,-0.12 18.61,-0.08 27.91,0.13 l 13.95,0.33 13.95,0.29 55.81,1.02 27.91,0.62 13.95,0.31 6.56,0.17 c -4.36,-1.47 -8.63,-3.1 -12.87,-4.81 -5.1,-2.05 -10.13,-4.23 -15.12,-6.52 -4.99,-2.28 -9.88,-4.76 -14.71,-7.35 l -7.26,-3.87 -7.3,-3.8 -0.19,-0.1 -0.09,-0.07 -11.87,-8.76 -11.83,-8.82 -11.79,-8.87 -5.89,-4.44 -4.04,-3.07 -1.12,-0.65 L 35.5,91.19 c 6.83,-0.44 13.67,-0.75 20.5,-1 4.66,-0.2 9.31,-0.29 13.96,-0.43 z m 96.41,149.59 13.45,-24.09 13.49,-23.99 c -3.75,-2.02 -7.52,-4 -11.28,-6 -4.92,-2.63 -9.76,-5.4 -14.51,-8.31 -4.75,-2.92 -9.46,-5.91 -14.1,-9.03 -3.51,-2.34 -6.99,-4.74 -10.4,-7.26 v 120.81 l 3.27,-5.94 6.69,-12.06 z" fill="#ffffff" id="path55628"/>
      <path opacity="0.33" d="m 166.37,239.35 13.45,-24.09 13.49,-23.99 c -3.75,-2.02 -7.52,-4 -11.28,-6 -4.92,-2.63 -9.76,-5.4 -14.51,-8.31 -4.75,-2.92 -9.46,-5.91 -14.1,-9.03 -3.51,-2.34 -6.99,-4.74 -10.4,-7.26 v 120.81 l 3.27,-5.94 6.69,-12.06 z" fill="url(#b)" id="path55630" style="fill:url(#b)"/>
      <path d="M 79.88,189.5 C 70.91,173.95 62.06,158.34 53.42,142.6 45.37,127.98 37.45,113.29 29.86,98.4 v 122.54 l 0.19,0.11 c 8.02,-5.7 16.24,-11.05 24.53,-16.28 8.35,-5.23 16.79,-10.31 25.3,-15.27 z m 4.66,-2.69 c 8.65,-4.97 17.37,-9.8 26.19,-14.48 8.52,-4.49 17.1,-8.87 25.88,-12.91 L 30.89,98.69 c 8.98,13.79 17.63,27.76 26.16,41.81 9.35,15.33 18.48,30.79 27.49,46.31 z" fill="#ffffff" id="path55632"/>
      <path opacity="0.33" d="m 84.54,186.81 c 8.65,-4.97 17.37,-9.8 26.19,-14.48 8.52,-4.49 17.1,-8.87 25.88,-12.91 L 30.89,98.69 c 8.98,13.79 17.63,27.76 26.16,41.81 9.35,15.33 18.48,30.79 27.49,46.31 z" fill="url(#c)" id="path55634" style="fill:url(#c)"/>
      <path d="m 82.57,194.15 c -8.54,4.9 -17.16,9.67 -25.87,14.29 -8.56,4.52 -17.19,8.92 -26.02,12.98 l 105.35,60.52 c -8.99,-13.8 -17.66,-27.79 -26.2,-41.85 -9.27,-15.21 -18.33,-30.54 -27.26,-45.94 z" fill="#ffffff" id="path55636"/>
      <path opacity="0.33" d="m 82.57,194.15 c -8.54,4.9 -17.16,9.67 -25.87,14.29 -8.56,4.52 -17.19,8.92 -26.02,12.98 l 105.35,60.52 c -8.99,-13.8 -17.66,-27.79 -26.2,-41.85 -9.27,-15.21 -18.33,-30.54 -27.26,-45.94 z" fill="url(#d)" id="path55638" style="fill:url(#d)"/>
      <path d="m 87.23,191.46 c 8.9,15.42 17.68,30.9 26.24,46.51 7.94,14.41 15.75,28.89 23.23,43.56 V 160.21 c -7.8,5.53 -15.8,10.72 -23.86,15.8 -8.44,5.3 -16.99,10.44 -25.61,15.45 z m 159.19,-98.29 -9.02,0.16 -13.95,0.21 -27.91,0.41 -55.82,0.6 -13.95,0.18 -13.95,0.23 c -9.3,0.14 -18.61,0.11 -27.91,-0.08 L 69.96,94.51 C 65.31,94.33 60.66,94.21 56.01,93.97 48.88,93.66 41.76,93.28 34.64,92.76 l 3.14,1.4 6.93,3.13 13.86,6.26 13.84,6.31 13.8,6.38 0.1,0.05 0.18,0.12 6.95,4.59 6.99,4.53 c 4.67,3.01 9.26,6.12 13.72,9.42 4.47,3.29 8.88,6.67 13.2,10.17 2.69,2.16 5.35,4.38 7.96,6.65 l 4.56,2.63 z" fill="#ffffff" id="path55640"/>
      <path d="m 90.78,124.78 -6.61,-4.87 -13.3,-6.93 -13.46,-7.09 -13.43,-7.14 -5.25,-2.8 59.34,34.3 c -0.21,-0.16 -0.42,-0.31 -0.63,-0.47 z m 64.52,39.86 c 5.03,2.44 9.98,5 14.9,7.64 4.91,2.64 9.74,5.43 14.49,8.36 3.6,2.23 7.2,4.48 10.81,6.69 l 4.55,-8.17 6.68,-12.07 c 4.46,-8.04 9.07,-16 13.81,-23.88 4.74,-7.88 9.59,-15.7 14.53,-23.47 4.53,-7.12 9.14,-14.19 13.94,-21.15 l -105.5,60.6 c 4,1.71 7.91,3.55 11.79,5.45 z m -8.03,111.48 -3.52,5.78 105.36,-60.53 -0.79,-0.42 -7.38,-3.94 -14.76,-7.88 -14.72,-7.95 -14.36,-7.85 -0.03,0.05 -14.15,23.68 -14.22,23.65 -14.29,23.61 z m 16.94,-229.98 12.32,8.12 12.1,8.06 7.38,3.37 7.52,3.35 c 2.9,1.28 5.78,2.6 8.64,3.98 L 152.92,38.77 Z" fill="#f7941e" id="path55642"/>
      <path opacity="0.49" d="m 142.12,285.25 109.07,-63.31 -43.07,-24.47 -12.98,-7.18 z" fill="url(#e)" id="path55644" style="fill:url(#e)"/>
      <path opacity="0.3" d="m 142.12,285.25 109.07,-63.31 -43.07,-24.47 -12.98,-7.18 z" fill="url(#f)" id="path55646" style="fill:url(#f)"/>
      <path d="m 142.12,285.25 109.07,-63.31 -43.07,-24.47 -12.98,-7.18 z" fill="url(#g)" id="path55648" style="fill:url(#g)"/>
      <path d="m 142.12,285.25 109.07,-63.31 -43.07,-24.47 -12.98,-7.18 z" fill="url(#h)" id="path55650" style="fill:url(#h)"/>
      <path d="m 250.14,95.33 -109.07,63.31 43.07,24.47 12.98,7.18 z" fill="url(#i)" id="path55652" style="fill:url(#i)"/>
      <path opacity="0.71" d="m 250.66,124.59 c 0,0 -0.25,33.86 -24.09,76.78 -19.29,34.73 -77.74,80.94 -77.74,80.94 l 103.89,-60.12 -0.17,-90.79 z" fill="url(#j)" id="path55654" style="fill:url(#j)"/>
      <path d="m 234.25,212.56 c 0,0 -2.25,-0.75 -2.88,-3.01 -0.63,1.32 -0.91,-2.02 -2.26,0.26 -20.57,34.7 -80.27,72.5 -80.27,72.5 l 103.89,-60.12 -3.62,-0.82 z" fill="url(#k)" id="path55656" style="fill:url(#k)"/>
      <path opacity="0.43" d="M 34.91,93.74 28.09,91.98 H 252.54 L 141.21,157.19 83.45,117.22 Z" fill="url(#l)" id="path55658" style="fill:url(#l)"/>
      <path opacity="0.43" d="m 244.72,91.38 6.82,1.76 H 27.09 L 138.42,27.93 196.19,67.9 Z" fill="url(#m)" id="path55660" style="fill:url(#m)"/>
      <path opacity="0.23" d="m 100.36,128.27 c 0,0 40.87,4.76 66.28,-10.9 25.41,-15.66 54.26,-25.64 80.72,-24.97 26.47,0.67 -19.62,13.45 -19.62,13.45 l -86.67,52.06 z" fill="url(#n)" id="path55662" style="fill:url(#n)"/>
      <path opacity="0.23" d="m 174.52,54.95 c 0,0 -24.52,-16.82 -49.92,-8.19 -25.4,8.62 10.38,21.96 -16.09,21.59 -26.47,-0.37 -39.09,0 -39.09,0 l 70.31,-42.16 z" fill="url(#o)" id="path55664" style="fill:url(#o)"/>
      <path opacity="0.33" d="m 26.66,100.09 c 0,0 1.94,18.79 8.95,28.81 7.01,10.02 22.79,19.29 28.56,45.84 5.76,26.55 12.02,51.35 31.56,67.38 19.54,16.03 32.31,38.58 32.31,38.58 L 28.09,224.63 Z" fill="url(#p)" id="path55666" style="fill:url(#p)"/>
      <path d="M 255.86,224.58 V 91.27 l -116,-66.85 -116,66.85 v 133.35 l 116,66.85 c 38.55,-22.48 77.548,-44.305 116,-66.89 z m -112.85,56.9 V 160.67 c 3.41,2.52 6.89,4.92 10.4,7.26 4.64,3.12 9.35,6.11 14.1,9.03 4.76,2.91 9.59,5.68 14.51,8.31 3.76,2 7.53,3.98 11.28,6 l -13.49,23.99 -13.45,24.09 -13.39,24.13 -6.69,12.06 z m 4.26,-5.36 7.14,-11.8 14.28,-23.61 14.22,-23.65 14.15,-23.69 0.03,-0.04 14.36,7.85 14.72,7.95 14.76,7.89 7.38,3.94 0.79,0.42 -105.36,60.53 z m 102.58,-55.56 -0.96,-0.6 -7.12,-4.39 -14.24,-8.78 -14.28,-8.72 -13.93,-8.42 4.88,-8.09 7.16,-11.79 a 774.815,774.815 0 0 0 13.86,-23.86 c 4.48,-8.03 8.86,-16.13 13.14,-24.27 3.95,-7.51 7.82,-15.07 11.5,-22.75 V 220.56 Z M 235.07,119.74 c -4.94,7.77 -9.78,15.59 -14.53,23.47 -4.75,7.88 -9.35,15.84 -13.81,23.88 l -6.68,12.07 -4.55,8.17 c -3.61,-2.21 -7.21,-4.46 -10.81,-6.69 -4.75,-2.93 -9.58,-5.72 -14.49,-8.36 -4.91,-2.64 -9.87,-5.2 -14.9,-7.64 -3.88,-1.9 -7.8,-3.74 -11.79,-5.45 l 105.5,-60.6 c -4.8,6.96 -9.41,14.03 -13.94,21.15 z M 141,31.88 l 4.04,3.07 5.89,4.44 11.79,8.87 11.83,8.82 11.87,8.76 0.09,0.07 0.19,0.1 7.3,3.8 7.26,3.87 c 4.83,2.6 9.72,5.08 14.71,7.35 4.99,2.28 10.02,4.47 15.12,6.52 4.24,1.72 8.51,3.35 12.87,4.81 l -6.56,-0.17 -13.95,-0.31 -27.91,-0.62 -55.81,-1.02 -13.95,-0.29 -13.95,-0.33 c -9.3,-0.21 -18.6,-0.25 -27.91,-0.13 l -13.95,0.27 c -4.65,0.14 -9.3,0.23 -13.96,0.43 -6.83,0.25 -13.67,0.56 -20.5,1 L 139.88,31.23 Z m 62.52,37.16 -7.52,-3.35 -7.38,-3.37 -12.1,-8.06 -12.32,-8.12 -11.29,-7.38 59.25,34.25 c -2.85,-1.37 -5.73,-2.69 -8.64,-3.97 z m -93.69,171.04 c 8.54,14.06 17.2,28.05 26.2,41.85 L 30.68,221.41 c 8.83,-4.06 17.46,-8.46 26.02,-12.98 8.71,-4.62 17.32,-9.39 25.87,-14.29 8.93,15.41 17.99,30.74 27.26,45.94 z M 57.05,140.5 C 48.52,126.45 39.86,112.48 30.89,98.69 l 105.72,60.74 c -8.78,4.04 -17.37,8.41 -25.88,12.91 -8.82,4.67 -17.54,9.51 -26.19,14.48 C 75.53,171.29 66.4,155.83 57.05,140.5 Z m 56.42,97.47 c -8.57,-15.61 -17.34,-31.1 -26.24,-46.51 8.62,-5.01 17.17,-10.15 25.62,-15.45 8.06,-5.08 16.05,-10.27 23.86,-15.8 v 121.33 c -7.49,-14.68 -15.3,-29.16 -23.24,-43.57 z M 38.72,95.95 l 5.25,2.8 13.43,7.14 13.46,7.09 13.3,6.93 6.61,4.87 6.66,5 c 0.21,0.16 0.42,0.31 0.63,0.47 z m -8.86,2.46 c 7.59,14.89 15.51,29.58 23.56,44.2 8.64,15.74 17.49,31.36 26.46,46.9 a 880.272,880.272 0 0 0 -25.3,15.27 c -8.29,5.23 -16.51,10.58 -24.53,16.28 l -0.19,-0.11 z m 105.43,53.35 c -2.61,-2.28 -5.27,-4.49 -7.96,-6.65 -4.32,-3.5 -8.73,-6.88 -13.2,-10.17 -4.46,-3.3 -9.06,-6.41 -13.72,-9.42 l -6.99,-4.53 -6.95,-4.59 -0.18,-0.12 -0.1,-0.05 -13.8,-6.38 -13.84,-6.31 -13.86,-6.26 -6.93,-3.13 -3.14,-1.4 c 7.12,0.52 14.25,0.9 21.37,1.21 4.65,0.23 9.3,0.36 13.95,0.54 l 13.95,0.37 c 9.3,0.19 18.6,0.21 27.91,0.08 l 13.95,-0.23 13.95,-0.18 55.82,-0.6 27.91,-0.41 13.95,-0.21 9.02,-0.16 -106.58,61.22 z" fill="#333333" id="path55668"/>
    </g>
  </g>
</svg>
