<?xml version="1.0"?>
<svg xmlns="http://www.w3.org/2000/svg" viewBox="0 0 300 300">
  <g id="Layer_6" data-name="Layer 6">
    <rect x="45.90226" y="48.33445" width="208.19548" height="203.3311" rx="55.23808" fill="#ffe7d3"/>
    <polygon points="115.72 77.058 115.72 169.178 193.168 182.044 193.168 59.597 115.72 77.058" fill="#ffc292"/>
    <path d="M193.168,183.044a.97853.97853,0,0,1-.16406-.01368l-77.44825-12.86621a.99946.99946,0,0,1-.83593-.98633V77.05762A1.00029,1.00029,0,0,1,115.5,76.082l77.44824-17.46045a.99986.99986,0,0,1,1.21973.97559V182.044a1.00045,1.00045,0,0,1-1,1Zm-76.44824-14.71387L192.168,180.86426V60.84766L116.71973,77.85742Z" fill="#ec8e56"/>
    <path d="M162.10547,155.03076l-.02149-.001-46.46582-4.082a.25036.25036,0,0,1-.22851-.248L115.06836,77.04a.25027.25027,0,0,1,.19531-.24512l46.459-10.4414a.25687.25687,0,0,1,.21093.04882.24992.24992,0,0,1,.09375.19434l.32813,88.18311a.25036.25036,0,0,1-.25.251Zm-46.2168-4.561,45.96582,4.03808-.32617-87.59814-45.959,10.3291Z" fill="#ec8e56"/>
    <polygon points="115.496 114.137 115.463 113.638 161.925 110.467 161.958 110.966 115.496 114.137" fill="#ec8e56"/>
    <polygon points="162.021 133.005 115.557 132.548 115.563 132.048 162.026 132.505 162.021 133.005" fill="#ec8e56"/>
    <rect x="115.15064" y="91.81598" width="46.95653" height="0.50036" transform="matrix(0.98952, -0.14443, 0.14443, 0.98952, -11.84333, 20.98693)" fill="#ec8e56"/>
    <rect x="110.26959" y="83.62813" width="31.32215" height="0.49912" transform="translate(-20.86326 120.55932) rotate(-47.69615)" fill="#ec8e56"/>
    <rect x="133.42854" y="142.39984" width="32.08921" height="0.50012" transform="translate(-56.17285 122.6264) rotate(-38.10067)" fill="#ec8e56"/>
    <path d="M115.80273,150.88818l-.32617-.3789,46.0625-39.77539L115.17188,77.2417l.293-.40527,46.623,33.67724a.25327.25327,0,0,1,.10352.1919.25038.25038,0,0,1-.08692.20019Z" fill="#ec8e56"/>
    <rect x="105.53824" y="89.99269" width="66.18035" height="0.49998" transform="translate(-22.81997 126.24261) rotate(-45.63308)" fill="#ec8e56"/>
    <rect x="138.51995" y="103.34894" width="0.50014" height="61.9696" transform="translate(-53.80358 149.10128) rotate(-48.45453)" fill="#ec8e56"/>
    <rect x="138.4385" y="84.18732" width="0.49995" height="59.63903" transform="matrix(0.62868, -0.77766, 0.77766, 0.62868, -37.16143, 150.18502)" fill="#ec8e56"/>
    <path d="M136.78906,152.80664a.24939.24939,0,0,1-.17187-.06885L115.3877,132.57568a.25021.25021,0,0,1,0-.36328l20.98828-19.77-.16309-40.15429a.25108.25108,0,0,1,.12988-.22022.24709.24709,0,0,1,.25586.00977l25.39746,16.49267a.25.25,0,0,1,.03614.3916L136.877,112.65723l.16211,39.89843a.25067.25067,0,0,1-.25.251Zm-20.86523-20.41113,20.61328,19.57666-.1582-38.84571Zm20.791-59.647.15918,39.2246,24.583-23.15722Z" fill="#ec8e56"/>
    <path d="M162.22266,177.15283a.25352.25352,0,0,1-.17286-.06885l-.08984-.08593-46.25488-7.66553a.2504.2504,0,0,1-.209-.24561l-.08007-18.39355a.25171.25171,0,0,1,.081-.18506.248.248,0,0,1,.19043-.06494l46.47461,4.081a.24961.24961,0,0,1,.22851.24805l.082,22.1294a.25107.25107,0,0,1-.15137.23046A.24788.24788,0,0,1,162.22266,177.15283ZM115.99512,168.874l45.97558,7.61914-.0791-21.49072L115.917,150.96533Z" fill="#ec8e56"/>
    <rect x="138.73392" y="149.38227" width="0.49994" height="47.10948" transform="translate(-54.34925 281.77648) rotate(-80.5902)" fill="#ec8e56"/>
    <rect x="112.88866" y="160.56855" width="26.78713" height="0.50012" transform="translate(-72.3251 112.18781) rotate(-38.10067)" fill="#ec8e56"/>
    <polygon points="136.721 172.766 115.486 150.866 115.846 150.519 137.08 172.418 136.721 172.766" fill="#ec8e56"/>
    <polygon points="137.045 172.796 136.756 172.388 161.995 154.569 162.284 154.978 137.045 172.796" fill="#ec8e56"/>
    <rect x="115.69711" y="168.87166" width="0.50031" height="0.30356" transform="translate(-83.3806 121.26266) rotate(-42.07597)" fill="#ec8e56"/>
    <path d="M162.0498,177.083l-24.97851-23.94434.0791,19.45215-.5.00195-.081-20.0415a.24987.24987,0,0,1,.42285-.18164l25.40332,24.353Z" fill="#ec8e56"/>
    <path d="M162.10547,155.03076l-.02149-.001-46.46582-4.082a.25036.25036,0,0,1-.22851-.248L115.06836,77.04a.25027.25027,0,0,1,.19531-.24512l46.459-10.4414a.25687.25687,0,0,1,.21093.04882.24992.24992,0,0,1,.09375.19434l.32813,88.18311a.25036.25036,0,0,1-.25.251Zm-46.2168-4.561,45.96582,4.03808-.32617-87.59814-45.959,10.3291Z" fill="#ec8e56"/>
    <polygon points="115.496 114.137 115.463 113.638 161.925 110.467 161.958 110.966 115.496 114.137" fill="#ec8e56"/>
    <polygon points="162.021 133.005 115.557 132.548 115.563 132.048 162.026 132.505 162.021 133.005" fill="#ec8e56"/>
    <rect x="115.15064" y="91.81598" width="46.95653" height="0.50036" transform="matrix(0.98952, -0.14443, 0.14443, 0.98952, -11.84333, 20.98693)" fill="#ec8e56"/>
    <rect x="110.26959" y="83.62813" width="31.32215" height="0.49912" transform="translate(-20.86326 120.55932) rotate(-47.69615)" fill="#ec8e56"/>
    <rect x="133.42854" y="142.39984" width="32.08921" height="0.50012" transform="translate(-56.17285 122.6264) rotate(-38.10067)" fill="#ec8e56"/>
    <path d="M115.80273,150.88818l-.32617-.3789,46.0625-39.77539L115.17188,77.2417l.293-.40527,46.623,33.67724a.25327.25327,0,0,1,.10352.1919.25038.25038,0,0,1-.08692.20019Z" fill="#ec8e56"/>
    <rect x="105.53824" y="89.99269" width="66.18035" height="0.49998" transform="translate(-22.81997 126.24261) rotate(-45.63308)" fill="#ec8e56"/>
    <rect x="138.51995" y="103.34894" width="0.50014" height="61.9696" transform="translate(-53.80358 149.10128) rotate(-48.45453)" fill="#ec8e56"/>
    <rect x="138.4385" y="84.18732" width="0.49995" height="59.63903" transform="matrix(0.62868, -0.77766, 0.77766, 0.62868, -37.16143, 150.18502)" fill="#ec8e56"/>
    <path d="M136.78906,152.80664a.24939.24939,0,0,1-.17187-.06885L115.3877,132.57568a.25021.25021,0,0,1,0-.36328l20.98828-19.77-.16309-40.15429a.25108.25108,0,0,1,.12988-.22022.24709.24709,0,0,1,.25586.00977l25.39746,16.49267a.25.25,0,0,1,.03614.3916L136.877,112.65723l.16211,39.89843a.25067.25067,0,0,1-.25.251Zm-20.86523-20.41113,20.61328,19.57666-.1582-38.84571Zm20.791-59.647.15918,39.2246,24.583-23.15722Z" fill="#ec8e56"/>
    <path d="M162.22266,177.15283a.25352.25352,0,0,1-.17286-.06885l-.08984-.08593-46.25488-7.66553a.2504.2504,0,0,1-.209-.24561l-.08007-18.39355a.25171.25171,0,0,1,.081-.18506.248.248,0,0,1,.19043-.06494l46.47461,4.081a.24961.24961,0,0,1,.22851.24805l.082,22.1294a.25107.25107,0,0,1-.15137.23046A.24788.24788,0,0,1,162.22266,177.15283ZM115.99512,168.874l45.97558,7.61914-.0791-21.49072L115.917,150.96533Z" fill="#ec8e56"/>
    <rect x="138.73392" y="149.38227" width="0.49994" height="47.10948" transform="translate(-54.34925 281.77648) rotate(-80.5902)" fill="#ec8e56"/>
    <rect x="112.88866" y="160.56855" width="26.78713" height="0.50012" transform="translate(-72.3251 112.18781) rotate(-38.10067)" fill="#ec8e56"/>
    <polygon points="136.721 172.766 115.486 150.866 115.846 150.519 137.08 172.418 136.721 172.766" fill="#ec8e56"/>
    <polygon points="137.045 172.796 136.756 172.388 161.995 154.569 162.284 154.978 137.045 172.796" fill="#ec8e56"/>
    <rect x="115.69711" y="168.87166" width="0.50031" height="0.30356" transform="translate(-83.3806 121.26266) rotate(-42.07597)" fill="#ec8e56"/>
    <path d="M162.0498,177.083l-24.97851-23.94434.0791,19.45215-.5.00195-.081-20.0415a.24987.24987,0,0,1,.42285-.18164l25.40332,24.353Z" fill="#ec8e56"/>
    <path d="M192.99805,157.74463l-.02149-.001-56.17871-4.93506a.25036.25036,0,0,1-.22851-.248l-.32618-80.2793a.2513.2513,0,0,1,.19532-.24512l56.18261-12.62646a.25685.25685,0,0,1,.21094.04883.24992.24992,0,0,1,.09375.19433l.32227,97.84082a.25036.25036,0,0,1-.25.251Zm-55.92969-5.41406,55.67871,4.89111-.32031-97.25586L136.74414,72.48Z" fill="#ec8e56"/>
    <polygon points="136.673 112.692 136.64 112.193 192.82 108.358 192.854 108.857 136.673 112.692" fill="#ec8e56"/>
    <polygon points="192.914 133.309 136.735 132.756 136.741 132.256 192.92 132.809 192.914 133.309" fill="#ec8e56"/>
    <rect x="136.27557" y="88.00275" width="56.78089" height="0.50036" transform="matrix(0.98952, -0.14443, 0.14443, 0.98952, -11.01962, 24.70739)" fill="#ec8e56"/>
    <rect x="131.1569" y="79.22828" width="36.07584" height="0.49998" transform="translate(-11.94692 130.5589) rotate(-45.63308)" fill="#ec8e56"/>
    <polygon points="162.359 154.985 162.07 154.577 192.862 132.846 193.151 133.254 162.359 154.985" fill="#ec8e56"/>
    <path d="M136.97363,152.75635l-.30859-.39356,55.74121-43.73535L136.35742,72.49023l.27149-.41992,56.34375,36.32715a.24972.24972,0,0,1,.01855.40674Z" fill="#ec8e56"/>
    <rect x="126.17958" y="85.79767" width="76.97286" height="0.50085" transform="translate(-14.15086 136.48315) rotate(-43.34086)" fill="#ec8e56"/>
    <rect x="164.54788" y="98.94368" width="0.49995" height="72.04818" transform="translate(-43.75376 178.33662) rotate(-51.06451)" fill="#ec8e56"/>
    <rect x="164.46609" y="77.90163" width="0.50043" height="69.39253" transform="translate(-23.35189 179.23201) rotate(-53.86565)" fill="#ec8e56"/>
    <path d="M162.1416,155.03369a.24739.24739,0,0,1-.16406-.06152l-25.40332-22.17188a.24979.24979,0,0,1,.001-.37793l25.15332-21.707-.16407-44.12451a.2503.2503,0,0,1,.374-.21826l30.94238,17.67773a.25.25,0,0,1,.03906.40674l-30.6914,26.48633.16308,43.83935a.25006.25006,0,0,1-.25.251Zm-25.02148-22.4209,24.76953,21.61914-.15918-42.85839Zm24.94629-65.59131.16015,43.26368,30.09961-25.97608Z" fill="#ec8e56"/>
    <path d="M193.12109,182.28613a.24839.24839,0,0,1-.165-.0625l-.124-.10937-55.94141-9.27051a.25041.25041,0,0,1-.209-.24561l-.081-20.04443a.25171.25171,0,0,1,.081-.18506.25838.25838,0,0,1,.19043-.06494l56.19043,4.93408a.25.25,0,0,1,.22852.24805l.08007,24.54932a.25006.25006,0,0,1-.25.251Zm-55.94043-9.90088,55.68946,9.22852-.07813-23.89795-55.69043-4.89014Z" fill="#ec8e56"/>
    <rect x="164.7764" y="148.77505" width="0.49994" height="56.95576" transform="translate(-36.82137 311.08041) rotate(-80.59065)" fill="#ec8e56"/>
    <polygon points="137.076 172.802 136.787 172.394 162.033 154.573 162.322 154.981 137.076 172.802" fill="#ec8e56"/>
    <polygon points="162.087 176.975 136.678 152.733 137.023 152.372 162.433 176.614 162.087 176.975" fill="#ec8e56"/>
    <rect x="159.48263" y="166.89053" width="36.33551" height="0.50019" transform="translate(-61.64009 119.85727) rotate(-32.07653)" fill="#ec8e56"/>
    <polygon points="137.11 172.83 136.872 172.583 137.229 172.233 137.472 172.483 137.11 172.83" fill="#ec8e56"/>
    <path d="M192.95605,182.22363,162.42969,155.332l.08008,21.46143-.5.00195-.082-22.01758a.24984.24984,0,0,1,.415-.18847l30.94336,27.25927Z" fill="#ec8e56"/>
    <path d="M192.99805,157.74463l-.02149-.001-56.17871-4.93506a.25036.25036,0,0,1-.22851-.248l-.32618-80.2793a.2513.2513,0,0,1,.19532-.24512l56.18261-12.62646a.25685.25685,0,0,1,.21094.04883.24992.24992,0,0,1,.09375.19433l.32227,97.84082a.25036.25036,0,0,1-.25.251Zm-55.92969-5.41406,55.67871,4.89111-.32031-97.25586L136.74414,72.48Z" fill="#ec8e56"/>
    <polygon points="136.673 112.692 136.64 112.193 192.82 108.358 192.854 108.857 136.673 112.692" fill="#ec8e56"/>
    <polygon points="192.914 133.309 136.735 132.756 136.741 132.256 192.92 132.809 192.914 133.309" fill="#ec8e56"/>
    <rect x="136.27557" y="88.00275" width="56.78089" height="0.50036" transform="matrix(0.98952, -0.14443, 0.14443, 0.98952, -11.01962, 24.70739)" fill="#ec8e56"/>
    <rect x="131.1569" y="79.22828" width="36.07584" height="0.49998" transform="translate(-11.94692 130.5589) rotate(-45.63308)" fill="#ec8e56"/>
    <polygon points="162.359 154.985 162.07 154.577 192.862 132.846 193.151 133.254 162.359 154.985" fill="#ec8e56"/>
    <path d="M136.97363,152.75635l-.30859-.39356,55.74121-43.73535L136.35742,72.49023l.27149-.41992,56.34375,36.32715a.24972.24972,0,0,1,.01855.40674Z" fill="#ec8e56"/>
    <rect x="126.17958" y="85.79767" width="76.97286" height="0.50085" transform="translate(-14.15086 136.48315) rotate(-43.34086)" fill="#ec8e56"/>
    <rect x="164.54788" y="98.94368" width="0.49995" height="72.04818" transform="translate(-43.75376 178.33662) rotate(-51.06451)" fill="#ec8e56"/>
    <rect x="164.46609" y="77.90163" width="0.50043" height="69.39253" transform="translate(-23.35189 179.23201) rotate(-53.86565)" fill="#ec8e56"/>
    <path d="M162.1416,155.03369a.24739.24739,0,0,1-.16406-.06152l-25.40332-22.17188a.24979.24979,0,0,1,.001-.37793l25.15332-21.707-.16407-44.12451a.2503.2503,0,0,1,.374-.21826l30.94238,17.67773a.25.25,0,0,1,.03906.40674l-30.6914,26.48633.16308,43.83935a.25006.25006,0,0,1-.25.251Zm-25.02148-22.4209,24.76953,21.61914-.15918-42.85839Zm24.94629-65.59131.16015,43.26368,30.09961-25.97608Z" fill="#ec8e56"/>
    <path d="M193.12109,182.28613a.24839.24839,0,0,1-.165-.0625l-.124-.10937-55.94141-9.27051a.25041.25041,0,0,1-.209-.24561l-.081-20.04443a.25171.25171,0,0,1,.081-.18506.25838.25838,0,0,1,.19043-.06494l56.19043,4.93408a.25.25,0,0,1,.22852.24805l.08007,24.54932a.25006.25006,0,0,1-.25.251Zm-55.94043-9.90088,55.68946,9.22852-.07813-23.89795-55.69043-4.89014Z" fill="#ec8e56"/>
    <rect x="164.7764" y="148.77505" width="0.49994" height="56.95576" transform="translate(-36.82137 311.08041) rotate(-80.59065)" fill="#ec8e56"/>
    <polygon points="137.076 172.802 136.787 172.394 162.033 154.573 162.322 154.981 137.076 172.802" fill="#ec8e56"/>
    <polygon points="162.087 176.975 136.678 152.733 137.023 152.372 162.433 176.614 162.087 176.975" fill="#ec8e56"/>
    <rect x="159.48263" y="166.89053" width="36.33551" height="0.50019" transform="translate(-61.64009 119.85727) rotate(-32.07653)" fill="#ec8e56"/>
    <polygon points="137.11 172.83 136.872 172.583 137.229 172.233 137.472 172.483 137.11 172.83" fill="#ec8e56"/>
    <path d="M192.95605,182.22363,162.42969,155.332l.08008,21.46143-.5.00195-.082-22.01758a.24984.24984,0,0,1,.415-.18847l30.94336,27.25927Z" fill="#ec8e56"/>
    <polygon points="236.379 189.516 236.229 93.919 252.088 112.505 252.088 171.959 236.379 189.516" fill="#ec8e56"/>
    <path d="M236.37891,190.5166a.99918.99918,0,0,1-1-.99853l-.15039-95.59766a.99993.99993,0,0,1,1.76074-.65039l15.85937,18.58643a.99992.99992,0,0,1,.23926.64892V171.9585a1.001,1.001,0,0,1-.25488.667l-15.709,17.5581A1.00006,1.00006,0,0,1,236.37891,190.5166Zm.85351-93.87988.14258,90.26709,13.71289-15.32715V112.874Z" fill="#ec8e56"/>
    <polygon points="193.406 59.692 193.406 182.139 214.474 172.012 214.474 80.029 193.406 59.692" fill="#ec8e56"/>
    <path d="M193.40625,183.13867a.99982.99982,0,0,1-1-1V59.69189a.99984.99984,0,0,1,1.69434-.71923L215.169,79.31006a.99825.99825,0,0,1,.30566.71924v91.98291a1.00117,1.00117,0,0,1-.56641.90136L193.83984,183.04A1.00433,1.00433,0,0,1,193.40625,183.13867Zm1-121.09179V180.54834l19.06836-9.165V80.4541Z" fill="#ec8e56"/>
    <rect x="136.66504" y="111.8667" width="2" height="28.70947" fill="#ab4004"/>
    <rect x="119.76465" y="134.93945" width="2" height="15.42041" fill="#ab4004"/>
    <rect x="138.5918" y="131.06543" width="2" height="13.24951" fill="#ffe8d8"/>
    <rect x="160.32324" y="125.86963" width="2" height="15.2207" fill="#ab4004"/>
    <polygon points="202.972 97.303 202.972 183.906 236.4 189.516 236.251 93.919 202.972 97.303" fill="#ffc292"/>
    <path d="M236.40039,190.5166a1.01034,1.01034,0,0,1-.166-.01367l-33.42774-5.61084a1.00017,1.00017,0,0,1-.834-.98633V97.30322a.99984.99984,0,0,1,.89843-.99463l33.27832-3.38427a.9703.9703,0,0,1,.77149.252.99828.99828,0,0,1,.33008.74121l.14941,95.59766a1.00042,1.00042,0,0,1-1,1.00146Zm-32.42773-7.457,31.42578,5.2749-.14551-93.30908-31.28027,3.18115Z" fill="#ec8e56"/>
    <path d="M236.32227,170.42676l-.01758-.001-33.3584-3.78613a.15473.15473,0,0,1-.13672-.15381l-.03516-69.16064a.15456.15456,0,0,1,.13868-.15381L236.18652,93.77a.16408.16408,0,0,1,.11914.03906.15491.15491,0,0,1,.05079.11475l.12011,76.34765a.15372.15372,0,0,1-.15429.15528Zm-33.20411-4.0791,33.04883,3.751-.11914-76.00342L203.083,97.46484Z" fill="#ec8e56"/>
    <rect x="219.44922" y="115.30175" width="0.30958" height="33.31594" transform="translate(86.43291 350.83125) rotate(-89.68342)" fill="#ec8e56"/>
    <polygon points="236.283 151.305 202.946 149.321 202.964 149.013 236.301 150.996 236.283 151.305" fill="#ec8e56"/>
    <polygon points="202.945 114.741 202.93 114.433 236.225 112.822 236.24 113.13 202.945 114.741" fill="#ec8e56"/>
    <rect x="198.52998" y="104.99347" width="24.62266" height="0.30847" transform="translate(-5.21854 199.10642) rotate(-50.00863)" fill="#ec8e56"/>
    <rect x="215.36162" y="159.55894" width="24.4789" height="0.30937" transform="translate(-46.68945 205.27019) rotate(-44.48844)" fill="#ec8e56"/>
    <path d="M203.0752,166.59326l-.22266-.21484,33.19434-34.32715-33.2295-34.61914.22266-.21387,33.333,34.72656a.15454.15454,0,0,1,0,.21436Z" fill="#ec8e56"/>
    <rect x="194.34681" y="112.74109" width="50.45481" height="0.30932" transform="translate(-10.14075 203.39061) rotate(-48.71197)" fill="#ec8e56"/>
    <polygon points="236.108 170.463 202.907 131.878 203.142 131.676 236.343 170.261 236.108 170.463" fill="#ec8e56"/>
    <rect x="219.45136" y="108.01934" width="0.30871" height="49.50771" transform="translate(-32.36417 181.42056) rotate(-42.08462)" fill="#ec8e56"/>
    <path d="M218.81836,168.43994a.157.157,0,0,1-.11914-.05566l-15.86328-19.02686a.15627.15627,0,0,1,.00488-.20361L218.627,131.98975l-.03613-36.28125a.15475.15475,0,0,1,.26367-.10987l17.48731,17.36768a.15552.15552,0,0,1,.00488.21435l-17.41016,18.92969.03614,36.17481a.15439.15439,0,0,1-.10157.1455A.16656.16656,0,0,1,218.81836,168.43994Zm-15.6582-19.17676,15.50293,18.59473-.03516-35.41162Zm15.74023-53.1831.03516,35.57373,17.082-18.57276Z" fill="#ec8e56"/>
    <path d="M236.375,189.667a.15327.15327,0,0,1-.11914-.05664l-.05957-.07129-33.22852-5.56787a.15424.15424,0,0,1-.1289-.15234L202.83008,166.48a.15517.15517,0,0,1,.17187-.15381l33.36133,3.78613a.15473.15473,0,0,1,.13672.15381l.0293,19.2461a.15427.15427,0,0,1-.1543.15478Zm-33.22754-5.979,33.07227,5.5415-.02832-18.82519-33.05274-3.751Z" fill="#ec8e56"/>
    <rect x="219.52964" y="169.69189" width="0.30889" height="33.84718" transform="translate(-0.66863 372.44097) rotate(-80.48822)" fill="#ec8e56"/>
    <rect x="199.81843" y="175.89487" width="22.19518" height="0.30937" transform="translate(-62.91918 198.25989) rotate(-44.48844)" fill="#ec8e56"/>
    <rect x="210.76674" y="163.71267" width="0.3093" height="25.53169" transform="translate(-64.00098 169.3939) rotate(-38.44316)" fill="#ec8e56"/>
    <polygon points="218.964 186.59 218.753 186.364 236.239 170.153 236.45 170.379 218.964 186.59" fill="#ec8e56"/>
    <rect x="202.99551" y="183.62446" width="0.30879" height="0.26035" transform="translate(-69.74202 159.97125) rotate(-37.14928)" fill="#ec8e56"/>
    <path d="M236.25586,189.61035l-.0957-.11621L218.99512,168.71l.01758,17.76709h-.3086l-.01855-18.19775a.15434.15434,0,0,1,.27343-.09864l17.53516,21.2334Z" fill="#ec8e56"/>
    <path d="M236.32227,170.42676l-.01758-.001-33.3584-3.78613a.15473.15473,0,0,1-.13672-.15381l-.03516-69.16064a.15456.15456,0,0,1,.13868-.15381L236.18652,93.77a.16408.16408,0,0,1,.11914.03906.15491.15491,0,0,1,.05079.11475l.12011,76.34765a.15372.15372,0,0,1-.15429.15528Zm-33.20411-4.0791,33.04883,3.751-.11914-76.00342L203.083,97.46484Z" fill="#ec8e56"/>
    <rect x="219.44922" y="115.30175" width="0.30958" height="33.31594" transform="translate(86.43291 350.83125) rotate(-89.68342)" fill="#ec8e56"/>
    <polygon points="236.283 151.305 202.946 149.321 202.964 149.013 236.301 150.996 236.283 151.305" fill="#ec8e56"/>
    <polygon points="202.945 114.741 202.93 114.433 236.225 112.822 236.24 113.13 202.945 114.741" fill="#ec8e56"/>
    <rect x="198.52998" y="104.99347" width="24.62266" height="0.30847" transform="translate(-5.21854 199.10642) rotate(-50.00863)" fill="#ec8e56"/>
    <rect x="215.36162" y="159.55894" width="24.4789" height="0.30937" transform="translate(-46.68945 205.27019) rotate(-44.48844)" fill="#ec8e56"/>
    <path d="M203.0752,166.59326l-.22266-.21484,33.19434-34.32715-33.2295-34.61914.22266-.21387,33.333,34.72656a.15454.15454,0,0,1,0,.21436Z" fill="#ec8e56"/>
    <rect x="194.34681" y="112.74109" width="50.45481" height="0.30932" transform="translate(-10.14075 203.39061) rotate(-48.71197)" fill="#ec8e56"/>
    <polygon points="236.108 170.463 202.907 131.878 203.142 131.676 236.343 170.261 236.108 170.463" fill="#ec8e56"/>
    <rect x="219.45136" y="108.01934" width="0.30871" height="49.50771" transform="translate(-32.36417 181.42056) rotate(-42.08462)" fill="#ec8e56"/>
    <path d="M218.81836,168.43994a.157.157,0,0,1-.11914-.05566l-15.86328-19.02686a.15627.15627,0,0,1,.00488-.20361L218.627,131.98975l-.03613-36.28125a.15475.15475,0,0,1,.26367-.10987l17.48731,17.36768a.15552.15552,0,0,1,.00488.21435l-17.41016,18.92969.03614,36.17481a.15439.15439,0,0,1-.10157.1455A.16656.16656,0,0,1,218.81836,168.43994Zm-15.6582-19.17676,15.50293,18.59473-.03516-35.41162Zm15.74023-53.1831.03516,35.57373,17.082-18.57276Z" fill="#ec8e56"/>
    <path d="M236.375,189.667a.15327.15327,0,0,1-.11914-.05664l-.05957-.07129-33.22852-5.56787a.15424.15424,0,0,1-.1289-.15234L202.83008,166.48a.15517.15517,0,0,1,.17187-.15381l33.36133,3.78613a.15473.15473,0,0,1,.13672.15381l.0293,19.2461a.15427.15427,0,0,1-.1543.15478Zm-33.22754-5.979,33.07227,5.5415-.02832-18.82519-33.05274-3.751Z" fill="#ec8e56"/>
    <rect x="219.52964" y="169.69189" width="0.30889" height="33.84718" transform="translate(-0.66863 372.44097) rotate(-80.48822)" fill="#ec8e56"/>
    <rect x="199.81843" y="175.89487" width="22.19518" height="0.30937" transform="translate(-62.91918 198.25989) rotate(-44.48844)" fill="#ec8e56"/>
    <rect x="210.76674" y="163.71267" width="0.3093" height="25.53169" transform="translate(-64.00098 169.3939) rotate(-38.44316)" fill="#ec8e56"/>
    <polygon points="218.964 186.59 218.753 186.364 236.239 170.153 236.45 170.379 218.964 186.59" fill="#ec8e56"/>
    <rect x="202.99551" y="183.62446" width="0.30879" height="0.26035" transform="translate(-69.74202 159.97125) rotate(-37.14928)" fill="#ec8e56"/>
    <path d="M236.25586,189.61035l-.0957-.11621L218.99512,168.71l.01758,17.76709h-.3086l-.01855-18.19775a.15434.15434,0,0,1,.27343-.09864l17.53516,21.2334Z" fill="#ec8e56"/>
    <polygon points="202.972 97.303 202.972 183.906 236.4 189.516 236.251 93.919 202.972 97.303" fill="#ffc292"/>
    <path d="M236.40039,190.5166a1.01034,1.01034,0,0,1-.166-.01367l-33.42774-5.61084a1.00017,1.00017,0,0,1-.834-.98633V97.30322a.99984.99984,0,0,1,.89843-.99463l33.27832-3.38427a.9703.9703,0,0,1,.77149.252.99828.99828,0,0,1,.33008.74121l.14941,95.59766a1.00042,1.00042,0,0,1-1,1.00146Zm-32.42773-7.457,31.42578,5.2749-.14551-93.30908-31.28027,3.18115Z" fill="#ec8e56"/>
    <path d="M236.32227,170.42676l-.01758-.001-33.3584-3.78613a.15473.15473,0,0,1-.13672-.15381l-.03516-69.16064a.15456.15456,0,0,1,.13868-.15381L236.18652,93.77a.16408.16408,0,0,1,.11914.03906.15491.15491,0,0,1,.05079.11475l.12011,76.34765a.15372.15372,0,0,1-.15429.15528Zm-33.20411-4.0791,33.04883,3.751-.11914-76.00342L203.083,97.46484Z" fill="#ec8e56"/>
    <rect x="219.44922" y="115.30175" width="0.30958" height="33.31594" transform="translate(86.43291 350.83125) rotate(-89.68342)" fill="#ec8e56"/>
    <polygon points="236.283 151.305 202.946 149.321 202.964 149.013 236.301 150.996 236.283 151.305" fill="#ec8e56"/>
    <polygon points="202.945 114.741 202.93 114.433 236.225 112.822 236.24 113.13 202.945 114.741" fill="#ec8e56"/>
    <rect x="198.52998" y="104.99347" width="24.62266" height="0.30847" transform="translate(-5.21854 199.10642) rotate(-50.00863)" fill="#ec8e56"/>
    <rect x="215.36162" y="159.55894" width="24.4789" height="0.30937" transform="translate(-46.68945 205.27019) rotate(-44.48844)" fill="#ec8e56"/>
    <path d="M203.0752,166.59326l-.22266-.21484,33.19434-34.32715-33.2295-34.61914.22266-.21387,33.333,34.72656a.15454.15454,0,0,1,0,.21436Z" fill="#ec8e56"/>
    <rect x="194.34681" y="112.74109" width="50.45481" height="0.30932" transform="translate(-10.14075 203.39061) rotate(-48.71197)" fill="#ec8e56"/>
    <polygon points="236.108 170.463 202.907 131.878 203.142 131.676 236.343 170.261 236.108 170.463" fill="#ec8e56"/>
    <rect x="219.45136" y="108.01934" width="0.30871" height="49.50771" transform="translate(-32.36417 181.42056) rotate(-42.08462)" fill="#ec8e56"/>
    <path d="M218.81836,168.43994a.157.157,0,0,1-.11914-.05566l-15.86328-19.02686a.15627.15627,0,0,1,.00488-.20361L218.627,131.98975l-.03613-36.28125a.15475.15475,0,0,1,.26367-.10987l17.48731,17.36768a.15552.15552,0,0,1,.00488.21435l-17.41016,18.92969.03614,36.17481a.15439.15439,0,0,1-.10157.1455A.16656.16656,0,0,1,218.81836,168.43994Zm-15.6582-19.17676,15.50293,18.59473-.03516-35.41162Zm15.74023-53.1831.03516,35.57373,17.082-18.57276Z" fill="#ec8e56"/>
    <path d="M236.375,189.667a.15327.15327,0,0,1-.11914-.05664l-.05957-.07129-33.22852-5.56787a.15424.15424,0,0,1-.1289-.15234L202.83008,166.48a.15517.15517,0,0,1,.17187-.15381l33.36133,3.78613a.15473.15473,0,0,1,.13672.15381l.0293,19.2461a.15427.15427,0,0,1-.1543.15478Zm-33.22754-5.979,33.07227,5.5415-.02832-18.82519-33.05274-3.751Z" fill="#ec8e56"/>
    <rect x="219.52964" y="169.69189" width="0.30889" height="33.84718" transform="translate(-0.66863 372.44097) rotate(-80.48822)" fill="#ec8e56"/>
    <rect x="199.81843" y="175.89487" width="22.19518" height="0.30937" transform="translate(-62.91918 198.25989) rotate(-44.48844)" fill="#ec8e56"/>
    <rect x="210.76674" y="163.71267" width="0.3093" height="25.53169" transform="translate(-64.00098 169.3939) rotate(-38.44316)" fill="#ec8e56"/>
    <polygon points="218.964 186.59 218.753 186.364 236.239 170.153 236.45 170.379 218.964 186.59" fill="#ec8e56"/>
    <rect x="202.99551" y="183.62446" width="0.30879" height="0.26035" transform="translate(-69.74202 159.97125) rotate(-37.14928)" fill="#ec8e56"/>
    <path d="M236.25586,189.61035l-.0957-.11621L218.99512,168.71l.01758,17.76709h-.3086l-.01855-18.19775a.15434.15434,0,0,1,.27343-.09864l17.53516,21.2334Z" fill="#ec8e56"/>
    <path d="M236.32227,170.42676l-.01758-.001-33.3584-3.78613a.15473.15473,0,0,1-.13672-.15381l-.03516-69.16064a.15456.15456,0,0,1,.13868-.15381L236.18652,93.77a.16408.16408,0,0,1,.11914.03906.15491.15491,0,0,1,.05079.11475l.12011,76.34765a.15372.15372,0,0,1-.15429.15528Zm-33.20411-4.0791,33.04883,3.751-.11914-76.00342L203.083,97.46484Z" fill="#ec8e56"/>
    <rect x="219.44922" y="115.30175" width="0.30958" height="33.31594" transform="translate(86.43291 350.83125) rotate(-89.68342)" fill="#ec8e56"/>
    <polygon points="236.283 151.305 202.946 149.321 202.964 149.013 236.301 150.996 236.283 151.305" fill="#ec8e56"/>
    <polygon points="202.945 114.741 202.93 114.433 236.225 112.822 236.24 113.13 202.945 114.741" fill="#ec8e56"/>
    <rect x="198.52998" y="104.99347" width="24.62266" height="0.30847" transform="translate(-5.21854 199.10642) rotate(-50.00863)" fill="#ec8e56"/>
    <rect x="215.36162" y="159.55894" width="24.4789" height="0.30937" transform="translate(-46.68945 205.27019) rotate(-44.48844)" fill="#ec8e56"/>
    <path d="M203.0752,166.59326l-.22266-.21484,33.19434-34.32715-33.2295-34.61914.22266-.21387,33.333,34.72656a.15454.15454,0,0,1,0,.21436Z" fill="#ec8e56"/>
    <rect x="194.34681" y="112.74109" width="50.45481" height="0.30932" transform="translate(-10.14075 203.39061) rotate(-48.71197)" fill="#ec8e56"/>
    <polygon points="236.108 170.463 202.907 131.878 203.142 131.676 236.343 170.261 236.108 170.463" fill="#ec8e56"/>
    <rect x="219.45136" y="108.01934" width="0.30871" height="49.50771" transform="translate(-32.36417 181.42056) rotate(-42.08462)" fill="#ec8e56"/>
    <path d="M218.81836,168.43994a.157.157,0,0,1-.11914-.05566l-15.86328-19.02686a.15627.15627,0,0,1,.00488-.20361L218.627,131.98975l-.03613-36.28125a.15475.15475,0,0,1,.26367-.10987l17.48731,17.36768a.15552.15552,0,0,1,.00488.21435l-17.41016,18.92969.03614,36.17481a.15439.15439,0,0,1-.10157.1455A.16656.16656,0,0,1,218.81836,168.43994Zm-15.6582-19.17676,15.50293,18.59473-.03516-35.41162Zm15.74023-53.1831.03516,35.57373,17.082-18.57276Z" fill="#ec8e56"/>
    <path d="M236.375,189.667a.15327.15327,0,0,1-.11914-.05664l-.05957-.07129-33.22852-5.56787a.15424.15424,0,0,1-.1289-.15234L202.83008,166.48a.15517.15517,0,0,1,.17187-.15381l33.36133,3.78613a.15473.15473,0,0,1,.13672.15381l.0293,19.2461a.15427.15427,0,0,1-.1543.15478Zm-33.22754-5.979,33.07227,5.5415-.02832-18.82519-33.05274-3.751Z" fill="#ec8e56"/>
    <rect x="219.52964" y="169.69189" width="0.30889" height="33.84718" transform="translate(-0.66863 372.44097) rotate(-80.48822)" fill="#ec8e56"/>
    <rect x="199.81843" y="175.89487" width="22.19518" height="0.30937" transform="translate(-62.91918 198.25989) rotate(-44.48844)" fill="#ec8e56"/>
    <rect x="210.76674" y="163.71267" width="0.3093" height="25.53169" transform="translate(-64.00098 169.3939) rotate(-38.44316)" fill="#ec8e56"/>
    <polygon points="218.964 186.59 218.753 186.364 236.239 170.153 236.45 170.379 218.964 186.59" fill="#ec8e56"/>
    <rect x="202.99551" y="183.62446" width="0.30879" height="0.26035" transform="translate(-69.74202 159.97125) rotate(-37.14928)" fill="#ec8e56"/>
    <path d="M236.25586,189.61035l-.0957-.11621L218.99512,168.71l.01758,17.76709h-.3086l-.01855-18.19775a.15434.15434,0,0,1,.27343-.09864l17.53516,21.2334Z" fill="#ec8e56"/>
    <path d="M249.90747,62.76059c-6.93642.70846-10.823,1.35262-13.15268,3.42527-2.5302,2.25108-3.2238,6.18718-3.99332,13.72079-1.47778-14.47007-2.676-15.66816-17.146-17.14606,14.47-1.47788,15.66821-2.676,17.146-17.146C234.2395,60.08463,235.4375,61.28271,249.90747,62.76059Z" fill="#ab4004"/>
    <path d="M236.11523,93.32635C217.49634,95.228,215.95459,96.76956,214.053,115.3884c-1.90161-18.61884-3.44312-20.16043-22.062-22.062,18.61889-1.90164,20.1604-3.4432,22.062-22.06207.91867,8.99479,1.75335,14.004,4.47006,16.99359C221.4298,91.45665,226.49114,92.3434,236.11523,93.32635Z" fill="#fff"/>
    <path d="M86.81483,127.39341c12.18879,5.18859,36.38828,17.94458,53.83951,42.8977,1.98421,2.83718-.08049,6.78655-2.89775,5.54268-14.01183-6.18646-37.61369-16.49217-61.10993-29.45047-3.32644-1.83455-7.97335-8.07176-6.34643-11.82351C73.3532,127.51955,80.28629,124.6143,86.81483,127.39341Z" fill="#ab4004"/>
    <path d="M137.35256,176.74878l-1.72461-.76172c-13.78906-6.0835-36.86817-16.26612-59.46485-28.728-3.53125-1.94824-8.7041-8.66064-6.78027-13.09717,3.24024-7.47168,10.73535-10.70654,17.82324-7.68847h0c12.77539,5.438,36.81446,18.28808,54.26758,43.24462a5.10084,5.10084,0,0,1-.06348,6.06934,3.33986,3.33986,0,0,1-2.60253,1.2793A3.60512,3.60512,0,0,1,137.35256,176.74878Zm-66.13574-41.791c-1.31446,3.03271,2.72949,8.79395,5.91308,10.55029,22.51758,12.41846,45.5459,22.57862,59.30567,28.64942l1.72558.76172a1.34266,1.34266,0,0,0,1.7041-.40186,3.11533,3.11533,0,0,0-.03027-3.65283c-17.16895-24.54981-40.834-37.19727-53.41211-42.55127a11.7894,11.7894,0,0,0-4.625-.97852C77.34865,127.33471,73.32814,130.09155,71.21682,134.95776Z" fill="#ab4004"/>
    <path d="M62.26084,232.38791c27.064-7.02009,44.62588-51.01239,43.25747-78.3597a44.25278,44.25278,0,0,0-5.74617-20.07237c-2.89966-5.33109-5.66067-6.84976-5.66067-6.84976-.46751-.03-1.08174-.1091-1.81839-.23447-5.52108-.94137-18.09469-4.56924-27.51468-10.15315q-.67308-.39831-1.32484-.81158a48.52589,48.52589,0,0,0-13.41618.99736c-14.18953,3.138-25.97033,13.05157-29.593,30.30282C12.95669,182.8629,33.23425,239.91689,62.26084,232.38791Z" fill="#ec8e56"/>
    <path d="M19.17269,152.71928c-1.01442,11.75016,2.9055,21.51561,8.69256,21.77965,5.71614.2608,11.08247-8.8695,12.0468-20.36238.96176-11.46225-2.80371-21.14539-8.47034-21.66119C25.70511,131.95319,20.18434,141.00114,19.17269,152.71928Z" fill="#ab4004"/>
    <path d="M36.06978,126.14827a23.434,23.434,0,0,1,24.982-.7575L81.10606,137.199c6.314,3.71773,11.238,15.38529,10.72682,22.69462-1.56,22.30753-20.73933,62.14647-46.519,50.57981-26.45464-11.86953-22.65419-50.79862-19.17568-69.26051a23.3941,23.3941,0,0,1,9.93151-15.06458Z" fill="#ffe8d8"/>
    <path d="M70.16268,139.73814c20.12979,6.22336,32.52148,2.54436,29.82305-4.80658a4.38255,4.38255,0,0,1-.21359-.97572c-2.89966-5.33109-5.66067-6.84976-5.66067-6.84976-.46751-.03-1.08174-.1091-1.81839-.23447-5.52108-.94137-18.09469-4.56924-27.51468-10.15315q-.67308-.39831-1.32484-.81158a48.52589,48.52589,0,0,0-13.41618.99736c-.66628.39582-1.24428.73645-1.71538.99113C40.2151,122.27762,48.82523,133.14034,70.16268,139.73814Z" fill="#ec8e56"/>
    <path d="M72.19125,131.06948c13.33719,4.8851,22.12493,3.84747,20.65468-.37174a1.97827,1.97827,0,0,1-.09422-.54818,10.79552,10.79552,0,0,0-3.54436-4.14569c-.32142-.05-.74123-.13732-1.24262-.25845A75.85524,75.85524,0,0,1,69.84256,118.372q-.428-.25755-.84041-.5214a40.02111,40.02111,0,0,0-8.93729-.35279c-.459.166-.85674.30846-1.17949.41235C53.35863,119.689,58.3907,126.01405,72.19125,131.06948Z" fill="#ab4004"/>
    <path d="M61.437,123.03373c-2.89258.301-5.78149.63831-8.66162,1.05051-2.87269.442-5.8552.72378-8.37448,2.307C19.24638,141.031,23.52928,183.43808,32.39969,206.84367c3.71951,9.34821,10.89779,24.09157,21.57942,25.9203-10.731-2.64582-17.23945-16.67956-20.88893-26.18083-8.7676-23.22924-13.46167-65.22641,11.41864-79.999,2.47831-1.58723,5.43986-1.89055,8.28834-2.35385,2.79269-.51581,6.06917-.68079,8.63987-1.19655Z" fill="#c0512c"/>
    <path d="M39.84963,226.31225c-16.43653-15.68506-25.96192-52.74609-20.38379-79.31054,3.40918-16.23536,14.47363-27.56153,30.35547-31.07422a49.5,49.5,0,0,1,13.69238-1.01856,1.00425,1.00425,0,0,1,.47461.15283c.4248.26954.86035.53565,1.2998.79639A92.48687,92.48687,0,0,0,92.46,125.886c.7041.11914,1.28125.19434,1.71582.22217a1.00705,1.00705,0,0,1,.418.12207c.123.06738,3.05176,1.72315,6.05762,7.24756a45.193,45.193,0,0,1,5.86621,20.50049c.70117,14.02588-3.54,32.14941-11.07032,47.29785-8.66113,17.4248-20.35839,28.81738-32.93554,32.07959a21.42909,21.42909,0,0,1-5.39453.70019C51.10256,234.0559,45.21682,231.43383,39.84963,226.31225Zm64.66992-72.23437a43.306,43.306,0,0,0-5.625-19.644c-2.30664-4.23925-4.5127-5.94238-5.1084-6.35009-.46-.041-1.0166-.1167-1.66113-.22608a94.8168,94.8168,0,0,1-27.85645-10.27881q-.57129-.33911-1.13086-.68847a47.2956,47.2956,0,0,0-12.88476.99023c-15.08106,3.335-25.58887,14.09912-28.83008,29.53223-5.456,25.98388,3.7998,62.17676,19.80762,77.45263,6.53125,6.23243,13.52441,8.436,20.77929,6.55469C88.56935,224.531,105.83889,180.44018,104.51955,154.07788Z" fill="#ab4004"/>
    <path d="M105.17263,150.19889c-2.34044,15.04365-32.60882,8.63729-42.575,5.42342A75.57123,75.57123,0,0,1,41.27321,145.482c-5.76635-4.202-13.78464-11.73526-9.24286-19.3611-4.75526,7.61511,3.24788,15.38374,9.04794,19.63048a75.8755,75.8755,0,0,0,21.371,10.34722c10.08063,3.16283,40.60418,9.43594,42.72339-5.89969Z" fill="#ab4004"/>
    <path d="M105.17263,149.83953c-2.34775,15.55812-34.62209,8.4152-44.7457,4.89585a82.75118,82.75118,0,0,1-15.11319-6.7629,76.76,76.76,0,0,0,15.05981,6.92025c10.06954,3.65162,42.63005,10.703,44.79908-5.0532Z" fill="#fff"/>
    <path d="M74.34811,160.93159a.57121.57121,0,0,1,0-1.14174.57121.57121,0,0,1,0,1.14174Z" fill="#c0512c"/>
    <path d="M60.05676,157.75573a.57121.57121,0,0,1,0-1.14173.57121.57121,0,0,1,0,1.14173Z" fill="#c0512c"/>
    <path d="M61.14846,153.9844a.57121.57121,0,0,1,0-1.14173.57121.57121,0,0,1,0,1.14173Z" fill="#c0512c"/>
    <path d="M74.84434,157.35875a.57121.57121,0,0,1,0-1.14174.57121.57121,0,0,1,0,1.14174Z" fill="#c0512c"/>
    <path d="M47.55183,148.32741a.57121.57121,0,0,1,0-1.14173.57121.57121,0,0,1,0,1.14173Z" fill="#c0512c"/>
    <path d="M45.46768,151.10628a.57121.57121,0,0,1,0-1.14173.57121.57121,0,0,1,0,1.14173Z" fill="#c0512c"/>
    <path d="M37.79645,141.41815a.57121.57121,0,0,1,0-1.14174.57121.57121,0,0,1,0,1.14174Z" fill="#c0512c"/>
    <path d="M39.28883,132.44345a.57121.57121,0,0,1,0-1.14173.57121.57121,0,0,1,0,1.14173Z" fill="#c0512c"/>
    <path d="M37.72528,130.32806a.57121.57121,0,0,1,0-1.14174.57121.57121,0,0,1,0,1.14174Z" fill="#c0512c"/>
    <path d="M33.46286,140.31868a.57121.57121,0,0,1,0-1.14174.57121.57121,0,0,1,0,1.14174Z" fill="#c0512c"/>
    <path d="M59.95564,117.49032q.69657.44093,1.4189.86919c10.08873,5.98032,23.555,9.86574,29.468,10.87394.78895.13427,1.44678.219,1.94749.25112,0,0,17.16214,3.8831,14.688-24.97766-2.48941-29.03972-25.76914-32.29615-25.76914-32.29615C61.40761,70.60938,49.81474,88.27513,49.28114,103.42,49.09326,108.70624,53.67381,113.50522,59.95564,117.49032Z" fill="#ec8e56"/>
    <ellipse cx="75.40707" cy="96.72319" rx="20.32589" ry="24.42396" transform="matrix(0.43319, -0.9013, 0.9013, 0.43319, -44.43546, 122.78789)" fill="#ffe8d8"/>
    <path d="M90.16343,114.99935c6.55,1.28,13.64,1.61024,17.56-5.70977-.03-.94-.1-3.80024-.19-4.84028a43.33938,43.33938,0,0,0-2.03-10.18s-.22,5.6-5.73,5.52c-.21,0-.43-.01-.65-.03a17.3318,17.3318,0,0,1-1.7,7.54A17.71736,17.71736,0,0,1,90.16343,114.99935Z" fill="#ab4004"/>
    <path d="M84.74344,113.27932a24.82024,24.82024,0,0,0,5.42,1.72,17.71736,17.71736,0,0,0,7.26-7.7,17.3318,17.3318,0,0,0,1.7-7.54c-6.9-.50995-14.73-7.21-19.18-3.88995C75.30344,99.33932,76.15342,109.4493,84.74344,113.27932Z" fill="#fb8948"/>
    <path d="M90.06935,115.49047l.1875-.98242a24.189,24.189,0,0,1-5.30957-1.68506,11.88017,11.88017,0,0,1-7.22949-9.457c-.331-2.96435.63574-5.68359,2.52539-7.09619,2.42969-1.81494,6.19922-.26074,10.19141,1.38623,2.84961,1.1753,5.7959,2.39112,8.65137,2.602l.07421-.99707c-2.69628-.1997-5.56738-1.38379-8.34472-2.52929-4.25977-1.75733-8.28223-3.417-11.1709-1.26319-2.17285,1.62451-3.291,4.69336-2.9209,8.00879a12.87161,12.87161,0,0,0,7.81543,10.25879A25.20564,25.20564,0,0,0,90.06935,115.49047Z" fill="#fff"/>
    <path d="M92.64357,130.54809c-.52832-.03808-1.19433-.125-1.98047-.25879-6.11328-1.04248-19.61914-4.95263-29.833-11.00781q-.73682-.43579-1.44727-.88623v-.00049c-7.59668-4.81885-11.35547-9.87012-11.17187-15.01221A36.19122,36.19122,0,0,1,59.7217,78.39184a28.96863,28.96863,0,0,1,22.13574-7.2417c.24121.03369,24.1543,3.71631,26.6875,33.26563.97559,11.37646-.91992,19.228-5.63379,23.33642a12.27183,12.27183,0,0,1-8.14258,2.98145A11.324,11.324,0,0,1,92.64357,130.54809ZM61.14846,79.99047a33.977,33.977,0,0,0-10.79688,23.46778c-.19238,5.3916,5.42871,10.11474,10.17774,13.12744q.6826.43213,1.3916.85254c9.96679,5.9082,23.13965,9.72314,29.10156,10.73974.75195.12793,1.36914.208,1.83594.2378l.165.02344a10.31631,10.31631,0,0,0,8.50488-2.32325c4.09277-3.59082,5.78125-11.03174,4.88183-21.51757C104.02736,76.79419,82.4756,73.4021,81.625,73.27856q-1.22754-.09741-2.43067-.09668A26.587,26.587,0,0,0,61.14846,79.99047Z" fill="#ab4004"/>
    <path d="M94.65139,129.31469a11.40077,11.40077,0,0,0,8.30468-3.07373c4.17774-4.08447,5.55078-12.0708,4.0791-23.73681-1.52636-12.10987-10.81933-26.68506-23.17089-29.11621-11.80762-2.32178-18.97364,2.86816-24.43164,8.25195l.70312.71191c5.27051-5.20019,12.18848-10.21826,23.53516-7.98242C95.585,76.71411,104.55959,90.864,106.043,102.62915c1.41015,11.17968.10058,19.09716-3.78614,22.89648-2.42871,2.374-5.93261,3.23731-10.41015,2.56885l-.14844.98926A20.06168,20.06168,0,0,0,94.65139,129.31469Z" fill="#ffe8d8"/>
    <polygon points="185.48 191.44 181.29 231.13 176.85 232.9 148.24 244.3 147.48 244.6 127.33 237.54 118.55 234.46 117.99 200.29 150.16 207.64 185.48 191.44" fill="#ffe8d8"/>
    <path d="M136.26074,243.20752l-3.98437-.36133c1.11425-12.29785-1.123-50.0415-1.14551-50.42139l3.99219-.23925C135.2168,193.74854,137.40137,230.61084,136.26074,243.20752Z" fill="#ff9e01"/>
    <path d="M142.68652,236.37061l-3.99023-.27051c.43457-6.41553,0-44.3042-.00488-44.686l4-.04687C142.71,192.93359,143.13281,229.79785,142.68652,236.37061Z" fill="#ff9e01"/>
    <path d="M147.20605,233.60156c-5.68164-12.14258-2.249-41.95556-2.10058-43.21875l3.97265.46826c-.03515.29834-3.45019,29.94092,1.751,41.05518Z" fill="#ff9e01"/>
    <path d="M150.6377,226.11816c-1.49708-6.01757-.209-33.18457-.05762-36.26269l3.99609.19726c-.40527,8.2002-1.20312,30.4917-.05762,35.09961Z" fill="#ff9e01"/>
    <rect x="155.33301" y="189.37939" width="4" height="33.30273" fill="#ff9e01"/>
    <path d="M161.9248,221.90088c-3.3457-5.14942-2.61035-28.47852-2.42871-33.103l3.9961.15674c-.42969,10.97266-.15918,27.772,1.78613,30.7666Z" fill="#ff9e01"/>
    <path d="M165.165,217.81755c1.59674-2.98938,0-29.385,0-29.385" fill="#ffe8d8"/>
    <path d="M169.499,220.84131c-5.38086-9.39649-3.1582-32.04541-3.06152-33.00488l3.98047.40332c-.02246.22216-2.19336,22.32763,2.55176,30.61425Z" fill="#ff9e01"/>
    <path d="M176.8501,232.9,148.24,244.3l-.76.3-20.1499-7.06,17.85986-11.42a10.89691,10.89691,0,0,1,2.68994-1.24,10.11224,10.11224,0,0,1,6.18018.12Z" fill="#ec8e56"/>
    <path d="M195.06006,174.37v9.83a4.47106,4.47106,0,0,1-2.24,3.92l-17.69019,9.71-16.69995,9.16A22.24787,22.24787,0,0,1,141.24,208.82L98.79,195.92a4.4874,4.4874,0,0,1-3.14014-4.33V179.03l54.51,8.86,9.16016-2.76Z" fill="#ab4004"/>
    <path d="M26.42847,250.07638c-3.7615,4.5615.27023,10.46322,11.34426,13.55709,14.47926,4.04524,33.4237,1.63174,37.38731-6.05379,3.64821-7.07395-8.65778-13.26489-23.24108-14.09453C40.42936,242.83151,29.99871,245.74682,26.42847,250.07638Z" fill="#ffe7d3"/>
    <path d="M43.2373,256.22949a2.63047,2.63047,0,0,1-2.627-2.62793V248.874a.5.5,0,0,1,1,0v4.72754a1.62744,1.62744,0,1,0,3.25488,0V238.481a.5.5,0,1,1,1,0v15.1206A2.63068,2.63068,0,0,1,43.2373,256.22949Z" fill="#ab4004"/>
    <path d="M57.626,256.22949a2.63068,2.63068,0,0,1-2.62793-2.62793V238.481a.5.5,0,0,1,1,0v15.1206a1.62793,1.62793,0,0,0,3.25586,0V248.874a.5.5,0,0,1,1,0v4.72754A2.63068,2.63068,0,0,1,57.626,256.22949Z" fill="#ab4004"/>
    <path d="M50.3623,246.39941a.49972.49972,0,0,1-.5-.5v-7.28857a.5.5,0,0,1,1,0v7.28857A.49971.49971,0,0,1,50.3623,246.39941Z" fill="#ab4004"/>
    <polygon points="148.02 285.46 148.02 285.42 150.02 285.42 148.02 285.46" fill="#ab4004"/>
    <rect x="164.9198" y="179.86558" width="29.51587" height="1.99931" transform="translate(-52.35047 75.22797) rotate(-20.71)" fill="#ec8e56"/>
    <rect x="119.76465" y="148.14941" width="2" height="15.49951" fill="#ff9e01"/>
    <path d="M127.33008,237.54,98.73,255.81a12.80638,12.80638,0,0,1-1.37012-6.07L98.45,195.82l19.45,4.45.09009.02.56006,34.17Z" fill="#c06f39"/>
    <path d="M176.28,195.46l-1.15015,2.37-16.69995,9.16A22.24787,22.24787,0,0,1,141.24,208.82L98.79,195.92a4.4874,4.4874,0,0,1-3.14014-4.33V179.03l54.51,8.86,9.16016-2.76,8.58984.85Z" fill="#ffe8d8"/>
    <path d="M147.666,210.77783a23.11989,23.11989,0,0,1-6.71582-1.001L98.499,196.877a5.52027,5.52027,0,0,1-3.84863-5.28711V177.854l55.44238,9.01221,45.96778-13.84131v11.1753a5.45425,5.45425,0,0,1-2.75489,4.79394l-34.3955,18.87305A23.37434,23.37434,0,0,1,147.666,210.77783ZM96.65039,180.20557v11.38427a3.50715,3.50715,0,0,0,2.42773,3.37256l42.45313,12.90039a21.166,21.166,0,0,0,16.418-1.75l34.38965-18.86914a3.45308,3.45308,0,0,0,1.72168-3.04345v-8.48487l-43.833,13.19873Z" fill="#ab4004"/>
    <path d="M168.47,186.18l-6.27,2.37c-4.13989,1.56-10.25,2.42-15.94995,2.42a40.79842,40.79842,0,0,1-8.8501-.86L97.76,180.95c-.75-.17-2.97-.68-3.09009-2.2l1.04.1,3.24.32,38.90015,8.99c6.52,1.51,17.56982.82,23.63989-1.48l2.8-1.06,2.23.22,1.38989.14Z" fill="#ffe8d8"/>
    <path d="M189.41992,172.13,156.24,167.56a53.55222,53.55222,0,0,0-14.78.43l-38.48,7.5c-5.04.98-7.78,2.3-7.27,3.36.2.43.93994.82,2.28,1.13l39.63013,9.16c6.77978,1.56,18.02.82,24.23-1.53l4.66992-1.77,26.96-10.2C196.73,174.41,194.75,172.86,189.41992,172.13ZM161.49,186.68c-6.07007,2.3-17.11987,2.99-23.63989,1.48L98.95,179.17,164.29,185.62Z" fill="#ab4004"/>
    <path d="M196.05005,174.18c-.06006-.54-.25-2.18-6.49-3.04l-33.18018-4.57a54.32665,54.32665,0,0,0-15.10986.44l-38.48,7.5c-8.1001,1.58-8.13013,3.44-8.14014,4.06a.55316.55316,0,0,0,.02.18c.12012,1.52,2.34009,2.03,3.09009,2.2l39.63989,9.16a40.79842,40.79842,0,0,0,8.8501.86c5.7,0,11.81006-.86,15.95-2.42l6.27-2.37,25.36011-9.6C195.41992,175.98,196.15991,175.17,196.05005,174.18ZM137.8501,188.16,98.95,179.17l-.74-.17a5.77053,5.77053,0,0,1-1.38989-.46c.55981-.44,2.3-1.27,6.34985-2.06l38.48-7.5a51.92436,51.92436,0,0,1,14.4502-.43L189.29,173.12a12.60438,12.60438,0,0,1,4.58984,1.23,4.41784,4.41784,0,0,1-.75.36L164.29,185.62l-2.8,1.06C155.41992,188.98,144.37012,189.67,137.8501,188.16Z" fill="#ab4004"/>
    <path d="M164.29,185.62l-2.8,1.06c-6.07007,2.3-17.11987,2.99-23.63989,1.48L98.95,179.17Z" fill="#ffe8d8"/>
    <polygon points="134.129 181.704 134.129 157.405 165.661 155.197 165.661 172.647 134.129 181.704" fill="#ff9e01"/>
    <path d="M134.12891,182.70361a1,1,0,0,1-1-1V157.40527a.99976.99976,0,0,1,.92968-.99756l31.53223-2.20849a1.015,1.015,0,0,1,.75195.26611.9991.9991,0,0,1,.31836.73145v17.4497a.99946.99946,0,0,1-.72363.96094l-31.53223,9.05713A.98914.98914,0,0,1,134.12891,182.70361Zm1-24.36572V180.376l29.53222-8.48291V156.269Z" fill="#ab4004"/>
    <rect x="148.01758" y="150.35986" width="2" height="13.24951" fill="#ffe8d8"/>
    <path d="M192.82007,238.44a13.12094,13.12094,0,0,1-2.58008,4.7L158.26,280.3a14.81841,14.81841,0,0,1-9.24,5.12l-.78-41.12,28.61011-11.4Z" fill="#c06f39"/>
    <path d="M149.02,285.42a13.33719,13.33719,0,0,1-8.81006-1.86l-37.12988-22.99a11.93559,11.93559,0,0,1-4.3501-4.76l28.6001-18.27L147.48,244.6l.76-.3Z" fill="#c06f39"/>
    <path d="M193.41,188.93269v45.61a13.44916,13.44916,0,0,1-.59,3.9l-15.97-5.54,4.44-1.77,3.98-37.73Z" fill="#c06f39"/>
    <path d="M147.15332,286.10791a14.19011,14.19011,0,0,1-7.499-2.13184l-37.13184-22.99072a12.95583,12.95583,0,0,1-4.71387-5.15576,13.86958,13.86958,0,0,1-1.47949-6.543L97.419,195.36523l2,.04L98.3291,249.3252a11.85248,11.85248,0,0,0,1.26074,5.59472,10.96143,10.96143,0,0,0,3.98438,4.36426l37.13086,22.99072a12.2863,12.2863,0,0,0,8.15234,1.71924,13.8298,13.8298,0,0,0,8.61328-4.78076l31.98047-37.16065a12.20226,12.20226,0,0,0,2.38184-4.34179,12.38319,12.38319,0,0,0,.5459-3.606V187.36523h2V234.105a14.41643,14.41643,0,0,1-.63282,4.19141,14.03707,14.03707,0,0,1-2.77929,5.061l-31.9795,37.16016a15.82693,15.82693,0,0,1-9.86523,5.459A14.99764,14.99764,0,0,1,147.15332,286.10791Z" fill="#ab4004"/>
    <path d="M142.96,281.88477a3.84787,3.84787,0,0,1-2.083-.61231l-39.4834-25.35205,1.08008-1.68262,39.4834,25.352a1.85633,1.85633,0,0,0,2.85938-1.59375l-1.09278-64.85888,2-.03418,1.09278,64.85937a3.85871,3.85871,0,0,1-3.85645,3.92237Z" fill="#ffe8d8"/>
    <path d="M99.26855,256.65283l-1.07617-1.68554,46.459-29.68995a11.91058,11.91058,0,0,1,2.93945-1.355,11.08875,11.08875,0,0,1,6.7959.13233l38.76074,13.44043-.6543,1.88965-38.75976-13.44a9.08352,9.08352,0,0,0-5.57031-.106,9.87734,9.87734,0,0,0-2.4375,1.12549Z" fill="#ab4004"/>
    <rect x="147.28937" y="209.76351" width="2.00035" height="75.22835" transform="translate(-4.57614 2.80134) rotate(-1.0659)" fill="#ab4004"/>
    <polygon points="114.228 183.257 88.408 178.133 86.304 169.527 61.562 165.361 62.989 220.091 114.228 237.611 114.228 183.257" fill="#ff9e01"/>
    <path d="M114.22852,238.61133a.99759.99759,0,0,1-.32325-.05371L62.666,221.0376a1.00206,1.00206,0,0,1-.67676-.92041L60.5625,165.38672a1.00142,1.00142,0,0,1,1.166-1.01221L86.46973,168.541a1.00091,1.00091,0,0,1,.80566.749l1.95313,7.98633,25.19433,4.99951a.99981.99981,0,0,1,.80567.981v54.35449a.99938.99938,0,0,1-1,1ZM63.9707,219.37012l49.25782,16.84228V184.07812l-25.01465-4.96386a1.00082,1.00082,0,0,1-.77735-.74365l-1.94824-7.96631-22.89453-3.85547Z" fill="#ab4004"/>
    <path d="M81.72964,204.31312c4.58694-3.156-17.55112,15.03172-17.55112,15.03172l-.53731-21.06953S77.98222,206.89153,81.72964,204.31312Z" fill="#ab4004"/>
    <path d="M113.46582,234.69336h-2V185.6543l-25.00488-5.09668a1.001,1.001,0,0,1-.77149-.74219L83.8125,172.144l-20.89258-3.03466.28711-1.9795,21.56055,3.13184a1.0021,1.0021,0,0,1,.82812.75195l1.88575,7.71045,25.18457,5.1333a1.001,1.001,0,0,1,.7998.98Z" fill="#ffe8d8"/>
    <path d="M20.30887,156.47273c8.03743,11.72634,26.57738,34.4884,56.5225,47.57035,3.40476,1.48742,7.12316-1.52034,5.21851-4.22127-9.47295-13.43328-25.30852-36.08493-43.91255-58.0643-2.63384-3.11169-8.6-6.493-13.78217-4.17595C16.83724,140.94293,16.00387,150.19189,20.30887,156.47273Z" fill="#ffe8d8"/>
    <path d="M76.82866,204.04429c-29.93995-13.07995-48.48-35.84985-56.52-47.56994-4.29993-6.27991-3.47-15.52991,4.05-18.89,5.17993-2.31994,11.14,1.06006,13.78,4.17005q.915,1.08,1.83008,2.16c-2.6101-1.58008-6.03-2.5-9.13012-1.11011-6.67994,2.99-7.41993,11.20008-3.59,16.77,7.13,10.42005,23.59,30.63,50.18,42.24a3.76687,3.76687,0,0,0,4.89991-1.5C83.50871,202.87437,80.02873,205.44444,76.82866,204.04429Z" fill="#ec8e56"/>
    <rect x="48.77484" y="156.21936" width="0.25016" height="15.82446" transform="translate(-121.34475 182.76312) rotate(-79.65514)" fill="#ab4004"/>
    <polygon points="38.241 177.864 38.489 177.828 36.809 166.428 36.561 166.465 38.241 177.864" fill="#ab4004"/>
    <path d="M31.96974,161.89624a4.66993,4.66993,0,0,1,9.33985,0,5.56292,5.56292,0,0,1-.07129.84228,4.669,4.669,0,0,1-4.55371,3.833h-.04A4.68,4.68,0,0,1,31.96974,161.89624Zm.25,0a4.43043,4.43043,0,0,0,4.42481,4.42529h.03906a4.41664,4.41664,0,0,0,4.30762-3.62354,5.24588,5.24588,0,0,0,.06836-.80175,4.41993,4.41993,0,0,0-8.83985,0Z" fill="#ab4004"/>
    <polygon points="79.318 203.346 79.475 203.152 68.919 194.648 48.765 186.535 48.671 186.766 68.809 194.873 79.318 203.346" fill="#ab4004"/>
    <path d="M76.43068,204.95971C46.501,191.88452,27.90529,169.323,19.48342,157.03833h0a15.29052,15.29052,0,0,1-2.26856-12.60987,11.92694,11.92694,0,0,1,6.73242-7.75976c5.91114-2.645,12.31055,1.3208,14.95411,4.44287,17.89843,21.147,33.49609,43.2793,42.8164,56.50342l1.14942,1.63086a3.508,3.508,0,0,1-.15039,4.3833,5.25567,5.25567,0,0,1-4.02247,1.81054A5.636,5.636,0,0,1,76.43068,204.95971Zm-51.667-66.46484a9.83347,9.83347,0,0,0-5.624,6.47607,13.26658,13.26658,0,0,0,1.99414,10.93653c8.2998,12.1084,26.625,34.34375,56.09765,47.21924A3.415,3.415,0,0,0,81.167,202.365a1.50663,1.50663,0,0,0,.06543-1.9668L80.083,198.76733c-9.30079-13.19727-24.86719-35.28467-42.709-56.36377a13.33323,13.33323,0,0,0-9.34765-4.58691A7.9269,7.9269,0,0,0,24.76369,138.49487Z" fill="#ab4004"/>
  </g>
</svg>
