<?xml version="1.0"?>
<svg xmlns="http://www.w3.org/2000/svg" viewBox="0 0 300 300">
  <g id="Layer_4" data-name="Layer 4">
    <polygon points="106.752 83.841 106.752 141.075 83.047 144.301 83.047 80.26 97.086 82.379 106.752 83.841" fill="#ec8e56"/>
    <path d="M83.04688,144.73877a.43689.43689,0,0,1-.4375-.4375v-64.041a.437.437,0,0,1,.15234-.33154.44345.44345,0,0,1,.35058-.10107l23.70508,3.58056a.4379.4379,0,0,1,.37207.43262V141.0752a.43824.43824,0,0,1-.3789.43359l-23.70508,3.22607A.47255.47255,0,0,1,83.04688,144.73877Zm.4375-63.97022v63.03174l22.83007-3.10693V84.2168Z" fill="#ec8e56"/>
    <rect x="45.90226" y="48.33445" width="208.19548" height="203.3311" rx="55.23808" fill="#ffe7d3"/>
    <rect x="67.8349" y="106.80487" width="0.50013" height="29.99134" transform="translate(-58.0072 181.56424) rotate(-86.15484)" fill="#ec8e56"/>
    <polygon points="53.329 102.458 52.917 102.174 66.814 82 67.227 82.284 53.329 102.458" fill="#ec8e56"/>
    <path d="M67.21191,141.687l-.3789-.32519,15.89258-18.562L52.92676,83.99121l.39648-.30469,29.92285,38.96973a.24939.24939,0,0,1-.00879.31494Z" fill="#ec8e56"/>
    <rect x="42.86414" y="100.24145" width="50.44164" height="0.50002" transform="translate(-53.201 95.61192) rotate(-53.57772)" fill="#ec8e56"/>
    <rect x="59.85756" y="118.61759" width="0.49972" height="24.99432" transform="translate(-62.51023 55.16154) rotate(-33.59631)" fill="#ec8e56"/>
    <rect x="67.82315" y="97.37884" width="0.50019" height="51.46254" transform="translate(-58.66417 62.05526) rotate(-35.33766)" fill="#ec8e56"/>
    <path d="M67.27246,141.52441h-.5V122.55273L53.32129,139.52686l-.39258-.30957,13.84375-17.48584V82.14453a.25017.25017,0,0,1,.44336-.15869l16.02441,19.46582a.2499.2499,0,0,1,.00391.31445L67.27246,121.9209Zm0-58.68261v38.27441l15.4541-19.50195Z" fill="#ec8e56"/>
    <polygon points="83.048 80.188 83.048 144.229 53.123 139.372 53.123 83.851 70.207 81.76 83.048 80.188" fill="#ffc292"/>
    <path d="M83.04785,145.229a1.0413,1.0413,0,0,1-.16015-.01269l-29.92481-4.85693a1.00024,1.00024,0,0,1-.83984-.98731v-55.521a1.00013,1.00013,0,0,1,.8789-.99267l29.92481-3.66309a.99934.99934,0,0,1,1.12109.99268v64.041a.99916.99916,0,0,1-1,1Zm-28.9248-6.70752,27.9248,4.53223V81.31787l-27.9248,3.41846Z" fill="#ec8e56"/>
    <path d="M83.04785,144.36768a.22187.22187,0,0,1-.04-.00342L53.294,139.55615a.24977.24977,0,0,1-.419-.18408V83.83887a.25006.25006,0,0,1,.21973-.24805l29.92285-3.64844a.23807.23807,0,0,1,.19629.061.24849.24849,0,0,1,.084.187v63.92725a.24979.24979,0,0,1-.25.25ZM53.375,139.063l29.42285,4.76074V80.47266L53.375,84.06006Z" fill="#ec8e56"/>
    <rect x="67.8349" y="106.80487" width="0.50013" height="29.99134" transform="translate(-58.0072 181.56424) rotate(-86.15484)" fill="#ec8e56"/>
    <rect x="53.11745" y="101.6564" width="29.93503" height="0.50019" transform="translate(-2.76003 1.89908) rotate(-1.56629)" fill="#ec8e56"/>
    <polygon points="53.329 102.458 52.917 102.174 66.814 82 67.227 82.284 53.329 102.458" fill="#ec8e56"/>
    <path d="M67.21191,141.687l-.3789-.32519,15.89258-18.562L52.92676,83.99121l.39648-.30469,29.92285,38.96973a.24939.24939,0,0,1-.00879.31494Z" fill="#ec8e56"/>
    <rect x="42.86414" y="100.24145" width="50.44164" height="0.50002" transform="translate(-53.201 95.61192) rotate(-53.57772)" fill="#ec8e56"/>
    <rect x="59.85756" y="118.61759" width="0.49972" height="24.99432" transform="translate(-62.51023 55.16154) rotate(-33.59631)" fill="#ec8e56"/>
    <rect x="67.82315" y="97.37884" width="0.50019" height="51.46254" transform="translate(-58.66417 62.05526) rotate(-35.33766)" fill="#ec8e56"/>
    <path d="M67.27246,141.52441h-.5V122.55273L53.32129,139.52686l-.39258-.30957,13.84375-17.48584V82.14453a.25017.25017,0,0,1,.44336-.15869l16.02441,19.46582a.2499.2499,0,0,1,.00391.31445L67.27246,121.9209Zm0-58.68261v38.27441l15.4541-19.50195Z" fill="#ec8e56"/>
    <path d="M83.04785,144.36768a.22187.22187,0,0,1-.04-.00342L53.294,139.55615a.24977.24977,0,0,1-.419-.18408V83.83887a.25006.25006,0,0,1,.21973-.24805l29.92285-3.64844a.23807.23807,0,0,1,.19629.061.24849.24849,0,0,1,.084.187v63.92725a.24979.24979,0,0,1-.25.25ZM53.375,139.063l29.42285,4.76074V80.47266L53.375,84.06006Z" fill="#ec8e56"/>
    <rect x="53.11745" y="101.6564" width="29.93503" height="0.50019" transform="translate(-2.76003 1.89908) rotate(-1.56629)" fill="#ec8e56"/>
    <polygon points="97.54 22.364 97.024 82.379 82.985 80.26 70.144 81.832 70.672 32.263 97.54 22.364" fill="#ffc292"/>
    <path d="M97.02344,83.37939a1.02527,1.02527,0,0,1-.14942-.01123L82.97168,81.26953l-12.707,1.55518a1.00007,1.00007,0,0,1-1.1211-1.00342l.52833-49.56885a1.00056,1.00056,0,0,1,.65429-.92773l26.86817-9.89893a1.00035,1.00035,0,0,1,1.3457.94727l-.5166,60.01513a.99948.99948,0,0,1-1,.99121ZM82.98535,79.26025a1.02667,1.02667,0,0,1,.14942.01123L96.0332,81.21875l.49414-57.416L71.66406,32.96338l-.50879,47.7373,11.709-1.4331A.996.996,0,0,1,82.98535,79.26025Z" fill="#ec8e56"/>
    <path d="M70.14551,82.09082a.139.139,0,0,1-.03711-.00537.12524.12524,0,0,1-.08789-.12109l.52832-49.70166a.12558.12558,0,0,1,.082-.11573l26.86621-9.89746a.12422.12422,0,0,1,.168.11817l-.37793,55.98a.12469.12469,0,0,1-.1084.123L70.28125,81.98779l-.03223.04785A.12408.12408,0,0,1,70.14551,82.09082Zm.65234-49.73926-.52441,49.38526,26.76465-3.5.376-55.69043Z" fill="#ec8e56"/>
    <path d="M70.249,82.03564l-.207-.13964.06348-.09473L82.85938,62.64941l.00195-.146L83.168,27.61426A.12462.12462,0,0,1,83.24414,27.5a.127.127,0,0,1,.13477.02441L97.5,40.93262a.12613.12613,0,0,1,.01855.16015L83.10938,62.72656l-.1543,17.49512-.25-.002.15039-17.1128ZM83.415,27.90381,83.11328,62.27,97.25195,41.0415,97.25,41.04Z" fill="#ec8e56"/>
    <path d="M70.14551,82.09082a.139.139,0,0,1-.03711-.00537.12524.12524,0,0,1-.08789-.12109l.52832-49.70166a.12558.12558,0,0,1,.082-.11573l26.86621-9.89746a.12422.12422,0,0,1,.168.11817l-.37793,55.98a.12469.12469,0,0,1-.1084.123L70.28125,81.98779l-.03223.04785A.12408.12408,0,0,1,70.14551,82.09082Zm.65234-49.73926-.52441,49.38526,26.76465-3.5.376-55.69043Z" fill="#ec8e56"/>
    <path d="M70.249,82.03564l-.207-.13964.06348-.09473L82.85938,62.64941l.00195-.146L83.168,27.61426A.12462.12462,0,0,1,83.24414,27.5a.127.127,0,0,1,.13477.02441L97.5,40.93262a.12613.12613,0,0,1,.01855.16015L83.10938,62.72656l-.1543,17.49512-.25-.002.15039-17.1128ZM83.415,27.90381,83.11328,62.27,97.25195,41.0415,97.25,41.04Z" fill="#ec8e56"/>
    <polygon points="70.162 82.003 70.131 81.755 70.193 81.747 97.146 78.223 97.178 78.471 97.099 78.481 70.162 82.003" fill="#ec8e56"/>
    <polygon points="70.162 82.003 70.131 81.755 70.193 81.747 97.146 78.223 97.178 78.471 97.099 78.481 70.162 82.003" fill="#ec8e56"/>
    <polygon points="164.022 69.471 164.022 114.017 199.114 115.809 199.114 139.7 142.318 153.924 142.318 32.165 199.114 60.423 199.114 64.898 164.022 69.471" fill="#ec8e56"/>
    <path d="M142.31738,154.92383a.99957.99957,0,0,1-1-1V32.16455a1.00028,1.00028,0,0,1,1.44532-.89551l56.79687,28.25879a1.00083,1.00083,0,0,1,.55469.89551V64.898a1.00037,1.00037,0,0,1-.8711.9917l-34.22168,4.45947v42.71777l34.14356,1.74366a.99966.99966,0,0,1,.94922.99853V139.7002a1.00121,1.00121,0,0,1-.75684.97021L142.56055,154.894A1.00452,1.00452,0,0,1,142.31738,154.92383Zm1-121.145V152.64258l54.79688-13.72266V116.75928l-34.14356-1.74366a.99967.99967,0,0,1-.94922-.99853V69.47119a1.00037,1.00037,0,0,1,.8711-.9917L198.11426,64.02V61.043Z" fill="#ec8e56"/>
    <polygon points="70.347 65.383 70.296 65.138 97.263 59.461 97.313 59.707 70.347 65.383" fill="#ec8e56"/>
    <polygon points="70.532 48.842 70.462 48.602 97.378 40.804 97.448 41.044 70.532 48.842" fill="#ec8e56"/>
    <polygon points="70.604 48.787 70.391 48.657 83.186 27.549 83.398 27.679 70.604 48.787" fill="#ec8e56"/>
    <path d="M82.93262,80.29248l-.20508-.14355L97.12695,59.59912,70.584,32.35156l.17969-.1748L97.37891,59.49854a.12552.12552,0,0,1,.01269.15917Z" fill="#ec8e56"/>
    <rect x="58.52901" y="43.68761" width="50.80136" height="0.24979" transform="translate(1.97796 91.22181) rotate(-57.61471)" fill="#ec8e56"/>
    <polygon points="96.987 78.438 70.467 48.614 70.654 48.448 97.175 78.272 96.987 78.438" fill="#ec8e56"/>
    <polygon points="70.347 65.383 70.296 65.138 97.263 59.461 97.313 59.707 70.347 65.383" fill="#ec8e56"/>
    <polygon points="70.532 48.842 70.462 48.602 97.378 40.804 97.448 41.044 70.532 48.842" fill="#ec8e56"/>
    <polygon points="70.604 48.787 70.391 48.657 83.186 27.549 83.398 27.679 70.604 48.787" fill="#ec8e56"/>
    <path d="M82.93262,80.29248l-.20508-.14355L97.12695,59.59912,70.584,32.35156l.17969-.1748L97.37891,59.49854a.12552.12552,0,0,1,.01269.15917Z" fill="#ec8e56"/>
    <rect x="58.52901" y="43.68761" width="50.80136" height="0.24979" transform="translate(1.97796 91.22181) rotate(-57.61471)" fill="#ec8e56"/>
    <polygon points="96.987 78.438 70.467 48.614 70.654 48.448 97.175 78.272 96.987 78.438" fill="#ec8e56"/>
    <polygon points="83.008 144.364 53.086 139.523 53.164 139.029 53.231 139.04 83.088 143.871 83.008 144.364" fill="#ec8e56"/>
    <polygon points="142.703 32.165 142.703 153.924 107.138 148.149 107.138 42.055 127.754 36.32 142.703 32.165" fill="#ffc292"/>
    <path d="M142.70312,154.92383a1.04131,1.04131,0,0,1-.16015-.0127l-35.56543-5.77441a1.00022,1.00022,0,0,1-.83984-.98731V42.05566a1,1,0,0,1,.73242-.96337l35.56543-9.89112a.99917.99917,0,0,1,1.26757.96338V153.92383a.99916.99916,0,0,1-1,1Zm-34.56542-7.625,33.56542,5.44971V33.48047l-33.56542,9.335Z" fill="#ec8e56"/>
    <path d="M142.64941,129.72559l-.01855-.00049-35.51172-2.62256a.25.25,0,0,1-.23144-.24951V42.06885a.25007.25007,0,0,1,.18261-.24073L142.582,31.939a.24967.24967,0,0,1,.31738.24073v97.2959a.25048.25048,0,0,1-.25.25Zm-35.26171-3.105,35.01171,2.58593V32.50879l-35.01171,9.75Z" fill="#ec8e56"/>
    <rect x="107.045" y="82.39446" width="35.6971" height="0.49966" transform="translate(-7.75262 13.12112) rotate(-5.83316)" fill="#ec8e56"/>
    <polygon points="107.142 105.907 107.134 105.407 142.646 104.901 142.653 105.401 107.142 105.907" fill="#ec8e56"/>
    <rect x="106.81869" y="59.63424" width="36.14973" height="0.50008" transform="matrix(0.98227, -0.18747, 0.18747, 0.98227, -9.01222, 24.47566)" fill="#ec8e56"/>
    <polygon points="107.349 63.4 106.927 63.13 123.463 37.329 123.885 37.599 107.349 63.4" fill="#ec8e56"/>
    <polygon points="123.912 128.228 123.527 127.908 142.511 104.98 142.896 105.3 123.912 128.228" fill="#ec8e56"/>
    <path d="M107.33594,127.00586l-.39649-.30566,35.38379-45.85889L106.95312,42.23779l.36915-.33789L142.834,80.65869a.25042.25042,0,0,1,.01368.32178Z" fill="#ec8e56"/>
    <rect x="93.29288" y="58.07004" width="63.20135" height="0.50055" transform="translate(6.47445 128.86515) rotate(-55.81388)" fill="#ec8e56"/>
    <rect x="124.63072" y="78.26415" width="0.50028" height="57.40872" transform="translate(-39.37968 99.48748) rotate(-37.97453)" fill="#ec8e56"/>
    <rect x="124.63097" y="56.60173" width="0.49977" height="54.97672" transform="translate(-24.84081 99.89497) rotate(-39.98077)" fill="#ec8e56"/>
    <path d="M123.67383,128.32422a.25064.25064,0,0,1-.20117-.10108L106.93652,105.917a.24982.24982,0,0,1-.001-.29541l16.48828-22.81494V37.46387a.24993.24993,0,0,1,.42773-.17578l18.97559,19.16748a.24916.24916,0,0,1,.02441.32226L123.92383,82.96826v45.106a.24982.24982,0,0,1-.17188.2373A.238.238,0,0,1,123.67383,128.32422Zm-16.22656-22.55811,15.97656,21.55127V83.66016Zm16.47656-67.69433v44.043l18.39844-25.458Z" fill="#ec8e56"/>
    <path d="M142.67578,154.16943a.2498.2498,0,0,1-.20117-.10156l-.0459-.062-35.31055-5.7168a.24971.24971,0,0,1-.21-.24658V126.84424a.25073.25073,0,0,1,.26856-.24951l35.51758,2.62207a.25.25,0,0,1,.23144.24951v24.45312a.24982.24982,0,0,1-.17187.23731A.23808.23808,0,0,1,142.67578,154.16943Zm-35.26758-6.33984,35.01758,5.66943V129.69873l-35.01758-2.58545Z" fill="#ec8e56"/>
    <rect x="124.66694" y="132.92719" width="0.50011" height="35.98008" transform="translate(-44.02636 250.10599) rotate(-80.80254)" fill="#ec8e56"/>
    <rect x="102.46007" y="137.80474" width="25.93436" height="0.4994" transform="translate(-64.5217 138.97858) rotate(-50.39526)" fill="#ec8e56"/>
    <polygon points="123.491 150.862 106.953 126.987 107.363 126.702 123.901 150.577 123.491 150.862" fill="#ec8e56"/>
    <rect x="118.93885" y="139.84299" width="28.49437" height="0.50006" transform="translate(-60.01799 146.15744) rotate(-48.24566)" fill="#ec8e56"/>
    <rect x="107.06918" y="147.8103" width="0.5003" height="0.29444" transform="translate(-63.1555 82.02423) rotate(-32.90056)" fill="#ec8e56"/>
    <path d="M142.47461,154.06787l-.10645-.144-18.42187-25.09522v21.89112h-.5v-22.6543a.24966.24966,0,0,1,.45117-.14795L142.877,153.771Z" fill="#ec8e56"/>
    <path d="M142.64941,129.72559l-.01855-.00049-35.51172-2.62256a.25.25,0,0,1-.23144-.24951V42.06885a.25007.25007,0,0,1,.18261-.24073L142.582,31.939a.24967.24967,0,0,1,.31738.24073v97.2959a.25048.25048,0,0,1-.25.25Zm-35.26171-3.105,35.01171,2.58593V32.50879l-35.01171,9.75Z" fill="#ec8e56"/>
    <rect x="107.045" y="82.39446" width="35.6971" height="0.49966" transform="translate(-7.75262 13.12112) rotate(-5.83316)" fill="#ec8e56"/>
    <polygon points="107.142 105.907 107.134 105.407 142.646 104.901 142.653 105.401 107.142 105.907" fill="#ec8e56"/>
    <rect x="106.81869" y="59.63424" width="36.14973" height="0.50008" transform="matrix(0.98227, -0.18747, 0.18747, 0.98227, -9.01222, 24.47566)" fill="#ec8e56"/>
    <polygon points="107.349 63.4 106.927 63.13 123.463 37.329 123.885 37.599 107.349 63.4" fill="#ec8e56"/>
    <polygon points="123.912 128.228 123.527 127.908 142.511 104.98 142.896 105.3 123.912 128.228" fill="#ec8e56"/>
    <path d="M107.33594,127.00586l-.39649-.30566,35.38379-45.85889L106.95312,42.23779l.36915-.33789L142.834,80.65869a.25042.25042,0,0,1,.01368.32178Z" fill="#ec8e56"/>
    <rect x="93.29288" y="58.07004" width="63.20135" height="0.50055" transform="translate(6.47445 128.86515) rotate(-55.81388)" fill="#ec8e56"/>
    <rect x="124.63072" y="78.26415" width="0.50028" height="57.40872" transform="translate(-39.37968 99.48748) rotate(-37.97453)" fill="#ec8e56"/>
    <rect x="124.63097" y="56.60173" width="0.49977" height="54.97672" transform="translate(-24.84081 99.89497) rotate(-39.98077)" fill="#ec8e56"/>
    <path d="M123.67383,128.32422a.25064.25064,0,0,1-.20117-.10108L106.93652,105.917a.24982.24982,0,0,1-.001-.29541l16.48828-22.81494V37.46387a.24993.24993,0,0,1,.42773-.17578l18.97559,19.16748a.24916.24916,0,0,1,.02441.32226L123.92383,82.96826v45.106a.24982.24982,0,0,1-.17188.2373A.238.238,0,0,1,123.67383,128.32422Zm-16.22656-22.55811,15.97656,21.55127V83.66016Zm16.47656-67.69433v44.043l18.39844-25.458Z" fill="#ec8e56"/>
    <path d="M142.67578,154.16943a.2498.2498,0,0,1-.20117-.10156l-.0459-.062-35.31055-5.7168a.24971.24971,0,0,1-.21-.24658V126.84424a.25073.25073,0,0,1,.26856-.24951l35.51758,2.62207a.25.25,0,0,1,.23144.24951v24.45312a.24982.24982,0,0,1-.17187.23731A.23808.23808,0,0,1,142.67578,154.16943Zm-35.26758-6.33984,35.01758,5.66943V129.69873l-35.01758-2.58545Z" fill="#ec8e56"/>
    <rect x="124.66694" y="132.92719" width="0.50011" height="35.98008" transform="translate(-44.02636 250.10599) rotate(-80.80254)" fill="#ec8e56"/>
    <rect x="102.46007" y="137.80474" width="25.93436" height="0.4994" transform="translate(-64.5217 138.97858) rotate(-50.39526)" fill="#ec8e56"/>
    <polygon points="123.491 150.862 106.953 126.987 107.363 126.702 123.901 150.577 123.491 150.862" fill="#ec8e56"/>
    <rect x="118.93885" y="139.84299" width="28.49437" height="0.50006" transform="translate(-60.01799 146.15744) rotate(-48.24566)" fill="#ec8e56"/>
    <rect x="107.06918" y="147.8103" width="0.5003" height="0.29444" transform="translate(-63.1555 82.02423) rotate(-32.90056)" fill="#ec8e56"/>
    <path d="M142.47461,154.06787l-.10645-.144-18.42187-25.09522v21.89112h-.5v-22.6543a.24966.24966,0,0,1,.45117-.14795L142.877,153.771Z" fill="#ec8e56"/>
    <polygon points="127.369 35.422 127.369 36.32 106.752 42.055 106.752 83.841 97.086 82.379 97.602 22.364 127.369 35.422" fill="#ec8e56"/>
    <path d="M106.752,84.84082a1.02653,1.02653,0,0,1-.14941-.01123l-9.666-1.46143a1.00031,1.00031,0,0,1-.85058-.99755l.51562-60.01514a1.00005,1.00005,0,0,1,1.40137-.90674l29.76758,13.05811a.99844.99844,0,0,1,.59863.91552v.898a1,1,0,0,1-.73242.96338L107.752,42.81543V83.84082a.99929.99929,0,0,1-1,1Zm-8.6582-3.32031,7.6582,1.15771V42.05566a1,1,0,0,1,.73243-.96337l19.166-5.332L98.58887,23.88916Z" fill="#ec8e56"/>
    <path d="M149.08524,188.70151c0,27.55-19.44995,73.48-49.29,78.7-.34009.07-.68994.12-1.03.17h-.01a32.6293,32.6293,0,0,1-4.55981.32,33.86728,33.86728,0,0,1-14.59009-3.38.035.035,0,0,1-.02-.01c-20.69995-9.82-35.01-39.14-39.09009-62.89a77.56068,77.56068,0,0,1-1.18994-12.91q0-1.8.12012-3.57.05968-.825.1499-1.65c.04-.36005.08008-.72.12988-1.08a52.81447,52.81447,0,0,1,26.02-38.97,55.88974,55.88974,0,0,1,23.79-7.47c1.54-.13,3.1001-.19,4.68018-.19,1.92993,0,3.83984.1,5.71972.28h.07007a56.2062,56.2062,0,0,1,21.6001,6.77,53.17464,53.17464,0,0,1,26.31006,34.9A51.02,51.02,0,0,1,149.08524,188.70151Z" fill="#ffe8d8"/>
    <path d="M100.08524,267.17154a3.23946,3.23946,0,0,0-.29.23c-.34009.07-.68994.12-1.03.17h-.01a32.6293,32.6293,0,0,1-4.55981.32,33.86728,33.86728,0,0,1-14.59009-3.38.035.035,0,0,1-.02-.01c-19.58008-10.29-34.77-39.4-39.09009-62.89a70.67108,70.67108,0,0,1-1.23-12.47c0-1.35.05-2.69.16016-4.01q.05968-.825.1499-1.65c.04-.36005.08008-.72.12988-1.08a52.90805,52.90805,0,0,1,26.40015-38.77,56.21507,56.21507,0,0,1,28.04-7.42,56.95148,56.95148,0,0,1,15.11987,2.03,52.10326,52.10326,0,0,0-27.69995,8.21,48.68538,48.68538,0,0,0-22.77,40.96c0,27.16,17.98,75.99,46.13989,75.99C105.65531,263.40152,102.40531,265.24149,100.08524,267.17154Z" fill="#ffc292"/>
    <path d="M121.58524,142.8215c-.95.92-3.22,1.88-8.38989,2.71a133.70727,133.70727,0,0,1-19.96021,1.32,133.70368,133.70368,0,0,1-19.96-1.32c-4.04-.65-6.30005-1.37-7.55005-2.1a55.88974,55.88974,0,0,1,23.79-7.47c1.22-.03,2.47-.04,3.72-.04,2.28,0,4.52.04,6.67993.12994h.07007A56.2062,56.2062,0,0,1,121.58524,142.8215Z" fill="#ab4004"/>
    <path d="M149.08524,188.70151c0,27.55-19.44995,73.48-49.29,78.7-.34009.07-.68994.12-1.03.17.43994-.12.88013-.26,1.32007-.4,20.84009-6.88,35.42993-38.24,36.65991-60.29-3.12988,4.46-7.16992,7.16-11.58008,7.16-9.87988,0-17.92993-13.55-17.92993-30.2,0-16.65,8.05-30.19,17.92993-30.19,9.22022,0,16.83008,11.76,17.82007,26.84a9.44058,9.44058,0,0,1,4.91016-2.77A51.02,51.02,0,0,1,149.08524,188.70151Z" fill="#ab4004"/>
    <path d="M94.19486,268.89383c-15.06055,0-29.50489-10.3418-40.67285-29.12109-9.24415-15.54541-15.21778-35.59131-15.21778-51.06934,0-29.73926,25.07227-53.93408,55.89063-53.93408s55.89062,24.19482,55.89062,53.93408c0,15.478-5.97363,35.52393-15.21777,51.06934C123.69974,258.552,109.2554,268.89383,94.19486,268.89383Zm0-132.12451c-29.71582,0-53.89063,23.29736-53.89063,51.93408,0,15.144,5.86328,34.78857,14.9375,50.04736,10.792,18.14844,24.626,28.14307,38.95313,28.14307S122.356,256.8992,133.148,238.75076c9.07422-15.25879,14.9375-34.90332,14.9375-50.04736C148.08548,160.06668,123.91068,136.76932,94.19486,136.76932Z" fill="#ab4004"/>
    <path d="M107.75727,280.26943c14.2068,7.89263-8.49629,15.24279-33.47564,8.87409-11.121-2.83538-11.07491-7.1669-6.67146-9.60934,3.02991-1.68059,8.7285-2.912,14.7109-3.23842C90.28267,275.86131,101.76619,276.94108,107.75727,280.26943Z" fill="#ffe7d3"/>
    <polygon points="82.733 80.3 70.29 65.242 70.481 65.082 70.543 65.156 82.927 80.141 82.733 80.3" fill="#ec8e56"/>
    <polygon points="82.733 80.3 70.29 65.242 70.481 65.082 70.543 65.156 82.927 80.141 82.733 80.3" fill="#ec8e56"/>
    <path d="M94.63867,286.96436a2.47179,2.47179,0,0,1-2.46972-2.46924V271.46289h1.27148v13.03223a1.19824,1.19824,0,0,0,2.39648,0v-4.07471H97.1084v4.07471A2.47179,2.47179,0,0,1,94.63867,286.96436Z" fill="#a75136"/>
    <path d="M82.2373,286.96436a2.47159,2.47159,0,0,1-2.46875-2.46924v-4.07471H81.04v4.07471a1.19776,1.19776,0,0,0,2.39551,0V271.46289H84.707v13.03223A2.47179,2.47179,0,0,1,82.2373,286.96436Z" fill="#a75136"/>
    <rect x="87.8623" y="271.5752" width="1.27148" height="6.28174" fill="#a75136"/>
    <path d="M92.01367,168.67383a85.16723,85.16723,0,0,1-18.74121-1.83838c-13.81738-3.19971-18.38281-7.2168-19.78027-10.02344a4.14172,4.14172,0,0,1-.37891-3.38574l.22852.10156a3.98746,3.98746,0,0,0,.38086,3.18653c1.3789,2.75439,5.90136,6.70361,19.60644,9.87793,9.36328,2.168,22.43457,2.42431,35.85938.70117,12.416-1.59326,22.64062-4.58057,26.68652-7.79639a3.963,3.963,0,0,0,1.84668-2.87549h.25a4.18855,4.18855,0,0,1-1.94141,3.07129c-4.0791,3.24268-14.35156,6.25-26.80957,7.84863A136.28087,136.28087,0,0,1,92.01367,168.67383Z" fill="#ab4004"/>
    <polygon points="155.126 74.43 155.126 110.447 127.247 108.121 113.88 100.463 155.126 74.43" fill="#ff9e01"/>
    <ellipse cx="125.16927" cy="183.84521" rx="16.93092" ry="29.19791" fill="#ab4004"/>
    <path d="M125.169,214.22705c-9.98829,0-18.11426-13.62939-18.11426-30.38184s8.126-30.38183,18.11426-30.38183c9.98925,0,18.11523,13.62939,18.11523,30.38183S135.1582,214.22705,125.169,214.22705Zm0-58.39551c-8.68262,0-15.74707,12.5669-15.74707,28.01367s7.06445,28.01368,15.74707,28.01368c8.68359,0,15.748-12.5669,15.748-28.01368S133.85254,155.83154,125.169,155.83154Z" fill="#ab4004"/>
    <path d="M56.90843,164.95567a1.0006,1.0006,0,0,0,0-2,1.0006,1.0006,0,0,0,0,2Z" fill="#fff"/>
    <path d="M60.35659,160.81788a1.0006,1.0006,0,0,0,0-2,1.0006,1.0006,0,0,0,0,2Z" fill="#fff"/>
    <path d="M70.4712,164.266a1.0006,1.0006,0,0,0,0-2,1.0006,1.0006,0,0,0,0,2Z" fill="#ab4004"/>
    <path d="M67.94255,169.09347a1.0006,1.0006,0,0,0,0-2,1.0006,1.0006,0,0,0,0,2Z" fill="#ab4004"/>
    <path d="M86.33276,166.10506a1.0006,1.0006,0,0,0,0-2,1.0006,1.0006,0,0,0,0,2Z" fill="#ab4004"/>
    <path d="M86.33276,171.852a1.0006,1.0006,0,0,0,0-2,1.0006,1.0006,0,0,0,0,2Z" fill="#ab4004"/>
    <path d="M101.73455,166.10506a1.0006,1.0006,0,0,0,0-2,1.0006,1.0006,0,0,0,0,2Z" fill="#ab4004"/>
    <path d="M102.65406,172.31176a1.0006,1.0006,0,0,0,0-2,1.0006,1.0006,0,0,0,0,2Z" fill="#ab4004"/>
    <path d="M94.18848,268.45459l-.07618-.23828c7.7627-2.48584,18.51856-10.03174,25.67481-31.86133a121.77415,121.77415,0,0,0,5.25684-25.3584l.25.01856a122.15256,122.15256,0,0,1-5.26856,25.41259,70.32385,70.32385,0,0,1-9.39844,19.33155C105.97754,262.17871,100.44727,266.4502,94.18848,268.45459Z" fill="#ab4004"/>
    <path d="M116.70017,241.60857a.5003.5003,0,0,0,0-1,.5003.5003,0,0,0,0,1Z" fill="#ab4004"/>
    <path d="M108.01083,257.24938a.5003.5003,0,0,0,0-1,.5003.5003,0,0,0,0,1Z" fill="#ab4004"/>
    <path d="M110.07455,259.09586a.5003.5003,0,0,0,0-1,.5003.5003,0,0,0,0,1Z" fill="#ab4004"/>
    <path d="M99.24219,266.667l-.23633-.97168c20.19531-4.9209,35.88184-26.05176,41.91113-43.603a120.668,120.668,0,0,0,6.13379-45.03956l.9961-.09375a121.76414,121.76414,0,0,1-6.18458,45.4585C135.74805,240.21729,119.80273,261.65723,99.24219,266.667Z" fill="#ffc292"/>
    <path d="M87.44238,265.51367c-22.00293-8.49853-33.32617-27.70215-38.95117-42.31543-6.30859-16.39258-8.48535-35.32422-5.543-48.231,3.88281-17.03272,26.48535-32.51026,27.44531-33.16114l.56055.82813c-.23144.15722-23.23633,15.90869-27.03125,32.55566-2.90039,12.72559-.74121,31.4292,5.502,47.64893,5.55176,14.4248,16.7168,33.37549,38.377,41.74218Z" fill="#fff"/>
    <path d="M130.98709,110.876c-1.54,16.93-21.85986,28.55-40.15991,28.55a42.4803,42.4803,0,0,1-6.8-.54c-8.39014-5.58-13.05-15.07-13.05-26.37,0-18.3,16.59009-33.13,37.06006-33.13.40991,0,.81006.01,1.22.02h.01a36.5043,36.5043,0,0,1,11.98,7.45l-6.54,6.59a9.86415,9.86415,0,0,0,6.38013,16.7Z" fill="#ffe8d8"/>
    <path d="M108.17312,114.63956a10.23328,10.23328,0,0,1-1.57714-.12256,10.133,10.133,0,1,1,3.12011-20.02442l-.18164,1.16993a8.94908,8.94908,0,1,0,2.5918,16.86376l.52539,1.06055A10.05408,10.05408,0,0,1,108.17312,114.63956Z" fill="#ff9e01"/>
    <polygon points="133.377 111.046 133.347 111.046 133.347 111.036 133.377 111.046" fill="#ab4004"/>
    <path d="M63.0972,126.906a27.84225,27.84225,0,0,0,2.7,3.57A26.7615,26.7615,0,0,1,63.0972,126.906Z" fill="#ffc292"/>
    <path d="M127.937,91.066a34.62155,34.62155,0,0,0-5.02-5.89,40.30444,40.30444,0,0,0-27.71-10.69c-21.07983,0-38.24,15.39-38.24,34.32,0,19.73,13.61011,32.99,33.86011,32.99,19.37988,0,40.88989-12.52,42.52-30.75v-.01a20.60188,20.60188,0,0,0,.10986-2.23A31.45788,31.45788,0,0,0,127.937,91.066Zm3.09009,19.37c-.01.15-.02.3-.04.44-1.54,16.93-21.85986,28.55-40.15991,28.55a42.4803,42.4803,0,0,1-6.8-.54c-15.21-2.54-24.68994-13.79-24.68994-30.08,0-17.62,16.08984-31.94995,35.86987-31.94995a39.56556,39.56556,0,0,1,14.05005,2.55h.01a36.5043,36.5043,0,0,1,11.98,7.45,32.26106,32.26106,0,0,1,4.67993,5.45,29.262,29.262,0,0,1,5.16016,16.5C131.08719,109.356,131.06717,109.896,131.02713,110.43594Z" fill="#ab4004"/>
    <path d="M131.02713,110.43594c-.01.15-.02.3-.04.44l-9.8999-.73a9.86717,9.86717,0,0,1-6.38013-16.7l6.54-6.59a32.26106,32.26106,0,0,1,4.67993,5.45l-7.2998,4.49a5.95366,5.95366,0,0,0-2.83008,5.07,5.8467,5.8467,0,0,0,.37988,2.09,5.95411,5.95411,0,0,0,4.08008,3.68Z" fill="#ab4004"/>
    <path d="M131.08719,108.80594c0,.55-.02,1.09-.06006,1.63l-10.77-2.8a5.95411,5.95411,0,0,1-4.08008-3.68,5.8467,5.8467,0,0,1-.37988-2.09,5.95366,5.95366,0,0,1,2.83008-5.07l7.2998-4.49A29.262,29.262,0,0,1,131.08719,108.80594Z" fill="#ff9e01"/>
    <path d="M70.97708,112.516c0,11.3,4.65991,20.79,13.05,26.37-15.21-2.54-24.68994-13.79-24.68994-30.08,0-17.62,16.08984-31.94995,35.86987-31.94995a39.56556,39.56556,0,0,1,14.05005,2.55c-.40991-.01-.81006-.02-1.22-.02C87.56717,79.386,70.97708,94.216,70.97708,112.516Z" fill="#ffc292"/>
    <path d="M109.76562,122.00488c-.28613,0-.57226-.00683-.86132-.02148l.06054-1.18262a15.53782,15.53782,0,0,0,2.27832-.0498l.11133,1.17871C110.8291,121.979,110.294,122.00439,109.76562,122.00488Zm-3.293-.32226c-.21094-.04151-.42286-.08692-.63282-.13721a17.15128,17.15128,0,0,1-1.73046-.50488l.39062-1.11719a16.02381,16.02381,0,0,0,1.6123.47021q.2959.07032.58887.12793Zm7.30078-.15967-.28125-1.15039a15.92349,15.92349,0,0,0,2.1709-.69824l.44336,1.09765A17.24163,17.24163,0,0,1,113.77344,121.523Zm-11.91309-1.45654a17.00383,17.00383,0,0,1-2.085-1.29l.69336-.959a15.76808,15.76808,0,0,0,1.94043,1.19922Zm-3.96191-2.86621a17.0353,17.0353,0,0,1-1.62989-1.82911l.9375-.72265a15.98351,15.98351,0,0,0,1.51661,1.70312Zm-2.98145-3.873a17.01409,17.01409,0,0,1-1.0459-2.21582l1.10352-.42676a15.91082,15.91082,0,0,0,.97363,2.06152ZM93.15137,108.769a17.14008,17.14008,0,0,1-.37305-2.42041l1.17969-.0957a15.93886,15.93886,0,0,0,.34765,2.25244Zm.79-4.79541-1.18164-.07617a17.15382,17.15382,0,0,1,.333-2.42773l1.15821.24414A15.91552,15.91552,0,0,0,93.94141,103.97363Zm.93652-4.45312-1.11133-.40528a16.77344,16.77344,0,0,1,1.00488-2.23584l1.041.5625A15.76687,15.76687,0,0,0,94.87793,99.52051ZM97.03809,95.519l-.94922-.707a16.9733,16.9733,0,0,1,1.60254-1.85547l.83789.83692A15.805,15.805,0,0,0,97.03809,95.519Zm3.21484-3.21972-.709-.94727a17.0234,17.0234,0,0,1,2.06152-1.32422l.56641,1.03906A16.00138,16.00138,0,0,0,100.25293,92.29932Zm3.99414-2.17774-.41211-1.10937a16.92083,16.92083,0,0,1,2.35254-.68555l.24805,1.15723A15.88385,15.88385,0,0,0,104.24707,90.12158Zm9.14551-.561-.166-.03809.25977-1.15527.17383.04Zm-2.42285-.3794a15.39845,15.39845,0,0,0-2.28028-.01318l-.07812-1.18164a17.06764,17.06764,0,0,1,2.45215.01416Z" fill="#ff9e01"/>
    <circle cx="108.93532" cy="104.53055" r="5.95872" fill="#ff9e01"/>
    <path d="M108.93555,110.98926a6.45874,6.45874,0,1,1,6.458-6.4585A6.46616,6.46616,0,0,1,108.93555,110.98926Zm0-11.91748a5.45874,5.45874,0,1,0,5.458,5.459A5.46528,5.46528,0,0,0,108.93555,99.07178Z" fill="#ab4004"/>
    <path d="M111.02027,99.24854q-.13514.09009-.27.18006c-.07984.05-.14991.11-.22.16a1.85558,1.85558,0,0,1,.22-.17C110.84033,99.35859,110.93018,99.29859,111.02027,99.24854Z" fill="#ffe8d8"/>
    <path d="M156.4502,157.93855l.03.02-14.82007,23.91a14.81736,14.81736,0,0,1-25.18994-15.61,15.691,15.691,0,0,1,1.54-2.05l16.35009-18.34a4.75626,4.75626,0,0,0,.37989-5.86l-24.22-35.34a3.17128,3.17128,0,0,1,.82006-4.39,2.023,2.023,0,0,1,.31983-.18,3.05685,3.05685,0,0,1,1.47021-.37,3.1633,3.1633,0,0,1,1.8999.63l25.45,19.13,14.33007,10.75995a1.37505,1.37505,0,0,0,.11988.12006l1.20019,1.28.15991.2c.41993.54.82007,1.04,1.17994,1.59a20.73075,20.73075,0,0,1,3.23,8.26A21.15909,21.15909,0,0,1,156.4502,157.93855Z" fill="#ffe8d8"/>
    <path d="M155.77027,129.73859h-.01l.41015.42Zm-45.02-30.32a1.85558,1.85558,0,0,0-.22.17c.07007-.05.14014-.11.22-.16q.13512-.09.27-.18006C110.93018,99.29859,110.84033,99.35859,110.75025,99.41859Z" fill="#ab4004"/>
    <path d="M162.74024,141.3686a22.62586,22.62586,0,0,0-3.54-9.07c-.39991-.62-.84986-1.18-1.27979-1.73l-1.51025-1.65a2.98037,2.98037,0,0,0-.3999-.36l-39.74-29.86a5.23188,5.23188,0,0,0-7.46,7.14l24.22,35.34a2.69356,2.69356,0,0,1-.21,3.31l-16.35009,18.34a17.81255,17.81255,0,0,0-1.76,2.33,16.89452,16.89452,0,0,0,14.33007,25.79,17.202,17.202,0,0,0,3.8899-.45,16.7603,16.7603,0,0,0,10.49023-7.54l14.93994-24.09v-.01A23.23772,23.23772,0,0,0,162.74024,141.3686Zm-6.97-11.63.40014.42-.41015-.42Zm-45.02-30.32c.09008-.06.17993-.12.27-.17q-.13514.09009-.27.18006c-.07984.05-.14991.11-.22.16A1.85558,1.85558,0,0,1,110.75025,99.41859Zm45.7,58.52.03.02-14.82007,23.91a14.81736,14.81736,0,0,1-25.18994-15.61,15.691,15.691,0,0,1,1.54-2.05l16.35009-18.34a4.75626,4.75626,0,0,0,.37989-5.86l-24.22-35.34a3.17128,3.17128,0,0,1,.82006-4.39,2.023,2.023,0,0,1,.31983-.18,3.05685,3.05685,0,0,1,1.47021-.37,3.1633,3.1633,0,0,1,1.8999.63l25.45,19.13,14.33007,10.75995a1.37505,1.37505,0,0,0,.11988.12006l1.20019,1.28.15991.2c.41993.54.82007,1.04,1.17994,1.59a20.73075,20.73075,0,0,1,3.23,8.26A21.15909,21.15909,0,0,1,156.4502,157.93855Z" fill="#ab4004"/>
    <path d="M118.24024,185.63856a15.7075,15.7075,0,0,0,1.60009,1.31A14.68434,14.68434,0,0,1,118.24024,185.63856Z" fill="#ec8e56"/>
    <polygon points="156.17 130.159 155.76 129.739 155.77 129.739 156.17 130.159" fill="#ec8e56"/>
    <path d="M156.4502,157.93855l.03.02-14.82007,23.91a14.79471,14.79471,0,0,1-27.31983-6.45,14.06608,14.06608,0,0,0,4.6001,4.61,14.26114,14.26114,0,0,0,19.62988-4.62l13.45-21.68-.19.23a19.93147,19.93147,0,0,0,4-15.34,19.465,19.465,0,0,0-3.04-7.8c-.38989-.58-.82006-1.13-1.25-1.67l-.7-.77-.37011-.37a2.507,2.507,0,0,0-.29-.29l-1.43994-1.07-11.46-8.61-22.8999-17.22a3.78721,3.78721,0,0,0-2.72021-.72,3.05685,3.05685,0,0,1,1.47021-.37,3.1633,3.1633,0,0,1,1.8999.63l25.45,19.13,14.33007,10.75995a1.37505,1.37505,0,0,0,.11988.12006l1.20019,1.28.15991.2c.41993.54.82007,1.04,1.17994,1.59a20.73075,20.73075,0,0,1,3.23,8.26A21.15909,21.15909,0,0,1,156.4502,157.93855Z" fill="#ec8e56"/>
    <polygon points="160.301 136.844 133.633 123.187 117.099 101.832 117.296 101.679 133.813 123.012 160.414 136.621 160.301 136.844" fill="#ab4004"/>
    <path d="M132.17285,183.56543a25.25632,25.25632,0,0,1-8.33789-1.47656,31.18709,31.18709,0,0,1-9.02246-4.98828l.16211-.18946a30.97532,30.97532,0,0,0,8.95117,4.94483,22.5785,22.5785,0,0,0,19.9707-1.96338l.13282.21191A22.04372,22.04372,0,0,1,132.17285,183.56543Z" fill="#ab4004"/>
    <polygon points="254.779 152.386 254.779 223.388 176.937 204.146 176.937 153.233 212.089 158.034 217.915 148.059 254.779 152.386" fill="#ff9e01"/>
    <path d="M254.77832,224.66748a1.25538,1.25538,0,0,1-.30664-.0376l-77.84082-19.2417a1.27958,1.27958,0,0,1-.97266-1.24218V153.2334a1.27852,1.27852,0,0,1,1.45215-1.26807L211.415,156.6499l5.39453-9.23681a1.27708,1.27708,0,0,1,1.25488-.62549l36.86328,4.32763a1.27935,1.27935,0,0,1,1.12989,1.271V223.3877a1.2786,1.2786,0,0,1-1.2793,1.27978ZM178.2168,203.144,253.499,221.75293V153.52441l-34.90136-4.09716-5.40332,9.252a1.28916,1.28916,0,0,1-1.27832.62256l-33.69922-4.602Z" fill="#ab4004"/>
    <path d="M244.499,184.8833a12.29253,12.29253,0,0,1-2.70117-.66357,12.17048,12.17048,0,0,0-4.71777-.67627,14.11105,14.11105,0,0,1-5.47656-.78516,12.13357,12.13357,0,0,0-4.71094-.6748,14.104,14.104,0,0,1-5.47266-.78467,10.43637,10.43637,0,0,0-2.32324-.5708l.28125-1.96289a12.2742,12.2742,0,0,1,2.69922.66308,12.131,12.131,0,0,0,4.71.6753,14.10627,14.10627,0,0,1,5.47363.78418,12.14024,12.14024,0,0,0,4.71485.67578,14.14215,14.14215,0,0,1,5.47949.78564,10.46773,10.46773,0,0,0,2.32519.57129Z" fill="#ab4004"/>
    <path d="M244.46094,190.48389a12.40141,12.40141,0,0,1-2.69043-.74854,12.28226,12.28226,0,0,0-4.72071-.82617,12.518,12.518,0,0,1-2.78515-.21,12.36047,12.36047,0,0,1-2.68945-.74854,10.56507,10.56507,0,0,0-2.31739-.645,10.397,10.397,0,0,0-2.39746-.17968,14.24247,14.24247,0,0,1-5.46973-.95752,10.56364,10.56364,0,0,0-2.31738-.645l.3418-1.95313a12.41672,12.41672,0,0,1,2.68848.74805,12.26063,12.26063,0,0,0,4.71484.82519,14.22946,14.22946,0,0,1,5.46973.957,12.27355,12.27355,0,0,0,4.71972.82617,14.25453,14.25453,0,0,1,5.47461.95849,10.55082,10.55082,0,0,0,2.32031.64551Z" fill="#ab4004"/>
    <path d="M244.4248,196.084a12.51042,12.51042,0,0,1-2.68066-.833,12.44078,12.44078,0,0,0-4.72656-.977,14.412,14.412,0,0,1-5.46875-1.13038,12.40693,12.40693,0,0,0-4.71973-.97607,14.38938,14.38938,0,0,1-5.46582-1.12988,10.65592,10.65592,0,0,0-2.31152-.71924l.40039-1.94141a12.50914,12.50914,0,0,1,2.67871.83252,12.39853,12.39853,0,0,0,4.71777.97559,14.39931,14.39931,0,0,1,5.4668,1.12988,12.41843,12.41843,0,0,0,4.72363.97656,14.42238,14.42238,0,0,1,5.47168,1.13135,10.73469,10.73469,0,0,0,2.31446.71973Z" fill="#ab4004"/>
    <path d="M242.162,166.71749c.00013,1.74444-1.17238,3.08078-2.59734,2.98619a3.06321,3.06321,0,0,1-2.52144-3.23324,2.72756,2.72756,0,0,1,2.52107-2.98974A3.03459,3.03459,0,0,1,242.162,166.71749Z" fill="#ab4004"/>
    <path d="M236.47089,176.32589a1.58928,1.58928,0,0,1-1.08277-2.07633,4.16016,4.16016,0,0,1,4.17666-3.17171,5.36243,5.36243,0,0,1,4.39065,3.987c.32379,1.02452-.29115,2.02974-1.18042,1.93471Z" fill="#ab4004"/>
    <rect x="154.26367" y="67.67871" width="2.36719" height="50.00977" fill="#ab4004"/>
    <path d="M119.52421,242.15166a.5003.5003,0,0,0,0-1,.5003.5003,0,0,0,0,1Z" fill="#ab4004"/>
    <path d="M121.15346,226.07638a.5003.5003,0,0,0,0-1,.5003.5003,0,0,0,0,1Z" fill="#ab4004"/>
    <path d="M124.412,226.185a.5003.5003,0,0,0,0-1,.5003.5003,0,0,0,0,1Z" fill="#ab4004"/>
    <path d="M253.84082,220.48486h-1.75V154.74219l-33.14258-4.14258-6.208,9.82519a.87012.87012,0,0,1-.8623.39893l-33.42578-4.73828.24609-1.73242,32.86524,4.65918,6.20312-9.8169a.88076.88076,0,0,1,.84766-.40088l34.46,4.30762a.87559.87559,0,0,1,.7666.86816Z" fill="#ffe8d8"/>
    <path d="M125.16992,214.22412V211.856c8.3916,0,15.45117-12.13819,15.73633-27.0586.00977-.32177.00977-.62939.00977-.94726,0-.91651-.02247-1.7378-.06739-2.51074a46.54926,46.54926,0,0,0-.79-6.56836l2.32422-.45215a48.86572,48.86572,0,0,1,.83008,6.89258c.04688.80908.07031,1.67578.07031,2.63867,0,.34228,0,.67431-.00976,1.00586C142.958,201.31787,135.00586,214.22412,125.16992,214.22412Z" fill="#ec8e56"/>
    <path d="M126.28223,155.91211a7.91074,7.91074,0,0,0-1.11231-.07813v-2.36816a10.266,10.266,0,0,1,1.44824.10254Z" fill="#ec8e56"/>
    <path d="M154.917,74.446v42.2l-21.53979-5.6-.03-.01a20.60188,20.60188,0,0,0,.10986-2.23,31.45788,31.45788,0,0,0-5.52-17.74l3.26-2.01Z" fill="#ff9e01"/>
    <path d="M141.08008,155.13184a4.09245,4.09245,0,0,1-2.89942-6.98291,3.38773,3.38773,0,0,1,.60352-.48829,4.081,4.081,0,0,1,4.8125.15821,3.74952,3.74952,0,0,1,.37109.32959,4.08936,4.08936,0,0,1-2.88769,6.9834Zm0-7.92969a3.75335,3.75335,0,0,0-2.15918.66748,3.12689,3.12689,0,0,0-.56348.45605,3.84058,3.84058,0,1,0,5.4336-.00048,3.43863,3.43863,0,0,0-.34766-.30909A3.76947,3.76947,0,0,0,141.08008,147.20215Z" fill="#ab4004"/>
    <rect x="136.55023" y="141.97107" width="0.24914" height="6.61206" transform="translate(-61.8317 125.76803) rotate(-41.13458)" fill="#ab4004"/>
    <path d="M143.61523,147.99707l-.1914-.16016c2.93164-3.50048,9.02832-9.20556,17.5957-9.20556.36231,0,.72754.01025,1.09766.03076l-.01367.25c-.36524-.021-.72657-.03076-1.082-.03076C152.55176,138.88135,146.51855,144.53076,143.61523,147.99707Z" fill="#ab4004"/>
    <polygon points="237.327 42.785 237.327 122.28 196.677 120.2 155.132 118.079 155.132 53.497 196.677 48.083 237.327 42.785" fill="#ffe8d8"/>
    <path d="M237.32617,123.31543q-.02637,0-.05273-.00147l-82.19434-4.20117a1.0354,1.0354,0,0,1-.98242-1.03418V53.49707a1.03565,1.03565,0,0,1,.90137-1.02686l82.19433-10.71142a1.03427,1.03427,0,0,1,1.16895,1.02685v79.49415a1.03615,1.03615,0,0,1-1.03516,1.03564Zm-81.15918-6.2207,80.124,4.09521V43.96484L156.167,54.40625Z" fill="#ab4004"/>
    <polygon points="272.23 68.13 272.23 115.87 263.46 117.48 237.33 122.28 237.33 42.79 254.78 55.46 272.23 68.13" fill="#ec8e56"/>
    <path d="M237.33008,123.27979a1.00022,1.00022,0,0,1-1-1V42.79A1,1,0,0,1,237.918,41.981L272.81836,67.3208a1,1,0,0,1,.41211.80908v47.74024a.99983.99983,0,0,1-.81934.9834l-34.90039,6.40966A.98316.98316,0,0,1,237.33008,123.27979Zm1-78.52784v76.32764l32.90039-6.04248V68.63965Z" fill="#ab4004"/>
    <path d="M196.24121,83.69531a12.93831,12.93831,0,0,1-2.94238-.29394,13.46773,13.46773,0,0,0-5.32813,0,14.85912,14.85912,0,0,1-5.88183,0,13.43841,13.43841,0,0,0-5.32227,0,14.83472,14.83472,0,0,1-5.877,0,11.57439,11.57439,0,0,0-2.66113-.26612.707.707,0,1,1,0-1.41406,12.90447,12.90447,0,0,1,2.93847.29395,13.4389,13.4389,0,0,0,5.32227,0,14.83423,14.83423,0,0,1,5.87695,0,13.46331,13.46331,0,0,0,5.32715,0,14.86353,14.86353,0,0,1,5.88281,0,11.60765,11.60765,0,0,0,2.665.26611.707.707,0,0,1,0,1.41406Z" fill="#a75136"/>
    <path d="M196.24121,88.16406a12.93831,12.93831,0,0,1-2.94238-.29394,13.444,13.444,0,0,0-5.32813,0,14.85912,14.85912,0,0,1-5.88183,0,13.41469,13.41469,0,0,0-5.32227,0,14.83472,14.83472,0,0,1-5.877,0,11.54059,11.54059,0,0,0-2.66113-.2666.707.707,0,1,1,0-1.41407,12.90447,12.90447,0,0,1,2.93847.294,13.41469,13.41469,0,0,0,5.32227,0,14.83423,14.83423,0,0,1,5.87695,0,13.43906,13.43906,0,0,0,5.32715,0,14.86353,14.86353,0,0,1,5.88281,0,11.57362,11.57362,0,0,0,2.665.2666.707.707,0,0,1,0,1.41406Z" fill="#a75136"/>
    <path d="M196.24121,92.63232a12.93831,12.93831,0,0,1-2.94238-.29394,13.46822,13.46822,0,0,0-5.32813,0,14.85912,14.85912,0,0,1-5.88183,0,13.4389,13.4389,0,0,0-5.32227,0,14.83472,14.83472,0,0,1-5.877,0,11.57452,11.57452,0,0,0-2.66113-.26611.707.707,0,1,1,0-1.41407,12.90447,12.90447,0,0,1,2.93847.294,13.4389,13.4389,0,0,0,5.32227,0,14.83423,14.83423,0,0,1,5.87695,0,13.46331,13.46331,0,0,0,5.32715,0,14.86353,14.86353,0,0,1,5.88281,0,11.60765,11.60765,0,0,0,2.665.26611.707.707,0,0,1,0,1.41406Z" fill="#a75136"/>
    <circle cx="191.28814" cy="69.3084" r="2.55423" fill="#a75136"/>
    <path d="M188.143,77.56975a1.21136,1.21136,0,0,1-1.12795-1.6494,4.581,4.581,0,0,1,8.54613,0,1.21136,1.21136,0,0,1-1.12795,1.6494Z" fill="#a75136"/>
    <polygon points="237.643 42.785 237.643 122.281 155.447 118.079 155.447 66.27 155.447 53.499 237.643 42.785" fill="#ffe8d8"/>
    <path d="M237.64258,123.46533c-.02051,0-.04-.001-.06055-.00195l-82.19531-4.20264a1.18312,1.18312,0,0,1-1.12305-1.18213V53.499A1.18294,1.18294,0,0,1,155.294,52.3252l82.19531-10.71387a1.18313,1.18313,0,0,1,1.33691,1.17383v79.49609a1.18354,1.18354,0,0,1-1.18359,1.18408Zm-81.01172-6.51172,79.82812,4.08155V44.1333L156.63086,54.53857Z" fill="#ab4004"/>
    <rect x="141.74324" y="80.94236" width="108.80746" height="0.24956" transform="translate(-3.48378 153.13015) rotate(-42.30385)" fill="#fff"/>
    <rect x="196.01242" y="34.68383" width="0.24957" height="105.03516" transform="matrix(0.64176, -0.7669, 0.7669, 0.64176, 3.38854, 181.65691)" fill="#fff"/>
    <polygon points="155.216 118.171 155.048 117.986 237.559 42.693 237.727 42.877 155.216 118.171" fill="#ab4004"/>
    <rect x="196.42014" y="34.30128" width="0.24957" height="107.17772" transform="translate(3.00699 182.2175) rotate(-50.07692)" fill="#ab4004"/>
    <line x1="177.56985" y1="57.28884" x2="155.44734" y2="72.95039" fill="#ab4004"/>
    <rect x="152.95611" y="63.93597" width="27.10536" height="2.36732" transform="translate(-7.0327 108.12073) rotate(-35.27666)" fill="#ffe8d8"/>
    <polygon points="235.81 117.651 234.81 117.651 234.81 45.484 159.694 55.317 159.565 54.326 235.81 44.345 235.81 117.651" fill="#fff"/>
    <polygon points="272.23 68.13 272.23 115.87 263.46 117.48 254.78 55.46 272.23 68.13" fill="#ab4004"/>
    <path d="M263.46,118.35449a.874.874,0,0,1-.86621-.75342l-8.67969-62.02a.87464.87464,0,0,1,1.37989-.8291l17.45019,12.66993a.87555.87555,0,0,1,.36133.708v47.74024a.87474.87474,0,0,1-.7168.86035l-8.77051,1.60986A.86589.86589,0,0,1,263.46,118.35449ZM255.93164,57.377l8.26856,59.07813,7.15527-1.314V68.57568Z" fill="#ab4004"/>
    <line x1="120.76472" y1="98.57184" x2="143.64277" y2="94.9112" fill="#ab4004"/>
    <rect x="120.61914" y="95.70592" width="23.16894" height="2.07108" transform="translate(-13.65718 22.16712) rotate(-9.11589)" fill="#ab4004"/>
    <line x1="133.73122" y1="109.41754" x2="183.71062" y2="115.68062" fill="#ab4004"/>
    <rect x="157.53717" y="87.36387" width="2.36805" height="50.3704" transform="translate(27.30978 256.04385) rotate(-82.85721)" fill="#ffe8d8"/>
    <line x1="155.44734" y1="72.95039" x2="128.60157" y2="91.95574" fill="#ab4004"/>
    <rect x="125.57832" y="81.26922" width="32.89219" height="2.36732" transform="translate(-21.53908 97.16324) rotate(-35.27666)" fill="#ffe8d8"/>
    <line x1="208.75643" y1="106.04231" x2="125.16927" y2="103.62556" fill="#ab4004"/>
    <rect x="165.7788" y="63.02257" width="2.36817" height="83.62283" transform="translate(57.34689 268.69705) rotate(-88.34372)" fill="#ffe8d8"/>
    <path d="M202.43642,105.76627q-.14586.06193-.29088.12665c-4.23717,1.89154-7.77106,5.5566-11.83964,7.38217-5.77885,2.593-11.30218.51086-16.50537-2.35923-3.48575-1.92274-5.94457-6.22386-8.56739-9.68189a33.82881,33.82881,0,0,1-4.07708-6.31975,15.5633,15.5633,0,0,1-1.451-8.02933c.62576-5.69556,4.91764-10.2049,7.24411-14.87166a27.5682,27.5682,0,0,1,7.90695-10.03768c13.30794-9.89758,26.0226,3.36524,37.33585,13.51917a16.01217,16.01217,0,0,1,3.8536,4.50493c2.0817,4.05037,1.35781,9.45791,2.59067,14.06958a10.48067,10.48067,0,0,1,.58094,2.94519c-.055,2.21837-1.8017,3.76447-3.45141,4.6272C211.4497,103.89882,206.68,103.9644,202.43642,105.76627Z" fill="#ab4004"/>
    <path d="M200.98767,104.22718q-.13107.05635-.26142.11523c-3.81228,1.72259-6.99782,5.04841-10.67214,6.71895-5.23143,2.37849-10.24536.52141-14.98109-2.05788-3.17935-1.73162-5.42531-5.63338-7.82406-8.77212a30.69894,30.69894,0,0,1-3.7349-5.74747,14.0956,14.0956,0,0,1-1.331-7.31621c.57413-5.18958,4.5072-9.28582,6.63571-13.52449a24.86681,24.86681,0,0,1,7.216-9.08238c12.08214-8.87493,23.55254,3.19785,33.69918,12.39535a14.441,14.441,0,0,1,3.4435,4.06188c1.85749,3.64374,1.21178,8.5022,2.31136,12.64534a9.47152,9.47152,0,0,1,.51791,2.645c-.049,1.99274-1.6067,3.3856-3.07907,4.165C209.06989,102.51563,204.79727,102.58913,200.98767,104.22718Z" fill="#ec8e56"/>
    <path d="M210.73961,95.15092a4.19858,4.19858,0,0,1-2.48,3.4,15.1131,15.1131,0,0,1-2.57984,1.07c-2.37011.75-4.84008,1.06-7.10009,2.05-.07007.03-.1399.07-.21.1a15.63827,15.63827,0,0,0-1.40015.74c-2.51978,1.51-4.7898,3.67-7.33984,4.85a2.03425,2.03425,0,0,1-.22.09c-4.23,1.86-8.32006.38-12.19006-1.68-2.65-1.41-4.52991-4.64-6.53992-7.24a26.01588,26.01588,0,0,1-3.15014-4.78,12.43337,12.43337,0,0,1-.90991-2.7,10.20053,10.20053,0,0,1-.21-3.4,12.40216,12.40216,0,0,1,1.29-4.11c1.25989-2.53,3.10987-4.81006,4.28992-7.13a20.27019,20.27019,0,0,1,6.03992-7.48,5.27629,5.27629,0,0,1,.49-.33c9.82007-6.55005,19.05005,3.29,27.16015,10.75995a11.90654,11.90654,0,0,1,2.78,3.33c1.5,2.98.98,6.93,1.85987,10.31A7.45829,7.45829,0,0,1,210.73961,95.15092Z" fill="#ab4004"/>
    <path d="M185.391,108.8057a18.336,18.336,0,0,1-8.40625-2.59326c-2.17188-1.15576-3.81153-3.42236-5.39844-5.61426-.4336-.60009-.86426-1.1958-1.30176-1.76171a26.47558,26.47558,0,0,1-3.207-4.87208,12.87881,12.87881,0,0,1-.94727-2.81054,10.64556,10.64556,0,0,1-.21777-3.55957,12.91638,12.91638,0,0,1,1.33887-4.27539,38.48083,38.48083,0,0,1,2.29492-3.8335,36.39259,36.39259,0,0,0,1.99805-3.30127,20.78491,20.78491,0,0,1,6.19433-7.66015,5.78746,5.78746,0,0,1,.52832-.354c9.41406-6.27978,18.209,1.92774,25.96973,9.168.59961.55908,1.19433,1.11328,1.78223,1.65527a12.257,12.257,0,0,1,2.88671,3.47315,16.9392,16.9392,0,0,1,1.30176,6.17627,25.914,25.914,0,0,0,.59571,4.23242l.0996.35107a6.31371,6.31371,0,0,1,.33692,1.93848,4.63787,4.63787,0,0,1-2.74219,3.82666,15.623,15.623,0,0,1-2.666,1.106c-.9375.29687-1.89649.52734-2.82325.75a24.87357,24.87357,0,0,0-4.22851,1.28174l-.21289.10156a15.12868,15.12868,0,0,0-1.34473.71191c-1.01562.6084-2.0166,1.34522-2.98535,2.05762a26.44024,26.44024,0,0,1-4.39746,2.81445,2.20682,2.20682,0,0,1-.293.11719A10.17261,10.17261,0,0,1,185.391,108.8057Zm-.21875-41.82812a11.287,11.287,0,0,0-6.375,2.03955,5.07131,5.07131,0,0,0-.46875.314,19.83047,19.83047,0,0,0-5.89356,7.30616,36.83815,36.83815,0,0,1-2.05176,3.395,37.88712,37.88712,0,0,0-2.23632,3.73144,11.9155,11.9155,0,0,0-1.24024,3.94483,9.65929,9.65929,0,0,0,.2002,3.23144,12.09152,12.09152,0,0,0,.875,2.59863,25.76724,25.76724,0,0,0,3.09375,4.68653c.44336.57373.88086,1.17773,1.32129,1.78662,1.51953,2.09961,3.09082,4.271,5.05761,5.31787,3.47656,1.85059,7.58789,3.49463,11.75391,1.66357a1.47886,1.47886,0,0,0,.167-.0664,25.359,25.359,0,0,0,4.26953-2.73194c.98633-.72656,2.00781-1.47754,3.06738-2.11279a15.96978,15.96978,0,0,1,1.44922-.76562l.22071-.105a25.93189,25.93189,0,0,1,4.39257-1.33643c.90918-.21875,1.85059-.44531,2.75489-.731a14.60221,14.60221,0,0,0,2.49414-1.03418,3.75206,3.75206,0,0,0,2.21582-2.97119v-.00146a5.46189,5.46189,0,0,0-.29785-1.63575l-.1045-.36914a26.52417,26.52417,0,0,1-.626-4.40429,15.98674,15.98674,0,0,0-1.19824-5.8125,11.653,11.653,0,0,0-2.67188-3.1875c-.58984-.54248-1.18555-1.09815-1.78613-1.65918C197.89586,72.78959,191.66539,66.97758,185.17223,66.97758Z" fill="#ab4004"/>
    <path d="M189.40977,67.6909v39.76c-4.23,1.86-8.32006.38-12.19006-1.68-2.65-1.41-4.52991-4.64-6.53992-7.24a26.01588,26.01588,0,0,1-3.15014-4.78,12.43337,12.43337,0,0,1-.90991-2.7,10.20053,10.20053,0,0,1-.21-3.4,12.40216,12.40216,0,0,1,1.29-4.11c1.25989-2.53,3.10987-4.81006,4.28992-7.13a20.27019,20.27019,0,0,1,6.03992-7.48,5.27629,5.27629,0,0,1,.49-.33Z" fill="#ab4004"/>
    <path d="M196.96959,73.34092v29.17c-2.51978,1.51-4.7898,3.67-7.33984,4.85a2.03425,2.03425,0,0,1-.22.09c-4.23,1.86-8.32006.38-12.19006-1.68-2.65-1.41-4.52991-4.64-6.53992-7.24a26.01588,26.01588,0,0,1-3.15014-4.78,12.43337,12.43337,0,0,1-.90991-2.7,10.20053,10.20053,0,0,1-.21-3.4,12.40216,12.40216,0,0,1,1.29-4.11l5.72-.29,4.03-8.58,11.96-.81Z" fill="#ff9e01"/>
    <path d="M185.391,108.78031a18.307,18.307,0,0,1-8.39454-2.58984c-2.167-1.15283-3.80468-3.417-5.38964-5.60693-.43457-.60059-.86524-1.19629-1.30274-1.76221A26.45675,26.45675,0,0,1,167.1,93.95414a12.83766,12.83766,0,0,1-.94531-2.80517,10.62573,10.62573,0,0,1-.21778-3.55176,12.89121,12.89121,0,0,1,1.33692-4.26709.474.474,0,0,1,.40137-.26367l5.43652-.27588,3.90723-8.32178a.47742.47742,0,0,1,.39843-.272l19.51953-1.33008a.45131.45131,0,0,1,.35645.12646.47526.47526,0,0,1,.15137.34766v29.16992a.47534.47534,0,0,1-.23145.40772c-1.02051.61132-2.02148,1.34863-2.99121,2.06152a26.434,26.434,0,0,1-4.39355,2.812,2.09966,2.09966,0,0,1-.28907.11572A10.15524,10.15524,0,0,1,185.391,108.78031ZM168.00426,84.0015a11.74518,11.74518,0,0,0-1.123,3.70411,9.65932,9.65932,0,0,0,.20215,3.23974,12.08482,12.08482,0,0,0,.87695,2.60352,25.71473,25.71473,0,0,0,3.0957,4.6914c.44336.57325.88086,1.17725,1.32129,1.78614,1.52051,2.10205,3.09375,4.27539,5.06641,5.32519,3.47949,1.85254,7.60156,3.50049,11.77441,1.66406a1.34462,1.34462,0,0,0,.167-.0664,25.33646,25.33646,0,0,0,4.27441-2.73487c.91406-.67285,1.85742-1.36718,2.834-1.9707V73.85014L177.76109,75.126l-3.91015,8.32714a.47691.47691,0,0,1-.40625.27247Z" fill="#ab4004"/>
    <path d="M205.67979,80.8209v18.8c-2.37011.75-4.84008,1.06-7.10009,2.05-.07007.03-.1399.07-.21.1a15.63827,15.63827,0,0,0-1.40015.74c-2.51978,1.51-4.7898,3.67-7.33984,4.85a2.03425,2.03425,0,0,1-.22.09c-4.23,1.86-8.32006.38-12.19006-1.68-2.65-1.41-4.52991-4.64-6.53992-7.24a26.01588,26.01588,0,0,1-3.15014-4.78,12.43337,12.43337,0,0,1-.90991-2.7l14.68994-.51,4.17-8.66,3.93005-.21,7.55982-.39Z" fill="#ff9e01"/>
    <path d="M185.391,108.78031a18.307,18.307,0,0,1-8.39454-2.58984c-2.167-1.15283-3.80468-3.417-5.38964-5.60693-.43457-.60059-.86524-1.19629-1.30274-1.76221A26.45675,26.45675,0,0,1,167.1,93.95414a12.83766,12.83766,0,0,1-.94531-2.80517.47549.47549,0,0,1,.44824-.57325l14.40332-.49951,4.04492-8.40137a.47787.47787,0,0,1,.40332-.26855l20.2002-1.06006a.467.467,0,0,1,.35254.12988.47511.47511,0,0,1,.14843.34473v18.7998a.476.476,0,0,1-.332.45313c-.93652.29639-1.89453.52686-2.82129.74951a24.86111,24.86111,0,0,0-4.23242,1.2832l-.21289.10108a15.17929,15.17929,0,0,0-1.34765.71338c-1.01661.60888-2.01758,1.34619-2.98731,2.05908a26.434,26.434,0,0,1-4.39355,2.812,2.09966,2.09966,0,0,1-.28907.11572A10.15524,10.15524,0,0,1,185.391,108.78031ZM167.21617,91.5059a12.14777,12.14777,0,0,0,.74414,2.043,25.71473,25.71473,0,0,0,3.0957,4.6914c.44336.57325.88086,1.17725,1.32129,1.78614,1.52051,2.10205,3.09375,4.27539,5.06641,5.32519,3.47949,1.85254,7.60156,3.50049,11.77441,1.66406a1.34462,1.34462,0,0,0,.167-.0664,25.33646,25.33646,0,0,0,4.27441-2.73487c.98633-.72607,2.00684-1.47656,3.06543-2.11132a16.16319,16.16319,0,0,1,1.44629-.76416l.2207-.1045a25.90543,25.90543,0,0,1,4.38867-1.33544c.79883-.19239,1.62305-.39014,2.42383-.6294V81.32182l-19.418,1.01855-4.04785,8.40674a.47679.47679,0,0,1-.41211.269Z" fill="#ab4004"/>
    <path d="M190.69273,93.82572a5.03838,5.03838,0,0,1-1.03808-.09863,4.64281,4.64281,0,0,0-1.00489-.084l-.01367-.84571a5.19782,5.19782,0,0,1,1.1709.09717,4.62347,4.62347,0,0,0,1.00488.084,4.3576,4.3576,0,0,0,1.001-.11767,5.17186,5.17186,0,0,1,1.16895-.13623,4.90823,4.90823,0,0,1,1.17187.09717,4.52021,4.52021,0,0,0,1.00488.084,4.36074,4.36074,0,0,0,1.00391-.11767,5.17423,5.17423,0,0,1,1.16992-.13624,5.10414,5.10414,0,0,1,1.17383.09717,4.56932,4.56932,0,0,0,1.00684.084l.01367.8457a4.93548,4.93548,0,0,1-1.17285-.09717,4.53569,4.53569,0,0,0-1.00782-.084,4.36071,4.36071,0,0,0-1.0039.11767,5.17378,5.17378,0,0,1-1.16992.13623,4.79883,4.79883,0,0,1-1.1709-.09716,5.04836,5.04836,0,0,0-2.00782.03369,5.16187,5.16187,0,0,1-1.168.13623C190.77965,93.82523,190.7357,93.82572,190.69273,93.82572Z" fill="#ab4004"/>
    <path d="M190.73473,96.05961a5.07654,5.07654,0,0,1-1.082-.10449,4.65221,4.65221,0,0,0-1.00488-.08985l-.00976-.8457a4.9292,4.9292,0,0,1,1.17089.104,5.25142,5.25142,0,0,0,1.00489.08985,4.364,4.364,0,0,0,1.00195-.11182,5.15026,5.15026,0,0,1,1.169-.12988,5.00386,5.00386,0,0,1,1.17089.104,5.07909,5.07909,0,0,0,1.00489.08985,4.37676,4.37676,0,0,0,1.0039-.11182,5.14134,5.14134,0,0,1,1.1709-.12939,5.39341,5.39341,0,0,1,1.17285.10351,4.64852,4.64852,0,0,0,1.00684.08985l.00976.8457a4.72235,4.72235,0,0,1-1.17285-.104,4.46654,4.46654,0,0,0-1.00683-.08935,4.39706,4.39706,0,0,0-1.00586.11182,5.15748,5.15748,0,0,1-1.169.12939,4.69188,4.69188,0,0,1-1.17187-.104,4.25085,4.25085,0,0,0-1.00391-.08985,4.3948,4.3948,0,0,0-1.00293.11182,5.11214,5.11214,0,0,1-1.168.12988C190.79332,96.05961,190.76305,96.05961,190.73473,96.05961Z" fill="#ab4004"/>
    <path d="M190.77476,98.29447a5.07463,5.07463,0,0,1-1.125-.11133,4.89848,4.89848,0,0,0-1.0039-.09521l-.00391-.8457a4.4606,4.4606,0,0,1,1.16992.11084,4.82188,4.82188,0,0,0,1.00391.09521,4.39061,4.39061,0,0,0,1.00293-.106,5.128,5.128,0,0,1,1.16895-.123,4.73048,4.73048,0,0,1,1.16992.11084,4.461,4.461,0,0,0,1.00488.09521,4.40441,4.40441,0,0,0,1.00488-.106,5.14774,5.14774,0,0,1,1.1709-.123,4.3143,4.3143,0,0,1,1.17188.11035,4.96141,4.96141,0,0,0,1.00683.0957l.00391.84571a4.97488,4.97488,0,0,1-1.17188-.11036,4.669,4.669,0,0,0-1.00683-.0957,4.39361,4.39361,0,0,0-1.00391.106,5.15126,5.15126,0,0,1-1.17187.12305,4.33615,4.33615,0,0,1-1.16993-.11084,5.28218,5.28218,0,0,0-1.00488-.09522,4.38057,4.38057,0,0,0-1.00195.106,5.13105,5.13105,0,0,1-1.16992.123Z" fill="#ab4004"/>
    <path d="M198.56344,86.3286a1.2298,1.2298,0,0,1-1.01174,1.33368,1.13684,1.13684,0,0,1-1.00663-1.26543,1.23225,1.23225,0,0,1,1.00663-1.33351C198.10984,85.04265,198.56344,85.6091,198.56344,86.3286Z" fill="#ab4004"/>
    <path d="M196.31293,90.59461c-.33387.00776-.56249-.42021-.44239-.82531a1.94983,1.94983,0,0,1,1.68116-1.53315,1.82853,1.82853,0,0,1,1.69548,1.44748c.12222.40262-.11032.84528-.44895.85315Z" fill="#ab4004"/>
    <line x1="143.64277" y1="94.9112" x2="170.31025" y2="90.64424" fill="#ab4004"/>
    <rect x="143.47296" y="91.5937" width="27.0072" height="2.36777" transform="translate(-12.71256 26.03237) rotate(-9.11268)" fill="#ffe8d8"/>
  </g>
</svg>
