<?xml version="1.0"?>
<svg xmlns="http://www.w3.org/2000/svg" viewBox="0 0 300 300">
  <g id="Layer_2" data-name="Layer 2">
    <rect x="32.38075" y="44.42662" width="208.19548" height="203.3311" rx="55.23808" fill="#ffe7d3"/>
    <rect x="47.82338" y="94.44639" width="41.96667" height="85.95339" fill="#ffc292"/>
    <path d="M89.79,181.39979H47.82322a.99974.99974,0,0,1-1-1V94.44617a.99974.99974,0,0,1,1-1H89.79a.99974.99974,0,0,1,1,1v85.95362A.99974.99974,0,0,1,89.79,181.39979Zm-40.96679-2H88.79V95.44617H48.82322Z" fill="#ec8e56"/>
    <polyline points="121.325 67.113 120.999 57.686 87.088 49.713 85.79 152.988 146.526 157.763" fill="#ffc292"/>
    <path d="M146.44822,158.75965l-60.73633-4.77442a1.0002,1.0002,0,0,1-.92188-1.00976L86.08787,49.69959a1.0002,1.0002,0,0,1,1.22851-.96094l33.91113,7.97315a1.00033,1.00033,0,0,1,.77051.939l.32617,9.42774-1.998.06933-.29981-8.66406-31.9541-7.5127L86.80173,152.06482l59.80274,4.70069Z" fill="#ec8e56"/>
    <polygon points="138.495 197.09 167.941 190.428 167.941 186.994 167.467 55.472 138.927 47.642 138.495 197.09" fill="#ffc292"/>
    <path d="M138.49509,198.08973a1.00069,1.00069,0,0,1-1-1.00293l.43164-149.44825a1,1,0,0,1,1.26465-.96142l28.54,7.83008a1.00074,1.00074,0,0,1,.73535.96093l.47461,131.52247v3.4375a1.00022,1.00022,0,0,1-.7793.97558l-29.44628,6.66162A1.02889,1.02889,0,0,1,138.49509,198.08973Zm1.42774-149.13819L139.499,195.83729l27.44238-6.208V186.994L166.4697,56.23475Z" fill="#ec8e56"/>
    <path d="M138.6904,146.15467a.24638.24638,0,0,1-.17187-.06885.25154.25154,0,0,1-.07813-.18213l.37793-98.19433a.25049.25049,0,0,1,.09864-.19825.25877.25877,0,0,1,.21777-.042l28.36328,7.8208a.24967.24967,0,0,1,.1836.24024l.31054,88.79589a.25027.25027,0,0,1-.23633.25049l-29.05175,1.57764Zm.627-98.11621-.376,97.60205,28.54981-1.55029-.3086-88.36866Z" fill="#ec8e56"/>
    <polygon points="167.557 99.673 138.853 96.438 138.91 95.941 167.613 99.176 167.557 99.673" fill="#ec8e56"/>
    <polygon points="167.655 121.997 138.778 121.14 138.794 120.64 167.671 121.497 167.655 121.997" fill="#ec8e56"/>
    <rect x="152.99145" y="60.0423" width="0.50045" height="29.06799" transform="translate(50.75394 210.74127) rotate(-78.98245)" fill="#ec8e56"/>
    <rect x="133.97966" y="61.55765" width="24.97617" height="0.5002" transform="translate(9.20349 142.00452) rotate(-53.17485)" fill="#ec8e56"/>
    <rect x="147.3235" y="133.15062" width="27.04923" height="0.50029" transform="translate(-35.56805 204.73496) rotate(-59.63086)" fill="#ec8e56"/>
    <path d="M138.90232,146.0365l-.42383-.26367L167.2949,99.41688,138.84958,47.83094l.4375-.24121,28.51661,51.71386a.24874.24874,0,0,1-.00684.25245Z" fill="#ec8e56"/>
    <polygon points="139.087 96.333 138.677 96.046 167.227 55.388 167.637 55.675 139.087 96.333" fill="#ec8e56"/>
    <rect x="153.06951" y="92.13178" width="0.4996" height="56.25672" transform="translate(-39.90412 95.0804) rotate(-30.68521)" fill="#ec8e56"/>
    <polygon points="167.377 121.869 138.841 71.683 139.276 71.436 167.812 121.622 167.377 121.869" fill="#ec8e56"/>
    <path d="M153.96091,145.32557a.25081.25081,0,0,1-.21191-.1167l-15.17481-24.05518a.2519.2519,0,0,1,.00293-.271l15.13282-22.94629V51.81678a.24973.24973,0,0,1,.4707-.1167l13.54785,25.65234a.25017.25017,0,0,1-.01172.2544L154.20994,98.08631l.001,46.98926a.24947.24947,0,0,1-.18066.24023A.25562.25562,0,0,1,153.96091,145.32557Zm-14.877-24.30225,14.627,23.1875V98.84461Zm15.126-68.19775V97.17811L167.21775,77.455Z" fill="#ec8e56"/>
    <path d="M138.61423,171.47547a.24809.24809,0,0,1-.16406-.06152.25212.25212,0,0,1-.08594-.18946l.09766-25.334a.25025.25025,0,0,1,.23633-.24854l29.04687-1.57568a.23542.23542,0,0,1,.18555.06787.24829.24829,0,0,1,.07812.18066l.08008,22.959a.25019.25019,0,0,1-.18066.24121.24383.24383,0,0,1-.26172-.08105l-28.998,4.03906A.25667.25667,0,0,1,138.61423,171.47547Zm.34668-25.34717-.0957,24.80957,28.72266-4.00049-.07813-22.35791Z" fill="#ec8e56"/>
    <polygon points="138.648 171.473 138.58 170.978 167.806 166.908 167.872 167.403 167.804 167.412 138.648 171.473" fill="#ec8e56"/>
    <polygon points="138.829 171.353 138.397 171.1 153.764 144.938 154.195 145.191 138.829 171.353" fill="#ec8e56"/>
    <rect x="146.0959" y="143.60466" width="0.50054" height="27.76798" transform="translate(-62.4873 106.41556) rotate(-33.35754)" fill="#ec8e56"/>
    <rect x="146.6977" y="156.4503" width="28.34381" height="0.50053" transform="translate(-54.24875 221.18461) rotate(-60.93454)" fill="#ec8e56"/>
    <rect x="138.53267" y="170.92168" width="0.50004" height="0.29458" transform="translate(-72.52216 108.81555) rotate(-34.53298)" fill="#ec8e56"/>
    <path d="M153.73044,169.08533l-.001-24.022a.25034.25034,0,0,1,.18164-.24023.24588.24588,0,0,1,.28027.10791L168.05173,167.143l-.42578.26367-.06836-.11035-13.32812-21.35986.001,23.14892Z" fill="#ec8e56"/>
    <path d="M138.6904,146.15467a.24638.24638,0,0,1-.17187-.06885.25154.25154,0,0,1-.07813-.18213l.37793-98.19433a.25049.25049,0,0,1,.09864-.19825.25877.25877,0,0,1,.21777-.042l28.36328,7.8208a.24967.24967,0,0,1,.1836.24024l.31054,88.79589a.25027.25027,0,0,1-.23633.25049l-29.05175,1.57764Zm.627-98.11621-.376,97.60205,28.54981-1.55029-.3086-88.36866Z" fill="#ec8e56"/>
    <polygon points="167.557 99.673 138.853 96.438 138.91 95.941 167.613 99.176 167.557 99.673" fill="#ec8e56"/>
    <polygon points="167.655 121.997 138.778 121.14 138.794 120.64 167.671 121.497 167.655 121.997" fill="#ec8e56"/>
    <rect x="152.99145" y="60.0423" width="0.50045" height="29.06799" transform="translate(50.75394 210.74127) rotate(-78.98245)" fill="#ec8e56"/>
    <rect x="133.97966" y="61.55765" width="24.97617" height="0.5002" transform="translate(9.20349 142.00452) rotate(-53.17485)" fill="#ec8e56"/>
    <rect x="147.3235" y="133.15062" width="27.04923" height="0.50029" transform="translate(-35.56805 204.73496) rotate(-59.63086)" fill="#ec8e56"/>
    <path d="M138.90232,146.0365l-.42383-.26367L167.2949,99.41688,138.84958,47.83094l.4375-.24121,28.51661,51.71386a.24874.24874,0,0,1-.00684.25245Z" fill="#ec8e56"/>
    <polygon points="139.087 96.333 138.677 96.046 167.227 55.388 167.637 55.675 139.087 96.333" fill="#ec8e56"/>
    <rect x="153.06951" y="92.13178" width="0.4996" height="56.25672" transform="translate(-39.90412 95.0804) rotate(-30.68521)" fill="#ec8e56"/>
    <polygon points="167.377 121.869 138.841 71.683 139.276 71.436 167.812 121.622 167.377 121.869" fill="#ec8e56"/>
    <path d="M153.96091,145.32557a.25081.25081,0,0,1-.21191-.1167l-15.17481-24.05518a.2519.2519,0,0,1,.00293-.271l15.13282-22.94629V51.81678a.24973.24973,0,0,1,.4707-.1167l13.54785,25.65234a.25017.25017,0,0,1-.01172.2544L154.20994,98.08631l.001,46.98926a.24947.24947,0,0,1-.18066.24023A.25562.25562,0,0,1,153.96091,145.32557Zm-14.877-24.30225,14.627,23.1875V98.84461Zm15.126-68.19775V97.17811L167.21775,77.455Z" fill="#ec8e56"/>
    <path d="M138.61423,171.47547a.24809.24809,0,0,1-.16406-.06152.25212.25212,0,0,1-.08594-.18946l.09766-25.334a.25025.25025,0,0,1,.23633-.24854l29.04687-1.57568a.23542.23542,0,0,1,.18555.06787.24829.24829,0,0,1,.07812.18066l.08008,22.959a.25019.25019,0,0,1-.18066.24121.24383.24383,0,0,1-.26172-.08105l-28.998,4.03906A.25667.25667,0,0,1,138.61423,171.47547Zm.34668-25.34717-.0957,24.80957,28.72266-4.00049-.07813-22.35791Z" fill="#ec8e56"/>
    <polygon points="138.648 171.473 138.58 170.978 167.806 166.908 167.872 167.403 167.804 167.412 138.648 171.473" fill="#ec8e56"/>
    <polygon points="138.829 171.353 138.397 171.1 153.764 144.938 154.195 145.191 138.829 171.353" fill="#ec8e56"/>
    <rect x="146.0959" y="143.60466" width="0.50054" height="27.76798" transform="translate(-62.4873 106.41556) rotate(-33.35754)" fill="#ec8e56"/>
    <rect x="146.6977" y="156.4503" width="28.34381" height="0.50053" transform="translate(-54.24875 221.18461) rotate(-60.93454)" fill="#ec8e56"/>
    <rect x="138.53267" y="170.92168" width="0.50004" height="0.29458" transform="translate(-72.52216 108.81555) rotate(-34.53298)" fill="#ec8e56"/>
    <path d="M153.73044,169.08533l-.001-24.022a.25034.25034,0,0,1,.18164-.24023.24588.24588,0,0,1,.28027.10791L168.05173,167.143l-.42578.26367-.06836-.11035-13.32812-21.35986.001,23.14892Z" fill="#ec8e56"/>
    <path d="M138.51267,197.2699a.25063.25063,0,0,1-.25-.251l.09863-25.6626a.24892.24892,0,0,1,.21582-.24658l29.23047-4.08448a.27.27,0,0,1,.19824.0586.24826.24826,0,0,1,.08594.188l.082,23.22753a.24973.24973,0,0,1-.42773.17627l-29.17871,6.58789A.22619.22619,0,0,1,138.51267,197.2699Zm.34766-25.69482-.09668,25.13183,28.90918-6.52734-.08008-22.61963Z" fill="#ec8e56"/>
    <rect x="167.85359" y="190.13716" width="0.07012" height="0.49986" transform="translate(-38.18587 42.17394) rotate(-12.86877)" fill="#ec8e56"/>
    <rect x="130.33713" y="182.86583" width="31.82081" height="0.50053" transform="translate(-84.85618 221.98661) rotate(-60.93454)" fill="#ec8e56"/>
    <rect x="146.0452" y="168.95478" width="0.4994" height="26.9757" transform="translate(-77.87327 115.83823) rotate(-34.72736)" fill="#ec8e56"/>
    <rect x="146.06946" y="180.15013" width="29.68622" height="0.49931" transform="translate(-73.78218 238.32485) rotate(-62.13186)" fill="#ec8e56"/>
    <rect x="138.43174" y="196.70373" width="0.50072" height="0.28615" transform="translate(-89.39064 119.61849) rotate(-36.12787)" fill="#ec8e56"/>
    <path d="M153.72849,193.52772l-.001-24.31739a.25.25,0,0,1,.459-.1372l13.87695,21.18505-.418.27344-13.418-20.48389.001,23.48Z" fill="#ec8e56"/>
    <path d="M138.51267,197.2699a.25063.25063,0,0,1-.25-.251l.09863-25.6626a.24892.24892,0,0,1,.21582-.24658l29.23047-4.08448a.27.27,0,0,1,.19824.0586.24826.24826,0,0,1,.08594.188l.082,23.22753a.24973.24973,0,0,1-.42773.17627l-29.17871,6.58789A.22619.22619,0,0,1,138.51267,197.2699Zm.34766-25.69482-.09668,25.13183,28.90918-6.52734-.08008-22.61963Z" fill="#ec8e56"/>
    <rect x="167.85359" y="190.13716" width="0.07012" height="0.49986" transform="translate(-38.18587 42.17394) rotate(-12.86877)" fill="#ec8e56"/>
    <rect x="130.33713" y="182.86583" width="31.82081" height="0.50053" transform="translate(-84.85618 221.98661) rotate(-60.93454)" fill="#ec8e56"/>
    <rect x="146.0452" y="168.95478" width="0.4994" height="26.9757" transform="translate(-77.87327 115.83823) rotate(-34.72736)" fill="#ec8e56"/>
    <rect x="146.06946" y="180.15013" width="29.68622" height="0.49931" transform="translate(-73.78218 238.32485) rotate(-62.13186)" fill="#ec8e56"/>
    <rect x="138.43174" y="196.70373" width="0.50072" height="0.28615" transform="translate(-89.39064 119.61849) rotate(-36.12787)" fill="#ec8e56"/>
    <path d="M153.72849,193.52772l-.001-24.31739a.25.25,0,0,1,.459-.1372l13.87695,21.18505-.418.27344-13.418-20.48389.001,23.48Z" fill="#ec8e56"/>
    <polyline points="120.521 66.871 153.788 75.03 153.783 188.093" fill="#ffc292"/>
    <path d="M154.7822,188.09363h-2l.00586-112.27978L120.2822,67.84217l.47656-1.94238,33.26758,8.15869a1.00012,1.00012,0,0,1,.76172.97119Z" fill="#ec8e56"/>
    <path d="M119.55173,146.20105h-.00293l-32.90625-.36572a.24945.24945,0,0,1-.24707-.251l.418-96.86817a.24916.24916,0,0,1,.09668-.19629.26019.26019,0,0,1,.21387-.04541l.18945.04737,17.24414,4.22753a.23982.23982,0,0,1,.03321.01026l15.98925,3.9209a.25059.25059,0,0,1,.19043.2456l-.96875,89.02783a.25.25,0,0,1-.25.24707Zm-32.65527-.86279,32.4082.35987.96387-88.57911-15.83008-3.88183a.23792.23792,0,0,1-.0332-.01026L87.31248,49.0365Zm17.15234-45.29053-.01172-.00048a.24767.24767,0,0,1-.19824-.11475L95.541,86.996a.248.248,0,0,1,.01758-.294l8.56348-10.35058a.24844.24844,0,0,1,.18066-.09034.24471.24471,0,0,1,.18848.07276l.00195.00195a.24629.24629,0,0,1,.07324.17871l-.18066,23.17481a.24783.24783,0,0,1-.05371.15283l-.08692.11035A.25137.25137,0,0,1,104.0488,100.04773Zm-7.98925-13.168,7.83105,12.208.16992-21.87841Z" fill="#ec8e56"/>
    <polygon points="120.001 102.078 86.821 97.863 86.884 97.367 120.063 101.582 120.001 102.078" fill="#ec8e56"/>
    <polygon points="120.227 79.721 120.146 79.705 86.911 73.528 87.005 73.037 87.099 73.055 120.322 79.23 120.227 79.721" fill="#ec8e56"/>
    <polygon points="119.772 124.237 86.73 121.964 86.766 121.465 119.808 123.738 119.772 124.237" fill="#ec8e56"/>
    <rect x="98.26515" y="134.632" width="27.03899" height="0.49944" transform="translate(-63.10405 145.02228) rotate(-53.66786)" fill="#ec8e56"/>
    <rect x="82.26868" y="62.8885" width="26.82489" height="0.5006" transform="translate(-14.63867 94.29851) rotate(-49.19261)" fill="#ec8e56"/>
    <path d="M119.3447,146.09119,86.64548,97.75477a.24861.24861,0,0,1,.01465-.29932L95.55857,86.702l.38476.31836L87.165,97.62977l32.59375,48.18115Z" fill="#ec8e56"/>
    <path d="M104.31638,76.75818l-.00195-.24853-.25.001a.24961.24961,0,0,1,.07031-.17432L120.3281,56.764l.38477.31836-16.20411,19.585A.24849.24849,0,0,1,104.31638,76.75818Z" fill="#ec8e56"/>
    <rect x="75.81954" y="123.45739" width="55.03861" height="0.50099" transform="translate(-57.69174 130.89889) rotate(-52.68336)" fill="#ec8e56"/>
    <polygon points="104.102 76.639 86.945 48.741 87.373 48.481 87.467 48.635 104.526 76.377 104.102 76.639" fill="#ec8e56"/>
    <rect x="111.88325" y="74.30154" width="0.50004" height="29.84688" transform="translate(-30.12237 71.95362) rotate(-31.58699)" fill="#ec8e56"/>
    <rect x="91.15185" y="72.02543" width="0.49898" height="16.11102" transform="translate(-28.7707 62.02987) rotate(-32.68055)" fill="#ec8e56"/>
    <path d="M119.5,124.35l-.15723-.24609-15.50391-24.169a.24638.24638,0,0,1-.04-.13525l.252-.001.208-.13428.08594.1333,15.57324,24.27784Z" fill="#ec8e56"/>
    <path d="M104.0488,100.04773l-.01172-.00048a.24767.24767,0,0,1-.19824-.11475L95.541,86.996a.248.248,0,0,1,.01758-.294l8.56348-10.35058a.24844.24844,0,0,1,.18066-.09034.24471.24471,0,0,1,.18848.07276.25258.25258,0,0,1,.07519.18066l-.18066,23.17481a.24783.24783,0,0,1-.05371.15283l-.08692.11035A.25137.25137,0,0,1,104.0488,100.04773Zm-7.98925-13.168,7.83105,12.208.16992-21.87841Z" fill="#ec8e56"/>
    <rect x="92.64843" y="64.50293" width="23.51755" height="0.50001" transform="translate(38.84991 168.65696) rotate(-89.55752)" fill="#ec8e56"/>
    <path d="M103.77927,146.02527a.24882.24882,0,0,1-.2041-.106L86.5449,121.73279a.24911.24911,0,0,1,.00879-.2998l17.2998-21.78858.05469.04346h.47754l-.001.24707-.35547,45.84229a.25013.25013,0,0,1-.17578.23681A.26043.26043,0,0,1,103.77927,146.02527ZM87.0615,121.59705l16.47363,23.39746.3457-44.58154Z" fill="#ec8e56"/>
    <path d="M104.331,99.84314l-.39063-.31054,16.03125-20.19434L104.28318,53.12293a.25756.25756,0,0,1-.03516-.12842l.252-.00146.21289-.127,15.77734,26.36426a.24964.24964,0,0,1-.01953.28467l-.08106.10107Z" fill="#ec8e56"/>
    <path d="M152.81931,164.3075h-.00293l-32.90625-.36572a.24945.24945,0,0,1-.24707-.251l.418-96.86816a.24915.24915,0,0,1,.09668-.19629.257.257,0,0,1,.21387-.04541l.18945.04736,17.24414,4.22754a.23924.23924,0,0,1,.0332.01025l15.98926,3.9209a.25061.25061,0,0,1,.19043.24561l-.96875,89.02783a.25005.25005,0,0,1-.25.24707Zm-32.65527-.86279,32.4082.35986.96387-88.5791L137.706,71.34363a.2379.2379,0,0,1-.0332-.01025L120.58005,67.143Zm17.15234-45.29053-.01172-.00049a.24766.24766,0,0,1-.19824-.11474l-8.29785-12.937a.248.248,0,0,1,.01758-.29394l8.56445-10.3501a.24843.24843,0,0,1,.18066-.09033.2327.2327,0,0,1,.18848.07275l.00195.002a.24629.24629,0,0,1,.07325.17871l-.18164,23.1748a.2478.2478,0,0,1-.05372.15283l-.08691.11036A.25142.25142,0,0,1,137.31638,118.15418Zm-7.98926-13.16846,7.83106,12.2085.1709-21.87842Z" fill="#ec8e56"/>
    <polygon points="153.269 120.184 120.089 115.97 120.151 115.474 153.331 119.688 153.269 120.184" fill="#ec8e56"/>
    <polygon points="153.494 97.828 153.414 97.812 120.179 91.635 120.272 91.143 120.366 91.162 153.59 97.336 153.494 97.828" fill="#ec8e56"/>
    <polygon points="153.041 142.343 119.998 140.071 120.033 139.572 153.076 141.844 153.041 142.343" fill="#ec8e56"/>
    <rect x="131.53292" y="152.73845" width="27.03957" height="0.49944" transform="translate(-64.13263 179.20191) rotate(-53.66786)" fill="#ec8e56"/>
    <rect x="115.53707" y="80.99495" width="26.82425" height="0.5006" transform="translate(-16.81686 125.75302) rotate(-49.19261)" fill="#ec8e56"/>
    <path d="M152.61228,164.19764l-15.5791-23.03076a.18449.18449,0,0,1-.0166-.022L119.914,115.86121a.24861.24861,0,0,1,.01465-.29932l8.89746-10.7539.38476.31836-8.77734,10.60986L137.416,140.84266a.18438.18438,0,0,1,.0166.022l15.59375,23.05273Z" fill="#ec8e56"/>
    <path d="M137.58494,94.86463l-.002-.24854-.25.001a.25311.25311,0,0,1,.06934-.17432l16.19336-19.57226.38476.31836-16.20312,19.585A.24852.24852,0,0,1,137.58494,94.86463Z" fill="#ec8e56"/>
    <rect x="109.08712" y="141.56384" width="55.03861" height="0.50099" transform="translate(-58.99162 164.48648) rotate(-52.68336)" fill="#ec8e56"/>
    <path d="M137.583,94.86463a.25314.25314,0,0,1-.21484-.11914L120.21287,66.84656l.42773-.25976.09375.15429L137.7822,94.46424a.246.246,0,0,1,.05078.15039l-.25.00146Z" fill="#ec8e56"/>
    <polygon points="153.004 120.174 152.926 120.045 137.372 94.75 137.798 94.488 153.432 119.914 153.004 120.174" fill="#ec8e56"/>
    <rect x="124.41943" y="90.13184" width="0.49898" height="16.11061" transform="translate(-33.28103 82.86176) rotate(-32.68149)" fill="#ec8e56"/>
    <path d="M152.76951,142.45789l-.15918-.24707-15.50391-24.16943a.24633.24633,0,0,1-.04-.13526l.25195-.001.208-.13428.08594.1333,15.57324,24.27637Z" fill="#ec8e56"/>
    <path d="M137.31638,118.15418l-.01172-.00049a.24766.24766,0,0,1-.19824-.11474l-8.29785-12.937a.248.248,0,0,1,.01758-.29394l8.56445-10.3501a.24843.24843,0,0,1,.18066-.09033.2327.2327,0,0,1,.18848.07275.25266.25266,0,0,1,.0752.18067l-.18164,23.1748a.2478.2478,0,0,1-.05372.15283l-.08691.11036A.25142.25142,0,0,1,137.31638,118.15418Zm-7.98926-13.16846,7.83106,12.2085.1709-21.87842Z" fill="#ec8e56"/>
    <rect x="125.9165" y="82.60937" width="23.51754" height="0.50001" transform="translate(53.76084 219.89414) rotate(-89.5599)" fill="#ec8e56"/>
    <path d="M137.04685,164.13172a.24883.24883,0,0,1-.2041-.106l-17.0293-24.187a.24839.24839,0,0,1,.00879-.29932l17.29883-21.78857.05371.043h.47852l-.001.24756-.35547,45.84228a.25016.25016,0,0,1-.17578.23682A.26089.26089,0,0,1,137.04685,164.13172ZM120.33005,139.704l16.47266,23.397.3457-44.58155Z" fill="#ec8e56"/>
    <path d="M137.59861,117.9491l-.39063-.31055,16.03223-20.19482L137.55076,71.22938a.25622.25622,0,0,1-.03516-.12842l.25195-.00147.21289-.127L153.75876,97.3368a.25033.25033,0,0,1-.0205.28613l-.082.10107Z" fill="#ec8e56"/>
    <path d="M166.303,252.43275c-5.42616,1.13556-24.80158,7.83068-34.38284,11.19152,4.10081-2.39151,6.06655-8.82724,6.2678-18.56664.32525-15.74664-7.5491-33.564-13.065-38.858C121.40487,202.63,77.0389,177.2462,52.031,163.06817V146.88143l8.245,3.10557,14.91881,5.61948L119.55131,172.31l35.29456,13.29247,11.0266,4.152c.29047.11091.579.229.86575.352,10.18484,4.35221,17.54079,15.66379,18.06988,28.29513C185.41054,232.73708,182.27931,249.09018,166.303,252.43275Z" fill="#ffe8d8"/>
    <path d="M201.34825,134.75975c-12.18879,5.1886-36.38828,17.94458-53.83951,42.89771-1.98421,2.83717.08049,6.78654,2.89775,5.54267,14.01183-6.18646,37.61369-16.49217,61.10993-29.45047,3.32644-1.83455,7.97335-8.07175,6.34643-11.82351C214.80988,134.8859,207.87679,131.98064,201.34825,134.75975Z" fill="#ab4004"/>
    <path d="M149.35544,184.433a3.3399,3.3399,0,0,1-2.60254-1.2793,5.10084,5.10084,0,0,1-.06347-6.06933c17.45312-24.95655,41.49219-37.80664,54.26758-43.24463h0c7.08789-3.01807,14.583.21679,17.82324,7.68847,1.92383,4.43653-3.249,11.14893-6.78027,13.09717-22.59668,12.46192-45.67579,22.64453-59.46485,28.728l-1.72461.76172A3.605,3.605,0,0,1,149.35544,184.433Zm57.00977-49.73194a11.78958,11.78958,0,0,0-4.625.97852c-12.57813,5.354-36.24316,18.00147-53.41211,42.55127a3.11533,3.11533,0,0,0-.03027,3.65283,1.34264,1.34264,0,0,0,1.7041.40186l1.72558-.76172c13.75977-6.0708,36.78809-16.231,59.30567-28.64942,3.18359-1.75634,7.22754-7.51757,5.91308-10.55029C214.83494,137.45789,210.81443,134.70105,206.36521,134.70105Z" fill="#ab4004"/>
    <polygon points="86.598 48.636 86.598 145.585 82 145.396 82 92.945 67.144 92.532 67.61 66.681 86.598 48.636" fill="#ec8e56"/>
    <path d="M86.59763,146.08533l-.02051-.00049-4.59765-.18945a.50008.50008,0,0,1-.47949-.49951V93.431l-14.37012-.39942a.50037.50037,0,0,1-.48633-.50879l.4668-25.85107a.503.503,0,0,1,.15527-.35352L86.2529,48.27381a.50006.50006,0,0,1,.84473.3623v96.94922a.49906.49906,0,0,1-.5.5ZM82.5,144.9159l3.59765.14844V49.80115L68.10642,66.89881l-.4541,25.147,14.36133.39893a.50079.50079,0,0,1,.48633.5Z" fill="#ec8e56"/>
    <path d="M75.19481,141.09272v4.0213l-13.47954-.5576-1.43927-.14426V139.6748a18.20036,18.20036,0,0,0-3.51132-11.14917,10.41071,10.41071,0,0,1,4.54045-2.72115,8.8694,8.8694,0,0,1,2.12107-.3215C69.73416,125.315,75.19481,132.14609,75.19481,141.09272Z" fill="#ec8e56"/>
    <polygon points="145.857 148.037 145.875 148.917 154.846 148.41 145.857 148.037 145.857 148.037" fill="#c0512c"/>
    <polygon points="104.737 138.696 104.737 148.871 89.79 147.331 90.11 139.237 104.737 138.696" fill="#ff9e01"/>
    <path d="M105.7363,149.97938l-16.98242-1.75.39258-9.957,16.58984-.61425ZM90.82615,146.4325l12.91015,1.33008v-8.0293l-12.66406.46875Z" fill="#ab4004"/>
    <path d="M136.792,231.98328a.18457.18457,0,0,1-.04981-.3623l48.0166-13.397a.18458.18458,0,0,1,.09961.35547l-48.0166,13.397A.19445.19445,0,0,1,136.792,231.98328Z" fill="#c0512c"/>
    <polygon points="138.198 47.177 138.198 71.151 138.129 71.134 120.535 66.924 120.55 61.584 138.198 47.177" fill="#ec8e56"/>
    <path d="M138.19724,71.65125a.522.522,0,0,1-.125-.01562l-17.65332-4.2251a.49993.49993,0,0,1-.38379-.4878l.01465-5.33984a.49775.49775,0,0,1,.18359-.38574l17.64746-14.40772a.50024.50024,0,0,1,.81641.38721V71.15125a.49983.49983,0,0,1-.5.5Zm-17.16113-5.12109,16.66113,3.98632V48.23035L121.0488,61.82215Z" fill="#ec8e56"/>
    <polygon points="91.834 147.537 91.691 147.533 91.965 139.889 92.034 139.89 103.27 140.004 103.269 140.147 92.102 140.033 91.834 147.537" fill="#ebcebe"/>
    <polygon points="93.655 147.725 93.513 147.721 93.738 139.98 93.881 139.984 93.655 147.725" fill="#ebcebe"/>
    <polygon points="95.559 147.921 95.416 147.918 95.593 140.002 95.735 140.005 95.559 147.921" fill="#ebcebe"/>
    <polygon points="97.549 148.126 97.406 148.124 97.529 140.025 97.672 140.027 97.549 148.126" fill="#ebcebe"/>
    <rect x="95.44882" y="144.12366" width="8.2898" height="0.14258" transform="translate(-45.27998 242.79873) rotate(-89.60757)" fill="#ebcebe"/>
    <rect x="101.67478" y="140.07557" width="0.14258" height="8.48926" fill="#ebcebe"/>
    <polygon points="103.157 138.696 100.261 138.83 100.361 147.871 89.79 147.331 100.266 148.41 103.157 148.856 103.157 138.696" fill="#c0512c"/>
    <path d="M225.90224,239.75425c-27.064-7.02009-44.62588-51.01239-43.25747-78.3597a44.25283,44.25283,0,0,1,5.74617-20.07237c2.89966-5.33108,5.66067-6.84976,5.66067-6.84976.46751-.03,1.08174-.1091,1.81839-.23447,5.52108-.94137,18.09469-4.56924,27.51468-10.15315q.67308-.39831,1.32484-.81158a48.52589,48.52589,0,0,1,13.41618.99736c14.18953,3.13805,25.97033,13.05157,29.593,30.30283C275.20639,190.22924,254.92883,247.28324,225.90224,239.75425Z" fill="#ec8e56"/>
    <path d="M242.84431,217.84c-25.77,11.57-44.94995-28.27-46.51-50.58-.34986-4.95,1.8-11.91,5.19018-17.03a66.28553,66.28553,0,0,0,16.48-3.13c15.73975-4.86,24.55982-12.07,24.81983-17.26a23.37718,23.37718,0,0,1,19.20019,18.74C265.50446,167.04,269.30427,205.97,242.84431,217.84Z" fill="#ffe8d8"/>
    <path d="M268.99039,160.08562c1.01442,11.75016-2.9055,21.51561-8.69256,21.77965-5.71614.2608-11.08247-8.8695-12.0468-20.36238-.96176-11.46225,2.80371-21.14538,8.47034-21.66119C262.458,139.31953,267.97874,148.36749,268.99039,160.08562Z" fill="#ab4004"/>
    <path d="M229.78425,130.73l-.11988.12c-2.3601,2.39-6.99,5.14-13.68994,7.59-13.34008,4.88-22.13012,3.84-20.66015-.38a1.73,1.73,0,0,0,.10009-.54,10.77322,10.77322,0,0,1,3.54-4.15c.32007-.05.74-.14,1.24-.26a75.64708,75.64708,0,0,0,18.12989-7.37c.28-.17.56006-.35.84008-.52a40.22569,40.22569,0,0,1,8.92994-.36c.46.17.8601.31,1.18017.42C232.07429,126.18,232.16437,128.25,229.78425,130.73Z" fill="#ab4004"/>
    <path d="M261.8559,257.65888c3.7615,4.5615-.27023,10.46321-11.34426,13.55709-14.47926,4.04524-33.42369,1.63174-37.38731-6.05379-3.6482-7.07395,8.65778-13.26489,23.24108-14.09453C247.855,250.414,258.28567,253.32932,261.8559,257.65888Z" fill="#ffe7d3"/>
    <path d="M255.76423,214.21c-3.72,9.35-10.8999,24.09-21.57984,25.92,10.73-2.65,17.24-16.68,20.8899-26.18,8.77-23.23,13.46-65.23-11.41993-80-2.48-1.59-5.43994-1.89-8.29-2.35-1.8-.34-3.81006-.52-5.7-.75l.11988-.12c1.87011.22,3.74023.45,5.6001.72,2.87988.44,5.85986.72,8.37988,2.31C268.91437,148.4,264.63435,190.8,255.76423,214.21Z" fill="#ab4004"/>
    <path d="M231.04587,241.42225a21.42905,21.42905,0,0,1-5.39453-.7002c-12.57715-3.26221-24.27441-14.65478-32.93554-32.07959-7.53028-15.14844-11.77149-33.272-11.07032-47.29785a45.193,45.193,0,0,1,5.86621-20.50049c3.00586-5.52441,5.93457-7.18017,6.05762-7.24756a1.00705,1.00705,0,0,1,.418-.12207c.43457-.02783,1.01172-.103,1.71582-.22217A92.48668,92.48668,0,0,0,222.875,123.22449c.43945-.26074.875-.52685,1.2998-.79638a1.00415,1.00415,0,0,1,.47461-.15284,49.5,49.5,0,0,1,13.69238,1.01856c15.88184,3.51269,26.94629,14.83887,30.35547,31.07422,5.57813,26.56445-3.94726,63.62549-20.38379,79.31054C242.94626,238.80018,237.06052,241.42225,231.04587,241.42225Zm-4.89257-2.63575c7.25488,1.88135,14.248-.32226,20.77929-6.55468,16.00781-15.27588,25.26367-51.46875,19.80762-77.45264-3.24121-15.43311-13.749-26.19727-28.83008-29.53223a47.296,47.296,0,0,0-12.88476-.99023q-.55811.34863-1.13086.68848a94.817,94.817,0,0,1-27.85645,10.2788c-.64453.10938-1.20117.18506-1.66113.22608-.5957.40771-2.80176,2.11084-5.1084,6.3501a43.306,43.306,0,0,0-5.625,19.644C182.32419,187.80652,199.59373,231.89734,226.1533,238.7865Z" fill="#ab4004"/>
    <path d="M138.188,245.05763,167.8341,237.364s-1.09588-28.29544-26.69579-35.33671l-21.587-6.96184,35.29456-6.10043v-3.36258s11.276,4.1883,12.36634,4.7133,4.82874,2.21843,6.84342,4.47225l4.39554,41.99006s1.3986,5.83719,1.39073,6.43729-2.45089,4.874-9.77182,8.10493l-39.487,12.77427S137.8688,263.26926,138.188,245.05763Z" fill="#ec8e56"/>
    <path d="M182.99045,157.56524c2.34044,15.04364,32.60882,8.63728,42.575,5.42341a75.57123,75.57123,0,0,0,21.32439-10.14033c5.76635-4.202,13.78464-11.73526,9.24286-19.3611,4.75526,7.61511-3.24788,15.38374-9.04794,19.63048a75.8758,75.8758,0,0,1-21.37095,10.34723c-10.08063,3.16282-40.60418,9.43593-42.72339-5.89969Z" fill="#ab4004"/>
    <path d="M182.99045,157.20588c2.34775,15.55811,34.62209,8.41519,44.7457,4.89584a82.75182,82.75182,0,0,0,15.11319-6.76289,76.75992,76.75992,0,0,1-15.05981,6.92024c-10.06954,3.65162-42.63005,10.703-44.79908-5.05319Z" fill="#fff"/>
    <path d="M245.04685,263.81189a2.63058,2.63058,0,0,1-2.62793-2.62744V246.06336a.5.5,0,0,1,1,0v15.12109a1.62793,1.62793,0,0,0,3.25586,0v-4.72754a.5.5,0,0,1,1,0v4.72754A2.63058,2.63058,0,0,1,245.04685,263.81189Z" fill="#ab4004"/>
    <path d="M230.65818,263.81189a2.63058,2.63058,0,0,1-2.62793-2.62744v-4.72754a.5.5,0,0,1,1,0v4.72754a1.62793,1.62793,0,0,0,3.25586,0V246.06336a.5.5,0,0,1,1,0v15.12109A2.63058,2.63058,0,0,1,230.65818,263.81189Z" fill="#ab4004"/>
    <path d="M237.92185,253.9823a.49971.49971,0,0,1-.5-.5v-7.28857a.5.5,0,0,1,1,0v7.28857A.49971.49971,0,0,1,237.92185,253.9823Z" fill="#ab4004"/>
    <path d="M163.82793,198.27066l10.20565,46.8199c.00335.01539.02247.01522.02247-.00021V195.82677Z" fill="#ab4004"/>
    <path d="M213.815,168.29793a.57121.57121,0,0,0,0-1.14174.57121.57121,0,0,0,0,1.14174Z" fill="#ab4004"/>
    <path d="M228.10632,165.12207a.57121.57121,0,0,0,0-1.14173.57121.57121,0,0,0,0,1.14173Z" fill="#ab4004"/>
    <path d="M227.01462,161.35074a.57121.57121,0,0,0,0-1.14173.57121.57121,0,0,0,0,1.14173Z" fill="#ab4004"/>
    <path d="M213.31874,164.72509a.57121.57121,0,0,0,0-1.14173.57121.57121,0,0,0,0,1.14173Z" fill="#ab4004"/>
    <path d="M240.61125,155.69375a.57121.57121,0,0,0,0-1.14173.57121.57121,0,0,0,0,1.14173Z" fill="#ab4004"/>
    <path d="M242.6954,158.47263a.57121.57121,0,0,0,0-1.14174.57121.57121,0,0,0,0,1.14174Z" fill="#c0512c"/>
    <path d="M250.36663,148.78449a.57121.57121,0,0,0,0-1.14174.57121.57121,0,0,0,0,1.14174Z" fill="#c0512c"/>
    <path d="M248.87425,139.80979a.57121.57121,0,0,0,0-1.14173.57121.57121,0,0,0,0,1.14173Z" fill="#c0512c"/>
    <path d="M250.4378,137.6944a.57121.57121,0,0,0,0-1.14174.57121.57121,0,0,0,0,1.14174Z" fill="#c0512c"/>
    <path d="M254.70022,147.685a.57121.57121,0,0,0,0-1.14174.57121.57121,0,0,0,0,1.14174Z" fill="#c0512c"/>
    <path d="M125.123,206.38416a.1846.1846,0,0,1-.03808-.36523l48.93261-10.37305a.188.188,0,0,1,.21875.14258.18548.18548,0,0,1-.14257.21875l-48.93262,10.373A.201.201,0,0,1,125.123,206.38416Z" fill="#c0512c"/>
    <path d="M135.88181,258.98133a.18447.18447,0,0,1-.05566-.36035l42.86621-13.69483a.18439.18439,0,1,1,.11133.35157l-42.86621,13.69482A.184.184,0,0,1,135.88181,258.98133Z" fill="#c0512c"/>
    <path d="M100.61326,191.16688a.18451.18451,0,0,1-.01758-.36817l9.41015-.876a.18161.18161,0,0,1,.20118.16651.18416.18416,0,0,1-.166.20068l-9.41016.876Z" fill="#c0512c"/>
    <polygon points="151.355 227.735 152.785 228.764 166.716 225.1 167.834 223.137 151.355 227.735" fill="#c0512c"/>
    <polygon points="152.875 253.482 154.297 253.888 168.676 249.438 169.354 248.103 152.875 253.482" fill="#c0512c"/>
    <polygon points="144.374 202.22 145.735 203.338 159.873 200.576 161.114 198.689 144.374 202.22" fill="#c0512c"/>
    <path d="M173.48923,195.80311a23.17308,23.17308,0,0,0-6.75683-4.48975c-.7666-.36914-7.75879-2.99707-12.27246-4.67334l.77148-2.0752c1.15918.43067,11.35645,4.22168,12.46094,4.75391,1.94629.93652,5.50195,2.83252,7.44726,5.00879Z" fill="#c0512c"/>
    <polygon points="52.031 163.068 47.3 169.993 47.113 196.977 58.9 195.065 52.031 187.215 52.031 163.068" fill="#ec8e56"/>
    <polygon points="119.55 195.068 93.81 187.01 52.031 163.068 52.031 146.881 60.276 149.987 60.799 165.212 78.671 174.466 87.404 173.449 87.313 178.279 119.55 195.068" fill="#ec8e56"/>
    <path d="M119.54978,195.16736a.09652.09652,0,0,1-.0459-.01123l-32.2373-16.78906a.09809.09809,0,0,1-.05371-.09033l.58789-31.084a.0993.0993,0,0,1,.09961-.09765A.09482.09482,0,0,1,88,147.19666l-.58692,31.022,32.18262,16.76075a.09971.09971,0,0,1,.043.13427A.1009.1009,0,0,1,119.54978,195.16736Z" fill="#c0512c"/>
    <path d="M78.67087,174.5658a.0966.0966,0,0,1-.04589-.01123l-18.82911-9.749a.09862.09862,0,0,1-.05371-.09033l.43457-20.231a.1027.1027,0,0,1,.03321-.07276.10506.10506,0,0,1,.07617-.02441l18.39453,1.852a.09963.09963,0,0,1,.08984.09912v28.12793a.10041.10041,0,0,1-.04785.085A.099.099,0,0,1,78.67087,174.5658Zm-18.72851-9.90869,18.6289,9.645V146.42859L60.374,144.59607Z" fill="#c0512c"/>
    <polygon points="119.55 150.397 119.55 195.068 87.313 178.279 87.404 173.449 87.9 147.195 87.9 147.138 89.379 147.292 89.79 147.332 104.735 148.873 119.55 150.397" fill="#e09074"/>
    <path d="M120.10349,195.97986,86.7529,178.61121l.60547-32.0293.59961.00586,32.14551,3.31006ZM87.87205,177.94617l31.124,16.20947V150.89686l-30.55371-3.146Z" fill="#c0512c"/>
    <polygon points="119.709 166.591 119.55 195.068 87.313 178.279 87.404 173.449 87.9 147.195 87.9 147.138 89.379 147.292 89.79 147.332 119.551 150.399 119.709 166.591" fill="#ab4004"/>
    <path d="M119.54978,196.06775a.99939.99939,0,0,1-.46191-.11328L86.85056,179.16541a.99989.99989,0,0,1-.53808-.90576l.58789-31.084a1.06415,1.06415,0,0,1,.33789-.7583,1.04588,1.04588,0,0,1,.76562-.27392l31.65039,3.26123a1.00019,1.00019,0,0,1,.89746.98486l.15723,16.1919v.01513l-.15918,28.47657a.9995.9995,0,0,1-1,.99462ZM88.32419,177.67811l30.23438,15.74609.15039-26.83106-.14844-15.29052-29.68066-3.05713Z" fill="#ab4004"/>
    <path d="M119.54978,195.25232a.1861.1861,0,0,1-.1543-.083L100.7363,166.912,87.43357,178.41834a.18745.18745,0,0,1-.19922.02734.18438.18438,0,0,1-.10645-.17041l.5879-31.14062a.18466.18466,0,0,1,.33886-.09815l12.75879,19.32178,18.61524-16.10058a.18483.18483,0,0,1,.24218.27929l-18.65234,16.13184,18.68555,28.29736a.18481.18481,0,0,1-.05274.25537A.18072.18072,0,0,1,119.54978,195.25232ZM88.07322,147.73523l-.56836,30.13331,13.02734-11.26661Z" fill="#c0512c"/>
    <path d="M138.188,245.05763c-.20125,9.7394-2.167,16.17513-6.2678,18.56664-.99511.35037-1.889.6636-2.65612.93526a11.37,11.37,0,0,1-4.689-.35833c-6.03366-1.60438-48.194-49.07266-72.544-76.98659V163.06817c25.00791,14.178,69.37388,39.5618,73.092,43.13146C130.63886,211.49362,138.51321,229.311,138.188,245.05763Z" fill="#ec8e56"/>
    <path d="M52.031,181.20587l3.99985,4.5087c45.4419,52.05469,65.78369,72.68213,69.72412,74.66064a8.71679,8.71679,0,0,0,2.09864.292c.165,0,.32568-.00733.48-.021l1.82324-.64209c1.31006-.94727,3.8081-4.17627,4.03223-15.02881.29833-14.45947-6.92627-31.17724-11.83008-35.88476-2.0166-1.8628-20.59082-13.16065-66.32813-39.15235L52.031,167.82005Z" fill="#ab4004"/>
    <path d="M60.276,139.6748V149.987l-8.245-3.10557v-5.739c0-5.10359,1.83223-9.7398,4.73369-12.61682A18.20036,18.20036,0,0,1,60.276,139.6748Z" fill="#ffc292"/>
    <polygon points="75.195 145.988 78.671 146.338 78.671 174.466 60.799 165.212 60.276 164.942 60.276 144.486 75.195 145.988" fill="#ab4004"/>
    <path d="M78.67087,175.46619a1.00226,1.00226,0,0,1-.46-.11181L59.81638,165.83a1,1,0,0,1-.54-.88818V144.48621a1.00006,1.00006,0,0,1,1.10059-.99512l14.91894,1.50147h0l3.47559.35058a1.00038,1.00038,0,0,1,.89941.99512v28.12793a.99991.99991,0,0,1-1,1ZM61.27634,164.33338l16.39453,8.48877V147.24256l-16.39453-1.65088Z" fill="#ab4004"/>
    <polygon points="89.499 145.693 89.379 147.292 87.9 147.138 87.9 147.195 87.404 173.449 78.67 174.391 78.67 146.264 89.499 145.693" fill="#ec8e56"/>
    <path d="M78.6699,175.391a1.00009,1.00009,0,0,1-1-1V146.264a.99967.99967,0,0,1,.94726-.99853l10.8291-.5708a.99978.99978,0,0,1,1.04981,1.07324l-.12012,1.59863a1.00257,1.00257,0,0,1-.35547.69287,1.01964,1.01964,0,0,1-.74511.227l-.39551-.041-.47656,25.22265a1.00035,1.00035,0,0,1-.89258.9751l-8.7334.9419A1.00507,1.00507,0,0,1,78.6699,175.391Zm1-28.17823v26.06446l6.75-.728.48047-25.37354a1.07361,1.07361,0,0,1,.06543-.34765Z" fill="#ab4004"/>
    <polygon points="47.84 91.995 47.113 196.977 33.014 172.973 33.014 112.005 47.84 91.995" fill="#ec8e56"/>
    <path d="M127.68845,265.50086a15.12634,15.12634,0,0,1-5.16113-.97266,12.90689,12.90689,0,0,1-5.2334-3.61084l-66.56543-75.581a.9998.9998,0,1,1,1.5-1.32227l66.56641,75.58155a10.91066,10.91066,0,0,0,4.418,3.05371,11.53078,11.53078,0,0,0,7.084.4873.99983.99983,0,0,1,.57227,1.916A11.08657,11.08657,0,0,1,127.68845,265.50086Z" fill="#ab4004"/>
    <polygon points="154.846 148.41 154.846 188.965 119.551 195.065 119.551 150.399 145.875 148.917 151.818 148.581 154.846 148.41" fill="#ffe8d8"/>
    <path d="M119.55173,196.06531a.999.999,0,0,1-1-1v-44.666a1.00007,1.00007,0,0,1,.94336-.99854L154.789,147.412a.98194.98194,0,0,1,.74316.272.99805.99805,0,0,1,.31348.72656v40.55469a1.00059,1.00059,0,0,1-.83008.98535l-35.294,6.10009A.9979.9979,0,0,1,119.55173,196.06531Zm1-44.7207v42.5332l33.29395-5.75439V149.46863Z" fill="#ab4004"/>
    <polygon points="142.188 150.155 150.953 188.557 153.783 188.093 153.719 149.561 142.188 150.155" fill="#ec8e56"/>
    <path d="M119.55076,195.88514a.18494.18494,0,0,1-.14746-.2959l18.4082-24.333L119.415,151.15467a.1842.1842,0,1,1,.27149-.249l18.35058,20.05127,16.66211-22.02539a.18482.18482,0,0,1,.332.11133V189.601h0v.00146h0v.00147h0a.18481.18481,0,0,1-.15625.17578l-35.293,6.10254A.16958.16958,0,0,1,119.55076,195.88514Zm18.51367-24.35205-18.085,23.90625L154.4824,189.473Zm.22656-.29932,16.37109,17.88916V149.59266Z" fill="#c0512c"/>
    <polygon points="174.056 190.839 199.876 185.716 201.981 177.11 226.722 172.943 225.295 227.674 174.056 245.194 174.056 190.839" fill="#ff9e01"/>
    <path d="M174.05564,246.19373a.99936.99936,0,0,1-1-1V190.83924a.9998.9998,0,0,1,.80566-.981l25.19434-4.99951,1.95312-7.98633a1.00091,1.00091,0,0,1,.80567-.749l24.74219-4.16651a1.00142,1.00142,0,0,1,1.166,1.01221l-1.42773,54.73047a1.002,1.002,0,0,1-.67676.92041l-51.23926,17.52A.99754.99754,0,0,1,174.05564,246.19373Zm1-54.5332V243.7948l49.25781-16.84228,1.37793-52.82129-22.89551,3.85547-1.94824,7.96631a1.00079,1.00079,0,0,1-.77734.74365Z" fill="#ab4004"/>
    <path d="M90.52732,147.36121l-1.47461-.05859.31934-8.09473a.7375.7375,0,0,1,.707-.708l13.04785-.5415.06055,1.47461-12.36719.51318Z" fill="#c0512c"/>
    <path d="M213.169,231.95584s8.26144,8.51506,18.436,8.21433,18.523-7.43167,24.34951-18.04109,3.30457-9.13107,3.30457-9.13107-13.39276,14.87713-24.57746,18.80059A34.99563,34.99563,0,0,1,213.169,231.95584Z" fill="#ab4004"/>
    <path d="M267.85421,163.83907c-8.03743,11.72634-26.57738,34.48841-56.5225,47.57035-3.40476,1.48742-7.12316-1.52034-5.21851-4.22127,9.47295-13.43328,25.30852-36.08492,43.91255-58.0643,2.63383-3.11169,8.6-6.493,13.78217-4.17595C271.32584,148.30927,272.15921,157.55824,267.85421,163.83907Z" fill="#ffe8d8"/>
    <path d="M211.33442,211.41064c29.93994-13.08,48.48-35.84986,56.52-47.57,4.29993-6.27991,3.47-15.52991-4.05-18.89-5.17993-2.32-11.14,1.06-13.78,4.17q-.915,1.08-1.83007,2.16c2.6101-1.58007,6.03-2.5,9.13012-1.1101,6.67994,2.99,7.41993,11.20007,3.59,16.77-7.13,10.42-23.59,30.63-50.18,42.24a3.76689,3.76689,0,0,1-4.89991-1.5C204.65437,210.24071,208.13435,212.81078,211.33442,211.41064Z" fill="#ec8e56"/>
    <rect x="231.35093" y="171.37285" width="15.82446" height="0.25016" transform="translate(-26.90702 45.75281) rotate(-10.34486)" fill="#ab4004"/>
    <polygon points="249.922 185.231 249.674 185.195 251.354 173.795 251.603 173.831 249.922 185.231" fill="#ab4004"/>
    <path d="M251.51853,173.93787h-.04a4.669,4.669,0,0,1-4.55371-3.833,5.56281,5.56281,0,0,1-.07129-.84228,4.66992,4.66992,0,1,1,4.665,4.67529Zm0-9.09033a4.4199,4.4199,0,0,0-4.415,4.415,5.2461,5.2461,0,0,0,.06836.80176,4.41664,4.41664,0,0,0,4.30762,3.62353h.03906a4.42017,4.42017,0,1,0,0-8.84033Z" fill="#ab4004"/>
    <polygon points="208.845 210.713 208.688 210.518 219.244 202.015 239.398 193.901 239.492 194.133 219.354 202.239 208.845 210.713" fill="#ab4004"/>
    <path d="M75.69529,144.32166h-1v-3.229c0-4.9458-1.69141-9.42969-4.6416-12.30176a9.12359,9.12359,0,0,0-6.61426-2.80811,8.42591,8.42591,0,0,0-2.002.30371,9.86075,9.86075,0,0,0-4.32032,2.59424l-.70508-.71a10.84551,10.84551,0,0,1,4.75977-2.84814,9.44165,9.44165,0,0,1,2.24023-.33985,10.03254,10.03254,0,0,1,7.33887,3.0918c3.14258,3.05908,4.94434,7.8042,4.94434,13.01807Z" fill="#ec9662"/>
    <path d="M86.13474,146.66248l-.04687-96.94971a.999.999,0,0,1,1.2373-.97168l33.92188,8.2876a.99959.99959,0,0,1,.76269.98633l-.9707,64.7915-2-.03027.959-63.99414-31.90918-7.7959.0459,95.67529Z" fill="#ec8e56"/>
    <polygon points="145.875 148.917 119.551 150.399 103.157 148.856 103.157 122.108 131.884 123.056 135.337 117.661 145.367 118.26 145.875 148.917" fill="#ff9e01"/>
    <path d="M119.53318,151.40174l-.0752-.00684-17.30078-1.62842V121.07459l29.19141.96289,3.46191-5.40918,11.541.68945.53906,32.54346Zm-15.376-3.45557,15.41309,1.45069,25.28906-1.42432-.47656-28.769-8.51953-.50879-3.44434,5.3789L104.1572,123.142Z" fill="#ab4004"/>
    <rect x="73.88768" y="130.95997" width="1.99998" height="29.25073" transform="matrix(0.0438, -0.99904, 0.99904, 0.0438, -73.83819, 214.02415)" fill="#ab4004"/>
    <path d="M228.20744,124.85666q-.69657.44094-1.4189.86919c-10.08873,5.98032-23.555,9.86574-29.468,10.87395-.78895.13427-1.44678.219-1.94749.25111,0,0-17.16214,3.8831-14.68795-24.97766,2.4894-29.03971,25.76914-32.29615,25.76914-32.29615,20.30122-1.60138,31.89409,16.06438,32.42769,31.20927C239.06982,116.07258,234.48927,120.87156,228.20744,124.85666Z" fill="#ec8e56"/>
    <ellipse cx="212.75601" cy="104.08953" rx="24.42396" ry="20.32589" transform="translate(-24.09209 102.43787) rotate(-25.67035)" fill="#ffe8d8"/>
    <path d="M197.99965,122.36569c-6.55,1.28-13.64,1.61024-17.56-5.70977.03-.94.1-3.80024.19-4.84028a43.33887,43.33887,0,0,1,2.03-10.18s.22,5.6,5.73,5.52c.21,0,.43-.01.65-.03a17.33177,17.33177,0,0,0,1.7,7.54A17.71736,17.71736,0,0,0,197.99965,122.36569Z" fill="#ab4004"/>
    <path d="M129.56443,265.51307l-.60156-1.90723c.35742-.11279,35.85058-11.32324,40.74609-13.21826,4.20605-1.62793,5.21875-3.07861,7.4375-6.25684.24707-.354.50684-.72656.78613-1.12011l1.63086,1.15722-.77734,1.10742c-2.3086,3.30762-3.58008,5.1294-8.35449,6.97754C165.47654,254.17029,131.0283,265.05066,129.56443,265.51307Z" fill="#ab4004"/>
    <rect x="63.9205" y="76.33337" width="1.99977" height="34.17238" transform="translate(-30.26734 155.71859) rotate(-88.40745)" fill="#ec8e56"/>
    <path d="M203.41964,120.64566a24.8197,24.8197,0,0,1-5.42,1.72,17.71736,17.71736,0,0,1-7.26-7.7,17.33177,17.33177,0,0,1-1.7-7.54c6.9-.51,14.73-7.21,19.18-3.88995C212.85964,106.70566,212.00966,116.81564,203.41964,120.64566Z" fill="#fb8948"/>
    <path d="M87.333,64.20743c-14.47,1.47789-15.668,2.676-17.146,17.146-.88544-8.67-1.67053-12.57531-5.27015-14.631-2.40809-1.37522-6.07581-1.92265-11.87585-2.515,14.47-1.4779,15.66821-2.676,17.146-17.146C71.665,61.53145,72.863,62.72953,87.333,64.20743Z" fill="#fff"/>
    <path d="M73.54075,93.41956c-8.78151.89689-13.76418,1.7137-16.7775,4.27988-3.37565,2.87473-4.2799,7.94482-5.28476,17.78217-1.90161-18.61884-3.44311-20.16042-22.062-22.062,18.6189-1.90163,20.1604-3.44321,22.062-22.062C53.38035,89.97635,54.92185,91.51793,73.54075,93.41956Z" fill="#ab4004"/>
    <polygon points="144.553 147.932 143.87 120.075 136.254 119.556 132.14 125.178 103.761 124.14 103.798 123.141 131.645 124.16 135.771 118.521 144.847 119.14 145.553 147.907 144.553 147.932" fill="#ffe8d8"/>
    <polygon points="177.63 241.104 175.663 241.104 175.663 191.455 200.631 186.703 203.113 177.918 226.91 173.892 226.91 176.838 224.943 176.838 224.943 176.22 204.668 179.649 202.193 188.407 177.63 193.082 177.63 241.104" fill="#ffe8d8"/>
    <rect x="153.25046" y="149.56138" width="1" height="38.53228" transform="translate(-0.27791 0.25351) rotate(-0.09439)" fill="#ffe8d8"/>
    <path d="M198.09373,122.85682l-.1875-.98243a24.18955,24.18955,0,0,0,5.30957-1.68505,11.8802,11.8802,0,0,0,7.22949-9.457c.33105-2.96435-.63574-5.68359-2.52539-7.09619-2.42969-1.81494-6.19922-.26074-10.19141,1.38623-2.84961,1.1753-5.7959,2.39112-8.65137,2.60205l-.07422-.99707c2.69629-.1997,5.56739-1.38378,8.34473-2.52929,4.25977-1.75733,8.28223-3.417,11.1709-1.26319,2.17285,1.62452,3.291,4.69336,2.9209,8.00879a12.87161,12.87161,0,0,1-7.81543,10.25879A25.20621,25.20621,0,0,1,198.09373,122.85682Z" fill="#fff"/>
    <rect x="79.0168" y="146.66634" width="2.00054" height="31.88292" transform="translate(-99.67389 186.17019) rotate(-71.26925)" fill="#ffe8d8"/>
    <rect x="96.21295" y="166.99597" width="1.99984" height="14.64943" transform="translate(-100.39189 202.43479) rotate(-68.95042)" fill="#ec8e56"/>
    <rect x="103.86001" y="165.79381" width="1.99966" height="8.97807" transform="translate(-90.22111 214.27438) rotate(-71.08319)" fill="#ec8e56"/>
    <path d="M193.39451,138.1a12.27185,12.27185,0,0,1-8.14258-2.98144c-4.71387-4.1084-6.60938-11.96-5.63379-23.33643,2.5332-29.54932,26.44629-33.23193,26.6875-33.26563a28.96863,28.96863,0,0,1,22.13574,7.2417,36.19123,36.19123,0,0,1,11.51074,24.99073c.1836,5.14209-3.57519,10.19336-11.17187,15.0122v.00049q-.709.44971-1.44727.88623c-10.21386,6.05518-23.71972,9.96533-29.833,11.00781-.78614.13379-1.45215.22071-1.98047.25879A11.32414,11.32414,0,0,1,193.39451,138.1Zm15.57422-57.55176q-1.20411,0-2.43067.09668c-.85058.12354-22.40234,3.51563-24.78516,31.31983-.89941,10.48584.78907,17.92675,4.88184,21.51757a10.31627,10.31627,0,0,0,8.50488,2.32325l.165-.02344c.4668-.02979,1.084-.10986,1.83594-.23779,5.96191-1.0166,19.13477-4.83155,29.10156-10.73975q.709-.41895,1.3916-.85254c4.749-3.01269,10.37012-7.73584,10.17774-13.12744a33.977,33.977,0,0,0-10.79688-23.46777A26.587,26.587,0,0,0,208.96873,80.54822Z" fill="#ab4004"/>
    <path d="M209.46873,212.806a5.25564,5.25564,0,0,1-4.02247-1.81055,3.508,3.508,0,0,1-.15039-4.3833l1.14942-1.63086c9.32031-13.22412,24.918-35.35645,42.8164-56.50342,2.64356-3.12207,9.043-7.08789,14.95411-4.44287a11.92694,11.92694,0,0,1,6.73242,7.75976,15.29052,15.29052,0,0,1-2.26856,12.60987h0c-8.42187,12.28467-27.01758,34.84619-56.94726,47.92138A5.63606,5.63606,0,0,1,209.46873,212.806Zm50.668-67.62305a13.33327,13.33327,0,0,0-9.34765,4.58691c-17.8418,21.0791-33.40821,43.16651-42.709,56.36377l-1.14941,1.63086a1.50663,1.50663,0,0,0,.06543,1.9668,3.41494,3.41494,0,0,0,3.93555.76172c29.47265-12.87549,47.79785-35.11084,56.09765-47.21924a13.26656,13.26656,0,0,0,1.99414-10.93652,9.83349,9.83349,0,0,0-5.624-6.47608A7.92706,7.92706,0,0,0,260.13669,145.183Z" fill="#ab4004"/>
    <polygon points="205.446 210.995 224.413 223.137 225.691 203.957 211.334 211.411 205.446 210.995" fill="#ab4004"/>
    <path d="M193.51169,136.681a11.40078,11.40078,0,0,1-8.30468-3.07374c-4.17774-4.08447-5.55078-12.0708-4.07911-23.73681,1.52637-12.10986,10.81934-26.68506,23.1709-29.11621,11.80762-2.32178,18.97364,2.86816,24.43164,8.252l-.70312.71191c-5.27051-5.20019-12.18848-10.21826-23.53516-7.98242-11.91406,2.34473-20.88867,16.49463-22.37207,28.25977-1.41015,11.17969-.10058,19.09717,3.78614,22.89648,2.42871,2.374,5.93261,3.23731,10.41015,2.56885l.14844.98926A20.06174,20.06174,0,0,1,193.51169,136.681Z" fill="#ffe8d8"/>
  </g>
</svg>
