<?xml version="1.0"?>
<svg xmlns="http://www.w3.org/2000/svg" viewBox="0 0 300 300">
  <g id="Layer_3" data-name="Layer 3">
    <rect x="45.90226" y="48.33445" width="208.19548" height="203.3311" rx="55.23808" fill="#ffe7d3"/>
    <path d="M162.58984,222.51318a.74927.74927,0,0,1-.55859-1.24853l1.03125-1.1543a.75246.75246,0,0,1,.61328-.24805l.15234.01124a.74884.74884,0,0,1,.46583,1.28613l-1.1836,1.14306A.74844.74844,0,0,1,162.58984,222.51318Z" fill="#a75136"/>
    <polygon points="115.174 199.348 107.189 208.409 106.751 208.907 102.352 213.897 102.349 213.9 102.328 213.864 81.794 176.473 111.702 196.97 112.302 197.383 115.174 199.348" fill="#ab4004"/>
    <path d="M102.34863,214.78613a.85071.85071,0,0,1-.18164-.019.88967.88967,0,0,1-.59277-.43311l-20.5586-37.43359a.88779.88779,0,0,1,1.28028-1.15918l33.3789,22.87451a.88726.88726,0,0,1,.165,1.31934l-12.82129,14.54932a.864.864,0,0,1-.13378.123A.8924.8924,0,0,1,102.34863,214.78613ZM84.36523,179.311l18.15332,33.05566,11.32618-12.85254Z" fill="#ab4004"/>
    <polygon points="133.577 179.361 115.174 199.348 112.302 197.383 126.941 184.473 133.35 178.825 133.577 179.361" fill="#ab4004"/>
    <path d="M115.17383,200.23584a.88344.88344,0,0,1-.501-.15527l-2.87207-1.96534a.8873.8873,0,0,1-.08594-1.39794l21.04786-18.5586a.88791.88791,0,0,1,1.40429.31934l.22754.53613a.88938.88938,0,0,1-.16406.94775l-18.40332,19.98731A.88855.88855,0,0,1,115.17383,200.23584Zm-1.42969-2.94141,1.29688.8877,9.94824-10.80469Z" fill="#ab4004"/>
    <polygon points="133.35 178.825 126.941 184.473 116.883 154.239 133.35 178.825" fill="#ab4004"/>
    <path d="M126.94141,185.36035a.88722.88722,0,0,1-.8418-.60742L116.041,154.51953a.88739.88739,0,0,1,1.5791-.77441l16.46679,24.58545a.88728.88728,0,0,1-.15039,1.16015l-6.4082,5.64795A.88726.88726,0,0,1,126.94141,185.36035Zm-7.14551-25.17676,7.56445,22.73682,4.81934-4.24756Z" fill="#ab4004"/>
    <polygon points="163.422 182.482 145.235 184.744 136.309 185.853 133.577 179.361 133.35 178.825 116.883 154.239 148.766 168.958 162.281 181.267 163.422 182.482" fill="#ff9e01"/>
    <path d="M136.30859,186.74121a.88861.88861,0,0,1-.81836-.54346l-2.9248-6.94873L116.14551,154.7334a.88757.88757,0,0,1,1.10937-1.29981l31.88379,14.71827a.90129.90129,0,0,1,.22559.14941l13.51367,12.30957,1.19043,1.26416a.8871.8871,0,0,1-.53711,1.48828l-27.11328,3.3711A.92727.92727,0,0,1,136.30859,186.74121ZM119.377,156.36816l14.71,21.96241a.935.935,0,0,1,.08008.14746l2.69922,6.41162,24.70508-3.07129-13.30078-12.11231Z" fill="#ab4004"/>
    <polygon points="185.374 205.821 180.921 206.034 146.564 207.673 145.235 184.744 163.422 182.482 185.374 205.821" fill="#ff9e01"/>
    <path d="M146.56348,208.56055a.88739.88739,0,0,1-.88477-.83643l-1.3291-22.92871a.88717.88717,0,0,1,.77637-.93213l18.18652-2.26172a.898.898,0,0,1,.75586.27295l21.95215,23.33838a.88735.88735,0,0,1-.60449,1.49463l-38.80957,1.85205Zm-.39356-23.03809,1.22949,21.22217,36.00879-1.71826L163.084,183.419Z" fill="#ab4004"/>
    <polygon points="117.08 221.02 115.605 222.071 112.799 224.07 83.798 244.731 101.966 214.466 101.969 214.463 102.328 213.864 102.349 213.9 102.352 213.897 106.751 208.907 106.827 208.998 117.08 221.02" fill="#ff9e01"/>
    <path d="M83.79785,245.61914a.88753.88753,0,0,1-.76074-1.34473l18.168-30.26562c.00683-.01172.01465-.02344.02246-.03516l.33984-.5664a.88793.88793,0,0,1,.30078-.30274l4.2168-4.78467a.88781.88781,0,0,1,.666-.30078h.01367a.88586.88586,0,0,1,.66894.3208l.07618.0918,10.24609,12.01221a.88874.88874,0,0,1-.16016,1.29883L84.3125,245.4541A.884.884,0,0,1,83.79785,245.61914ZM102.707,214.95557,86.75,241.53906l29.02637-20.67968-9.03711-10.59668-3.72071,4.22168a.963.963,0,0,1-.07031.0708l-.21875.36425C102.72266,214.93164,102.71484,214.94336,102.707,214.95557Z" fill="#ab4004"/>
    <polygon points="132.389 240.712 115.234 266.861 126.026 235.309 132.389 240.712" fill="#ab4004"/>
    <path d="M115.23242,267.749a.888.888,0,0,1-.83887-1.1748l10.793-31.55225a.88734.88734,0,0,1,1.41407-.38965l6.3623,5.40284a.88705.88705,0,0,1,.168,1.16357l-17.15527,26.14941A.8876.8876,0,0,1,115.23242,267.749Zm11.21192-30.92041-8.09473,23.66407,12.86719-19.61182Z" fill="#ab4004"/>
    <polygon points="162.75 235.372 161.591 236.669 147.828 249.966 115.234 266.861 132.389 240.712 132.627 240.153 135.483 233.405 144.456 234.052 162.75 235.372" fill="#ff9e01"/>
    <path d="M115.2334,267.749a.8875.8875,0,0,1-.74219-1.37451L131.60352,240.291l3.0625-7.23243a.881.881,0,0,1,.88086-.53906l27.2666,1.96777a.8883.8883,0,0,1,.59863,1.47706l-1.15918,1.29638L148.44336,250.604a.87416.87416,0,0,1-.208.14991l-32.59375,16.8955A.88683.88683,0,0,1,115.2334,267.749Zm20.81933-33.41308-2.84765,6.72412a.92178.92178,0,0,1-.07422.13867l-15.29492,23.314,29.46777-15.2754L160.874,236.127Z" fill="#ab4004"/>
    <polygon points="184.86 210.662 162.75 235.372 144.456 234.052 146.073 210.869 180.918 210.683 184.86 210.662" fill="#ff9e01"/>
    <path d="M162.75,236.26025c-.02148,0-.043-.001-.06348-.00244l-18.29394-1.32129a.88788.88788,0,0,1-.82227-.94677l1.61719-23.18213a.88826.88826,0,0,1,.88086-.82617l38.78711-.207a.88735.88735,0,0,1,.666,1.4795l-22.11035,24.71045A.88605.88605,0,0,1,162.75,236.26025ZM145.40332,233.23l16.97559,1.22607,20.48632-22.8955-35.96386.19189Z" fill="#ab4004"/>
    <polygon points="180.921 206.034 180.918 210.683 146.073 210.869 144.456 234.052 135.483 233.405 132.627 240.153 115.605 222.071 117.08 221.02 106.827 208.998 106.751 208.907 107.189 208.409 115.174 199.348 133.577 179.361 136.309 185.853 145.235 184.744 146.564 207.673 180.921 206.034" fill="#ff9e01"/>
    <path d="M132.627,241.04053a.89013.89013,0,0,1-.64648-.2793L114.959,222.67969a.88905.88905,0,0,1,.13086-1.33106l.68653-.48925-9.708-11.38575a.88725.88725,0,0,1,.01562-1.15283l8.42383-9.55957,18.416-20.00146a.88791.88791,0,0,1,1.47168.25683l2.4707,5.873,8.25977-1.02637a.88643.88643,0,0,1,.99511.82959l1.27832,22.05176,33.4795-1.59766a.908.908,0,0,1,.65429.24463.888.888,0,0,1,.27539.64258l-.00293,4.64941a.88753.88753,0,0,1-.88281.88721l-34.02148.18164-1.55957,22.36035a.88743.88743,0,0,1-.94922.82373l-8.33985-.60058-2.60839,6.16308a.8906.8906,0,0,1-.81739.54151Zm-15.67773-18.83692,15.39062,16.34961,2.32618-5.49463a.881.881,0,0,1,.88086-.53906l8.08593.58252,1.55469-22.29443a.88826.88826,0,0,1,.88086-.82617l33.96289-.18116.00195-2.83545-33.42675,1.59473a.9108.9108,0,0,1-.92774-.83545L144.4043,185.7417l-7.98633.99268a.884.884,0,0,1-.92774-.53663l-2.19531-5.21972-17.46777,18.97119-7.90332,8.96777,9.832,11.52686a.88874.88874,0,0,1-.16016,1.29883Z" fill="#ab4004"/>
    <polygon points="132.627 240.153 132.389 240.712 126.026 235.309 112.799 224.07 115.605 222.071 132.627 240.153" fill="#ab4004"/>
    <path d="M132.38867,241.59961a.88963.88963,0,0,1-.57422-.21094l-19.58984-16.64209a.88711.88711,0,0,1,.05957-1.39941l2.80664-1.999a.887.887,0,0,1,1.16113.11475l17.02149,18.08154a.88782.88782,0,0,1,.16992.95655l-.23828.55908a.8875.8875,0,0,1-.61231.51562A.876.876,0,0,1,132.38867,241.59961Zm-18.14648-17.46777,10.41308,8.84716-9.165-9.73584Z" fill="#ab4004"/>
    <polygon points="159.838 181.6 147.148 170.421 120.051 157.654 120.43 156.851 147.688 169.713 160.424 180.934 159.838 181.6" fill="#ffe8d8"/>
    <polygon points="181.687 204.819 162.438 184.657 147.398 186.775 147.275 185.896 162.767 183.714 182.329 204.206 181.687 204.819" fill="#ffe8d8"/>
    <polygon points="162.588 233.236 161.926 232.644 179.558 212.923 147.66 212.728 147.666 211.84 181.53 212.048 162.588 233.236" fill="#ffe8d8"/>
    <polygon points="120.606 261.731 119.874 261.231 134.042 240.462 136.201 234.911 159.826 236.283 149.347 246.909 148.714 246.286 157.818 237.055 136.793 235.834 134.821 240.874 120.606 261.731" fill="#ffe8d8"/>
    <rect x="96.51284" y="170.69152" width="0.88741" height="35.0442" transform="translate(-112.63814 158.29692) rotate(-54.62185)" fill="#ffc292"/>
    <polygon points="91.602 237.692 91.08 236.973 113.468 220.734 106.402 211.76 107.1 211.211 114.735 220.911 91.602 237.692" fill="#ffe8d8"/>
    <polygon points="171.895 138.29 182.554 132.862 186.077 130.987 186.082 130.987 178.497 118.348 171.895 138.29" fill="#ffe8d8"/>
    <path d="M171.89551,139.16553a.87556.87556,0,0,1-.83106-1.15039l6.60157-19.94239a.87545.87545,0,0,1,1.582-.17529l7.585,12.63965a.87569.87569,0,0,1-.39649,1.25049l-3.4707,1.84717-10.67285,5.435A.86981.86981,0,0,1,171.89551,139.16553Zm6.833-18.73145-5.333,16.10987,8.76172-4.46143,2.69922-1.437Z" fill="#ab4004"/>
    <polygon points="182.554 132.862 202.976 172.274 210.344 167.894 186.077 130.987 182.554 132.862" fill="#ab4004"/>
    <path d="M202.97559,173.14893a.87627.87627,0,0,1-.77735-.47266l-20.4209-39.41113a.87489.87489,0,0,1,.36621-1.1753l3.52247-1.875a.87254.87254,0,0,1,1.14257.29151l24.26661,36.90674a.87655.87655,0,0,1-.28418,1.23339l-7.36817,4.3794A.8764.8764,0,0,1,202.97559,173.14893ZM183.73047,133.228l19.5957,37.81885,5.78321-3.4375-23.3252-35.47461Z" fill="#ab4004"/>
    <polygon points="211.56 158.38 213.81 173.16 210.34 167.89 202.58 156.08 186.08 130.99 178.5 118.35 183.57 117.92 186.52 120.55 208.42 140.64 210.14 142.22 216.56 148.11 211.56 158.38" fill="#ffe8d8"/>
    <polygon points="186.523 120.545 210.139 142.216 215.219 140.225 187.026 94.383 186.523 120.545" fill="#ffe8d8"/>
    <path d="M216.05005,140.5a.85558.85558,0,0,1-.51.54L210.46,143.03a.90465.90465,0,0,1-.32.06.85717.85717,0,0,1-.59-.23l-23.62012-21.67a.87.87,0,0,1-.27991-.66l.37-19.52.95-3.66.06006-.22.8.6.40991.3,1.91,1.43,1.89,1.41L215.96,139.77A.85835.85835,0,0,1,216.05005,140.5Z" fill="#ec8e56"/>
    <polygon points="211.563 158.384 213.806 173.161 213.947 173.372 225.846 166.538 211.563 158.384" fill="#ab4004"/>
    <path d="M213.94824,174.24756a.87667.87667,0,0,1-.72851-.38818l-.14161-.21143a.88547.88547,0,0,1-.13769-.356l-2.24219-14.77685a.87517.87517,0,0,1,1.29883-.8916l14.2832,8.15429a.87553.87553,0,0,1,.002,1.51953l-11.89942,6.834A.87143.87143,0,0,1,213.94824,174.24756Zm-1.248-14.207,1.81933,11.99316,9.56543-5.49316Z" fill="#ab4004"/>
    <polygon points="211.563 158.384 225.846 166.538 273.276 179.193 227.751 146.702 227.212 147.095 211.563 158.384" fill="#ffe8d8"/>
    <path d="M273.27539,180.06885a.87883.87883,0,0,1-.22559-.02979l-47.42871-12.65527a.88015.88015,0,0,1-.208-.08545l-14.28321-8.1543a.87509.87509,0,0,1-.07812-1.47021l16.18359-11.6792a.87289.87289,0,0,1,1.02442-.00537l45.52441,32.4917a.87547.87547,0,0,1-.50879,1.58789Zm-47.09375-14.34717,42.66016,11.38281-41.085-29.32373-.0293.021-14.54883,10.49609Z" fill="#ab4004"/>
    <polygon points="227.753 146.702 273.278 179.193 256.228 138.179 247.706 138.099 247.741 138.053 239.894 137.953 239.889 137.953 227.753 146.702" fill="#ffe8d8"/>
    <path d="M273.27734,180.06885a.87463.87463,0,0,1-.50879-.16309l-45.52441-32.4917a.8757.8757,0,0,1-.00293-1.42236l12.13574-8.749a.87421.87421,0,0,1,.51172-.16553l7.86328.10058a.8835.8835,0,0,1,.27637.04834l8.208.07764a.87605.87605,0,0,1,.80078.53955l17.04883,41.01416a.87632.87632,0,0,1-.8086,1.21143Zm-44.02246-33.37061L271.294,176.70215l-15.65137-37.65332-7.94434-.07471a.86193.86193,0,0,1-.28222-.0498l-7.25-.09278Z" fill="#ab4004"/>
    <polygon points="211.565 158.384 227.214 147.095 227.753 146.702 239.889 137.953 228.232 137.806 226.433 137.786 221.605 137.726 216.56 148.108 211.565 158.384" fill="#ffe8d8"/>
    <path d="M211.56543,159.25928a.87542.87542,0,0,1-.78711-1.2583l10.03906-20.65772a.82639.82639,0,0,1,.79785-.49316l18.28418.227a.87524.87524,0,0,1,.501,1.58545l-28.32324,20.43115A.87352.87352,0,0,1,211.56543,159.25928Zm10.584-20.65137-8.27734,17.03271,23.35156-16.84619Z" fill="#ab4004"/>
    <polygon points="228.232 137.806 239.889 137.953 239.894 137.953 247.741 138.053 267.114 113.963 228.232 137.806" fill="#ec8e56"/>
    <path d="M247.74121,138.92871h-.01074l-19.50879-.24707a.87563.87563,0,0,1-.44727-1.62158l38.88184-23.84326a.8751.8751,0,0,1,1.13965,1.29443l-19.37305,24.09033A.87392.87392,0,0,1,247.74121,138.92871Zm-16.46875-1.96,16.05371.20361,15.94238-19.8247Z" fill="#ab4004"/>
    <rect x="226.45649" y="136.89667" width="1.75109" height="1.79894" transform="translate(87.01455 363.58063) rotate(-89.36237)" fill="#a75136"/>
    <polygon points="226.43 137.79 221.6 137.73 215.36 140.17 215.22 140.23 198.93 113.73 187.03 94.38 225.85 118.52 226.43 137.79" fill="#ffe8d8"/>
    <polygon points="227.253 147.422 227.202 147.387 228.198 145.948 227.253 147.422" fill="#a75136"/>
    <polygon points="210.139 142.216 216.56 148.108 221.605 137.726 215.219 140.225 210.139 142.216" fill="#ab4004"/>
    <path d="M216.55957,148.9834a.87684.87684,0,0,1-.5918-.23047l-6.42089-5.8916a.87543.87543,0,0,1,.27246-1.46l11.46582-4.49073a.87532.87532,0,0,1,1.10644,1.19727l-5.04492,10.38232a.87455.87455,0,0,1-.623.47754A.8882.8882,0,0,1,216.55957,148.9834Zm-4.7959-6.46387,4.52246,4.14893,3.55274-7.31153Z" fill="#ab4004"/>
    <rect x="210.02758" y="141.362" width="0.11281" height="1.7506" transform="translate(-36.7975 83.78847) rotate(-20.7805)" fill="#a75136"/>
    <polygon points="216.041 148.816 216.016 148.796 217.1 147.421 216.041 148.816" fill="#a75136"/>
    <polygon points="268.118 173.327 254.73 140.663 240.981 140.663 240.981 139.788 255.318 139.788 268.929 172.995 268.118 173.327" fill="#fff"/>
    <rect x="222.73145" y="139.3208" width="9.80957" height="0.875" fill="#fff"/>
    <rect x="200.41952" y="95.44583" width="0.87482" height="47.87641" transform="translate(-32.76959 123.21831) rotate(-31.66638)" fill="#ffe8d8"/>
    <rect x="246.49206" y="139.88556" width="0.87525" height="45.47985" transform="matrix(0.56911, -0.82226, 0.82226, 0.56911, -27.32046, 273.11611)" fill="#fff"/>
    <rect x="198.28631" y="112.57096" width="0.87562" height="42.37126" transform="translate(-34.36027 189.01752) rotate(-47.28132)" fill="#ffe8d8"/>
    <rect x="232.59515" y="127.44092" width="29.54408" height="0.87597" transform="translate(-30.32917 148.57372) rotate(-31.59913)" fill="#ffe8d8"/>
    <path d="M177.98633,227.4585l-.30078-1.54395c1.51953-.2959,3.04-.625,4.52148-.97851l.36524,1.53027C181.06934,226.82471,179.52637,227.1582,177.98633,227.4585Zm9.12695-2.17871-.42969-1.5127c1.48633-.42334,2.97266-.88184,4.41895-1.36328l.49609,1.49219C190.13184,224.38477,188.62207,224.8501,187.11328,225.27979Zm8.90625-2.96778-.56445-1.46777c1.43164-.54981,2.87012-1.14063,4.27637-1.75684l.63085,1.44043C198.93359,221.15381,197.47266,221.75391,196.01953,222.312Zm8.59961-3.771-.69922-1.40918c1.37891-.68409,2.75488-1.40918,4.08789-2.15479l.76758,1.37305C207.41992,217.10791,206.02148,217.84521,204.61914,218.541Zm8.19824-4.585-.83593-1.333c1.30664-.81836,2.60253-1.67725,3.85058-2.55176l.90235,1.28809C215.46387,212.24951,214.14648,213.12305,212.81738,213.95605Zm7.69532-5.39453-.96875-1.23828c1.21-.94726,2.40722-1.937,3.55761-2.94189l1.03516,1.18457C222.96484,206.58936,221.74609,207.59717,220.5127,208.56152Zm7.07812-6.186-1.09961-1.125c1.10254-1.07715,2.18262-2.19287,3.208-3.3169l1.16211,1.06055C229.81445,200.14014,228.71484,201.27783,227.59082,202.37549Zm6.33984-6.94727L232.71,194.438c.97168-1.19971,1.91309-2.4336,2.7959-3.66748l1.2793.915C235.88379,192.94531,234.92383,194.20459,233.93066,195.42822Zm5.47559-7.65283-1.332-.835c.81348-1.29834,1.59375-2.6377,2.32129-3.981l1.38281.749C241.03613,185.08057,240.2373,186.44873,239.40625,187.77539Z" fill="#ab4004"/>
    <path d="M236.50391,112.86084q-.88623-1.28467-1.82715-2.53564l1.25586-.94532q.96093,1.27589,1.86621,2.58741Zm-4.71094-6.13721c-.98828-1.16113-2.02832-2.31494-3.0918-3.42871l1.13672-1.08594c1.085,1.13526,2.14551,2.31153,3.15234,3.4961Zm-6.375-6.68017c-1.10547-1.03711-2.26758-2.06983-3.4541-3.06934l1.01367-1.20312c1.208,1.01757,2.39062,2.06884,3.5166,3.125Zm-7.06445-5.95557c-1.2168-.92187-2.48047-1.83057-3.75489-2.70068l.88672-1.29883c1.2959.88428,2.58008,1.80859,3.81738,2.74609Zm-7.6377-5.21533c-1.3125-.80518-2.6582-1.58887-4-2.32861l.75977-1.377c1.3623.75147,2.72949,1.54688,4.0625,2.36475Zm-110.25391-.895-.79882-1.35449c1.33691-.78858,2.71484-1.55909,4.09668-2.29053l.73632,1.38965C103.13574,86.44238,101.77832,87.20117,100.46191,87.97754Zm102.14942-3.5752c-1.36719-.6748-2.77832-1.332-4.19531-1.95312l.63086-1.44043c1.43945.63086,2.87207,1.29834,4.25976,1.9834Zm-93.98242-.749-.67188-1.42187c1.40527-.66358,2.84668-1.30616,4.28613-1.90967l.60743,1.45019C111.43359,82.3667,110.0127,82.99951,108.62891,83.65332Zm85.50586-2.97021c-1.4336-.55518-2.89747-1.08594-4.35157-1.57764l.50391-1.49024c1.47559.49952,2.96094,1.03809,4.416,1.60108Zm-76.9795-.605-.54492-1.47558c1.44727-.53369,2.93945-1.04834,4.43555-1.52881l.48047,1.49707C120.05176,79.04492,118.58105,79.55176,117.15527,80.07812Zm68.21094-2.36132c-1.46777-.42774-2.97168-.83155-4.47168-1.19971l.375-1.52734c1.52149.37353,3.04785.7832,4.53613,1.21728Zm-59.40527-.46338-.416-1.5166c1.48926-.40821,3.01953-.79346,4.54981-1.14551l.35156,1.5332C128.93848,76.47119,127.42871,76.85107,125.96094,77.25342ZM176.374,75.50781c-1.499-.30224-3.03222-.57715-4.55566-.81738l.24414-1.55371c1.5459.24365,3.10156.523,4.62207.8291Zm-41.39843-.32031-.28711-1.54688c1.5332-.28369,3.09082-.53857,4.63086-.75683l.2207,1.55664C138.02246,74.65625,136.48633,74.90723,134.97559,75.1875Zm32.25488-1.12109c-1.52735-.1753-3.07813-.31983-4.61035-.43018l.11328-1.56836c1.55371.11182,3.127.2583,4.67676.436Zm-23.09863-.1792-.1543-1.56543c1.5498-.15332,3.124-.27588,4.67871-.36377l.08789,1.57031C147.21191,73.61475,145.66016,73.73584,144.13184,73.88721Zm13.86621-.48438q-2.31445-.06885-4.63086-.03613l-.02149-1.57227q2.35109-.03222,4.69727.03614Z" fill="#ab4004"/>
    <path d="M88.30664,207.87109c-1.31348-1.05517-2.60644-2.15673-3.84277-3.27441l1.05468-1.167c1.21387,1.09765,2.4834,2.1792,3.77247,3.21484Zm-7.48633-6.773c-1.17969-1.20361-2.332-2.45312-3.42383-3.71435l1.18946-1.0293c1.07031,1.23682,2.20019,2.4624,3.35742,3.64307Zm-6.60644-7.63769c-1.0166-1.33887-2.001-2.72559-2.92481-4.12109l1.3125-.86817c.9043,1.36768,1.86817,2.72608,2.86426,4.03809Zm-5.56836-8.42822c-.832-1.46436-1.6211-2.97119-2.34473-4.479l1.418-.68066c.708,1.47558,1.47949,2.94971,2.29395,4.38232Zm-4.37012-9.11182c-.61816-1.56348-1.18652-3.16748-1.6875-4.76611l1.5-.47071c.49023,1.5625,1.0459,3.12989,1.65039,4.6587Zm-3.02051-9.644c-.38379-1.63965-.71-3.31006-.96777-4.96387l1.55469-.24219c.251,1.61475.56933,3.2461.94433,4.84766Z" fill="#ab4004"/>
    <polygon points="60.747 144.562 46.746 158.412 54.402 142.034 60.747 144.562" fill="#ec8e56"/>
    <path d="M46.74609,159.30908a.89733.89733,0,0,1-.8125-1.27685l7.65625-16.37842a.90132.90132,0,0,1,1.14454-.45361L61.0791,143.728a.89736.89736,0,0,1,.29883,1.47119L47.377,159.0498A.89483.89483,0,0,1,46.74609,159.30908Zm8.11036-16.1289-5.1709,11.0625,9.456-9.355Z" fill="#ab4004"/>
    <polygon points="54.402 142.034 81.942 153.007 116.724 93.325 54.402 142.034" fill="#ffe8d8"/>
    <path d="M81.94238,153.90381a.8988.8988,0,0,1-.332-.06348l-27.54-10.97314a.89753.89753,0,0,1-.2207-1.54l62.32129-48.709a.89725.89725,0,0,1,1.32812,1.15821L82.71777,153.4585A.89852.89852,0,0,1,81.94238,153.90381ZM56.18555,141.77832,81.55664,151.8877l32.042-54.98194Z" fill="#ab4004"/>
    <polygon points="23.029 129.757 42.125 137.284 116.724 93.325 23.029 129.757" fill="#ec8e56"/>
    <path d="M42.125,138.18066a.89476.89476,0,0,1-.3291-.0625l-19.0957-7.52685a.89673.89673,0,0,1,.0039-1.67041l93.69434-36.43213a.897.897,0,0,1,.78027,1.60889l-74.59863,43.959A.89836.89836,0,0,1,42.125,138.18066Zm-16.63477-8.418,16.55665,6.52587,64.68066-38.11425Z" fill="#ab4004"/>
    <polygon points="42.125 137.284 46.746 158.412 54.402 142.034 116.724 93.325 42.125 137.284" fill="#ab4004"/>
    <path d="M46.74609,159.30908a.98724.98724,0,0,1-.09961-.00537.89661.89661,0,0,1-.77636-.69971L41.249,137.47559a.89707.89707,0,0,1,.4209-.96485l74.59863-43.959a.897.897,0,0,1,1.00782,1.47949L55.124,142.6084,47.55859,158.792A.89662.89662,0,0,1,46.74609,159.30908Zm-3.60644-21.58252,3.916,17.9043,6.53418-13.97705a.89154.89154,0,0,1,.25977-.32666l51.54-40.28223Z" fill="#ab4004"/>
    <polygon points="81.319 150.768 58.773 142.81 59.072 141.964 80.925 149.677 110.434 100.177 111.203 100.636 81.319 150.768" fill="#fff"/>
    <polygon points="42.166 135.433 27.909 130.215 28.218 129.372 42.084 134.448 102.613 100.017 103.057 100.796 42.166 135.433" fill="#ffe8d8"/>
    <polygon points="221.6 137.73 215.36 140.17 198.93 113.73 221.6 137.73" fill="#ec8e56"/>
    <path d="M215.21875,141.10107a.87634.87634,0,0,1-.74609-.417L186.28027,94.8418a.8754.8754,0,0,1,1.208-1.20166l38.82129,24.13574a.87519.87519,0,0,1,.41309.7168l.585,19.26709a.87368.87368,0,0,1-.251.63964,1.015,1.015,0,0,1-.63476.26221l-4.65723-.05859-6.22656,2.4375A.87364.87364,0,0,1,215.21875,141.10107ZM189.7168,97.08643l25.86425,42.05712,5.70411-2.23291a1.22693,1.22693,0,0,1,.33007-.06054l3.915.04931-.543-17.88476Z" fill="#ab4004"/>
    <polygon points="211.56 158.38 213.81 173.16 210.34 167.89 202.58 156.08 203.05 146.7 208.42 140.64 210.14 142.22 216.56 148.11 211.56 158.38" fill="#ec8e56"/>
    <path d="M213.80566,174.03613a.87545.87545,0,0,1-.73144-.39453L185.3457,131.46826a.94554.94554,0,0,1-.05957-.106l-7.54-12.56445a.87523.87523,0,0,1,.67774-1.32226l5.07031-.42334a.87178.87178,0,0,1,.6543.21728l2.95312,2.62061,30.04785,27.57275a.876.876,0,0,1,.19532,1.02783l-4.875,10.03076,2.20117,14.50782a.87528.87528,0,0,1-.86524,1.00683Zm-26.94921-43.457,25.48339,38.75879-1.6416-10.82275a.87312.87312,0,0,1,.07813-.51416l4.709-9.689-29.55664-27.12207-2.66211-2.3623-3.2959.27539,6.86231,11.43408Z" fill="#ab4004"/>
    <path d="M215.96,139.77,192.04,100.87l-4.27-6.95a.86363.86363,0,0,0-.97-.38.876.876,0,0,0-.65.83l-.13,6.64-.37,19.52a.87.87,0,0,0,.27991.66l23.62012,21.67a.85717.85717,0,0,0,.59.23.90465.90465,0,0,0,.32-.06l5.08008-1.99a.868.868,0,0,0,.41992-1.27Zm-5.62988,1.43-22.92017-21.03.42017-22.44.01-.35.3999.65,25.67993,41.76Z" fill="#ab4004"/>
  </g>
</svg>
