<?xml version="1.0"?>
<svg xmlns="http://www.w3.org/2000/svg" viewBox="0 0 300 300">
  <g id="Layer_5" data-name="Layer 5">
    <path d="M254.1001,103.57v92.86a55.31743,55.31743,0,0,1-2.53,16.57c-.21021.68-.44019,1.35-.67993,2.01a55.20293,55.20293,0,0,1-9.2002,16.31c-.48.57995-.97,1.16-1.47,1.72a55.23644,55.23644,0,0,1-13.31006,10.98c-.68994.41-1.3999.81-2.10986,1.19a54.86918,54.86918,0,0,1-14.25,5.22h-.01c-.83008.18-1.68018.34-2.53.48a55.11448,55.11448,0,0,1-9.15015.76h-97.73a54.92585,54.92585,0,0,1-30.80981-9.4c-.74-.49-1.46021-1-2.17017-1.53A55.52946,55.52946,0,0,1,50.1001,217.6c-.27-.66-.54-1.33-.78-2.01a55.05693,55.05693,0,0,1-3.42017-19.16V103.57A55.11047,55.11047,0,0,1,64.22,62.48c.5-.44,1.01-.88,1.52-1.31a55.0148,55.0148,0,0,1,35.40015-12.84h97.71972A55.07178,55.07178,0,0,1,221.48,53.16q.93018.42,1.83008.87a55.42477,55.42477,0,0,1,27.45,30.58c.29.8.57007,1.61.82007,2.43A55.05055,55.05055,0,0,1,254.1001,103.57Z" fill="#fff2e8"/>
    <polygon points="169.15 215.87 169.08 215.88 168.94 215.91 168.83 215.93 168.69 215.95 168.55 215.97 168.31 216.01 168.18 216.04 167.97 216.07 167.18 216.21 167.12 215.86 167.02 215.29 166.87 214.38 166.56 212.55 165.41 205.84 138.6 48.33 140.63 48.33 167.92 208.67 168.61 212.7 168.83 214.02 168.95 214.67 169.01 215.04 169.12 215.67 169.15 215.87" fill="#ec8e56"/>
    <polygon points="182.09 48.33 169.93 208.71 169.62 212.77 169.52 214.12 169.47 214.78 169.44 215.15 169.4 215.8 169.38 216 169.3 215.99 169.18 215.98 169.04 215.97 168.95 215.97 168.69 215.95 168.63 215.94 168.52 215.94 168.39 215.93 168.17 215.91 167.38 215.85 167.41 215.5 167.45 214.91 167.52 214 167.66 212.13 167.92 208.67 180.09 48.33 182.09 48.33" fill="#ec8e56"/>
    <path d="M223.31006,54.03l-51.46,155.22-1.28,3.87-.42017,1.27-.21.62-.11987.36-.19019.6-.06982.2-.07007-.02-.13013-.05-.09985-.03-.13989-.05-.17017-.05-.11987-.04-.08008-.03-.12012-.04-.22-.07-.74-.25.11011-.33.17993-.55.29-.88.35986-1.08,1.32007-3.99L221.48,53.16Q222.41016,53.58,223.31006,54.03Z" fill="#ec8e56"/>
    <path d="M251.58008,87.04l-77.98,123.18-2.18018,3.45-.71,1.13-.35986.56-.19019.31-.34985.55-.11011.17-.05981-.04-.11011-.07-.1001-.06-.07983-.05-.23-.15-.08008-.05-.1001-.06-.08008-.05-.17993-.11-.66992-.43.18994-.3.32007-.5.31006-.5.79-1.25,2.23-3.52L250.76,84.61C251.05005,85.41,251.33008,86.22,251.58008,87.04Z" fill="#ec8e56"/>
    <polygon points="254.1 133.4 254.1 136.17 175.07 211.59 172.13 214.4 171.15 215.34 170.68 215.78 170.4 216.05 169.93 216.49 169.79 216.63 169.73 216.57 169.64 216.48 169.56 216.39 169.47 216.3 169.36 216.17 169.35 216.17 169.26 216.07 169.18 215.98 169.17 215.98 169.08 215.88 168.96 215.76 168.96 215.75 168.41 215.18 168.66 214.94 168.95 214.67 169.52 214.12 170.57 213.12 173.59 210.24 173.6 210.22 254.1 133.4" fill="#ec8e56"/>
    <polygon points="254.1 166.58 254.1 168.88 176.18 213.26 172.61 215.29 171.46 215.95 170.87 216.28 170.55 216.47 169.98 216.8 169.81 216.89 169.77 216.82 169.7 216.7 169.65 216.6 169.59 216.51 169.47 216.3 169.43 216.22 169.36 216.1 169.3 215.99 169.12 215.68 169.12 215.67 168.82 215.15 169.01 215.04 169.47 214.78 170.15 214.39 171.42 213.67 175.07 211.59 254.1 166.58" fill="#ec8e56"/>
    <polygon points="254.1 191.42 254.1 193.49 176.79 215.17 172.89 216.27 171.58 216.63 170.95 216.81 170.59 216.91 169.96 217.09 169.77 217.14 169.75 217.06 169.71 216.94 169.68 216.81 169.65 216.71 169.59 216.51 169.56 216.39 169.53 216.28 169.49 216.15 169.4 215.81 169.4 215.8 169.23 215.21 169.44 215.15 169.94 215.01 170.71 214.8 170.71 214.79 172.13 214.4 176.18 213.26 254.1 191.42" fill="#ec8e56"/>
    <path d="M251.57007,213c-.21021.68-.44019,1.35-.67993,2.01L176.97,217.16l-4.09009.12-1.32983.04-.65991.01-.37012.02-.64014.01-.21.01v-.07l-.01-.14v-.25l-.01-.2v-.11l-.00976-.12v-.13l-.01026-.37v-.01l-.02-.59.21021-.01.53-.01.7998-.02,1.46-.05,4.18018-.12Z" fill="#ec8e56"/>
    <path d="M241.68994,231.32c-.48.57995-.97,1.16-1.47,1.72l-63.57007-13.9-3.97-.87-1.32007-.29-.63989-.14-.37988-.08-.64014-.14-.18994-.04.02-.08.02-.12.03-.12.02-.09.05981-.26.02-.1.02-.11.03-.13.08008-.35.12988-.6.22.05.52.11.78.17,1.43018.32,4.07983.89Z" fill="#ec8e56"/>
    <path d="M226.90991,244.02c-.68994.41-1.3999.81-2.10986,1.19l-48.92993-24.23L172.21,219.17l-1.2-.59-.6001-.3-.32983-.17-.57007-.28-.18994-.09.03-.07.05981-.12.06006-.11.05-.11.08008-.16.05981-.12.05-.11.06006-.12.15991-.33.27-.54.2.1.47022.23.71.35,1.2998.65,3.77,1.86Z" fill="#ec8e56"/>
    <path d="M210.54,250.43c-.83008.18-1.68018.34-2.53.48L174.66992,222.6l-3.10986-2.65-1.04-.88-.5-.42005-.29-.25-.51-.43-.13989-.12.0498-.06.09009-.1.08008-.1.05981-.07.16016-.19.06006-.07.07983-.1.09009-.1.23-.26.3999-.48.17017.15.3999.34.6001.51,1.12988.95,3.19019,2.71Z" fill="#ec8e56"/>
    <polygon points="195.53 251.67 193.07 251.67 173.11 223.87 170.71 220.52 169.93 219.43 169.55 218.9 169.32 218.59 168.94 218.05 168.83 217.9 168.9 217.85 169 217.78 169.1 217.7 169.2 217.63 169.36 217.52 169.47 217.44 169.55 217.38 169.67 217.3 169.96 217.09 170.46 216.73 170.59 216.91 170.89 217.33 171.36 217.98 172.21 219.17 174.67 222.6 174.68 222.6 195.53 251.67" fill="#ec8e56"/>
    <polygon points="184.15 251.67 182 251.67 171.27 224.64 169.77 220.88 169.28 219.63 169.03 219.01 168.89 218.66 168.66 218.08 168.58 217.88 168.65 217.85 168.77 217.8 168.87 217.76 168.98 217.72 169.2 217.63 169.3 217.6 169.3 217.59 169.41 217.55 169.53 217.5 169.88 217.36 169.89 217.36 170.44 217.14 170.52 217.35 170.72 217.84 171.01 218.58 171.55 219.94 171.56 219.95 173.11 223.87 184.15 251.67" fill="#ec8e56"/>
    <polygon points="174.9 251.67 172.89 251.67 169.31 225.06 168.76 221.02 168.58 219.67 168.49 219.02 168.44 218.65 168.36 218.01 168.33 217.81 168.41 217.8 168.54 217.78 168.67 217.76 168.76 217.75 168.98 217.72 169.1 217.7 169.22 217.69 169.35 217.67 169.7 217.62 169.71 217.62 170.31 217.54 170.34 217.76 170.41 218.28 170.52 219.07 170.71 220.52 171.27 224.64 174.9 251.67" fill="#ec8e56"/>
    <polygon points="170.1 217.9 170.08 218.11 170.02 218.65 169.93 219.43 169.77 220.88 169.31 225.06 166.35 251.67 164.34 251.67 167.3 224.96 167.75 220.88 167.9 219.54 167.97 218.9 168.02 218.52 168.09 217.88 168.11 217.68 168.19 217.69 168.32 217.7 168.44 217.72 168.58 217.73 168.76 217.75 168.87 217.76 169 217.78 169.13 217.79 169.51 217.83 169.52 217.84 170.1 217.9" fill="#ec8e56"/>
    <polygon points="169.81 218.19 169.73 218.4 169.55 218.9 169.28 219.63 168.76 221.02 167.3 224.96 157.4 251.67 155.26 251.67 165.39 224.34 166.81 220.51 167.27 219.27 167.5 218.65 167.63 218.29 167.86 217.67 167.93 217.49 168 217.52 168.12 217.56 168.23 217.6 168.33 217.64 168.58 217.73 168.67 217.76 168.77 217.8 168.9 217.85 169.22 217.97 169.81 218.19" fill="#ec8e56"/>
    <polygon points="169.45 218.4 169.32 218.59 169.03 219.01 168.58 219.67 167.75 220.88 165.39 224.34 146.72 251.67 144.31 251.67 163.7 223.28 165.98 219.94 166.74 218.83 167.11 218.29 167.32 217.98 167.68 217.46 167.8 217.28 167.86 217.32 167.97 217.4 168.07 217.47 168.16 217.53 168.33 217.64 168.44 217.72 168.54 217.78 168.65 217.85 168.94 218.05 169.45 218.4" fill="#ec8e56"/>
    <polygon points="169.05 218.52 168.89 218.66 168.49 219.02 167.9 219.54 166.81 220.51 163.7 223.28 131.8 251.67 128.79 251.67 162.24 221.9 165.3 219.18 166.31 218.28 166.8 217.84 167.09 217.59 167.58 217.15 167.72 217.03 167.77 217.09 167.87 217.19 167.94 217.28 168.02 217.37 168.16 217.53 168.23 217.6 168.32 217.7 168.41 217.8 168.66 218.08 169.05 218.52" fill="#ec8e56"/>
    <polygon points="168.64 218.55 168.44 218.65 167.97 218.9 167.27 219.27 165.98 219.94 162.24 221.9 105.46 251.67 101.13 251.67 161.21 220.18 164.84 218.27 166.04 217.65 166.62 217.34 166.95 217.17 167.54 216.86 167.71 216.77 167.75 216.84 167.81 216.96 167.87 217.07 167.91 217.16 168.02 217.37 168.07 217.47 168.12 217.56 168.19 217.69 168.36 218.01 168.64 218.55" fill="#ec8e56"/>
    <path d="M168.23,218.47l-.21.05-.52.13-.76.18-1.43994.35-4.09009,1L70.32007,242.27c-.74-.49-1.46021-1-2.17017-1.53l92.5-22.49,3.96-.97,1.32007-.31.63013-.16.36987-.09.65015-.16.17993-.04.02.08.03.13.03.11.03.12.03979.2.03.12.03.12.03.12.09009.36Z" fill="#ec8e56"/>
    <path d="M167.87012,216.29v.9l-.01026.13v.97h-.75l-.7998-.01-1.47-.01-4.18018-.02h-.01L50.1001,217.6c-.27-.66-.54-1.33-.78-2.01l111.23.66,4.09009.02,1.33984.01h.66016l.38989.01Z" fill="#ec8e56"/>
    <polygon points="168.03 216.09 168.01 216.17 167.98 216.3 167.95 216.41 167.92 216.52 167.87 216.72 167.84 216.83 167.84 216.84 167.81 216.95 167.81 216.96 167.77 217.09 167.68 217.46 167.68 217.47 167.53 218.03 167.32 217.98 166.8 217.84 166.04 217.65 164.61 217.28 164.6 217.28 160.55 216.25 45.9 186.94 45.9 184.88 160.95 214.28 164.89 215.29 166.2 215.62 166.85 215.79 167.12 215.86 167.96 216.07 167.97 216.07 168.03 216.09" fill="#ec8e56"/>
    <polygon points="168.23 215.94 168.18 216.04 168.13 216.12 168.07 216.23 168.02 216.33 167.92 216.52 167.87 216.62 167.75 216.84 167.59 217.14 167.58 217.15 167.29 217.7 167.09 217.59 166.62 217.34 165.93 216.97 164.64 216.27 160.95 214.28 45.9 152.24 45.9 149.96 161.8 212.47 165.4 214.41 166.59 215.05 166.59 215.06 167.02 215.29 167.41 215.5 168.17 215.91 168.18 215.91 168.23 215.94" fill="#ec8e56"/>
    <polygon points="168.47 215.84 168.39 215.93 168.32 216.01 168.31 216.01 168.25 216.08 168.17 216.17 168.02 216.33 167.95 216.41 167.87 216.5 167.78 216.6 167.54 216.86 167.12 217.32 166.95 217.17 166.56 216.81 165.98 216.28 164.89 215.29 161.8 212.47 45.9 106.87 45.9 104.16 163.07 210.92 166.09 213.67 166.09 213.68 166.87 214.38 167.45 214.91 167.78 215.21 168.41 215.79 168.42 215.79 168.47 215.84" fill="#ec8e56"/>
    <path d="M168.72,215.8l-.09009.06-.10986.08h-.01l-.07007.05-.08008.05-.18994.12v.01l-.09985.06v.01l-.09009.05v.01l-.10986.07-.28.19h-.01l-.52.35-.13013-.19-.28979-.44-.44019-.66-.8-1.21h-.00976l-2.32007-3.49L64.22,62.48c.5-.44,1.01-.88,1.52-1.31l98.95,148.58,1.87012,2.8v.01l.96,1.44.43994.66.24.36.48.73.01.01Z" fill="#ec8e56"/>
    <polygon points="168.98 215.82 168.86 215.86 168.75 215.9 168.63 215.94 168.55 215.97 168.36 216.04 168.25 216.08 168.13 216.12 168.01 216.17 167.66 216.29 167.1 216.49 167.03 216.29 166.85 215.79 166.59 215.05 166.09 213.68 164.69 209.75 107 48.33 109.13 48.33 165.41 205.84 167.66 212.13 168.25 213.78 168.52 214.52 168.66 214.94 168.96 215.75 168.98 215.82" fill="#ec8e56"/>
    <polygon points="181.858 271.651 181.858 190.598 101.472 183.456 101.472 251.972 181.858 271.651" fill="#ffe8d8"/>
    <path d="M182.7334,272.76611,100.59668,252.6582V182.5l82.13672,7.29785Zm-80.38672-21.481,78.63672,19.25146V191.39844l-78.63672-6.98633Z" fill="#ab4004"/>
    <polygon points="141.665 260.796 181.077 270.798 181.858 190.598 125.273 212.281 141.665 260.796" fill="#ec8e56"/>
    <polygon points="229.04 222.635 229.04 175.32 181.858 190.598 181.858 271.651 229.04 222.635" fill="#ab4004"/>
    <path d="M181.89062,190.87988l-.05664-.00537-82.60839-7.33935L170.96387,172.023l59.59179,3.09766ZM103.7168,183.377l78.10937,6.93946L227.52441,175.519l-56.53125-2.94482Z" fill="#fff"/>
    <polygon points="101.472 183.456 86.597 164.143 150.617 154.936 171.008 172.297 101.472 183.456" fill="#ffe8d8"/>
    <path d="M101.47168,184.33057a.87467.87467,0,0,1-.69336-.34082l-14.875-19.31348a.87486.87486,0,0,1,.56836-1.39941l64.01953-9.207a.87068.87068,0,0,1,.69238.19971l20.39161,17.36133a.87468.87468,0,0,1-.42872,1.52978l-69.53613,11.15918A.88372.88372,0,0,1,101.47168,184.33057ZM88.20312,164.79541l13.64356,17.71436,67.15039-10.77588-18.64746-15.87647Z" fill="#ab4004"/>
    <polygon points="196.38 174.08 195.28 174.01 171.01 172.3 170.99 173.19 171.05 173.18 193.79 174.37 180.41 189.39 170.67 188.55 170.65 189.43 170.63 190.3 196.38 174.08" fill="#ec8e56"/>
    <path d="M171.01,172.3l-69.54,11.16,69.17993,5.97,10.12012.87,14.51-16.29.36987-.42Zm9.3999,17.09-9.74-.84.32007-15.36.06006-.01,22.74,1.19Z" fill="#ab4004"/>
    <path d="M196.46,173.26a.87619.87619,0,0,0-.76-.54l-24.6499-1.3a1.08346,1.08346,0,0,0-.17993.01l-69.54,11.16a.87793.87793,0,0,0,.06982,1.74l69.23,5.97,10.07007.87H180.77a.87868.87868,0,0,0,.65991-.29l14.88013-16.7a.6051.6051,0,0,0,.06982-.1A.88584.88584,0,0,0,196.46,173.26Zm-25.79,15.29-62.0498-5.36,62.36987-10,.06006-.01,22.74,1.19-13.38013,15.02Z" fill="#ab4004"/>
    <polygon points="193.79 174.37 180.41 189.39 170.67 188.55 170.99 173.19 171.05 173.18 193.79 174.37" fill="#ec8e56"/>
    <polyline points="181.858 190.598 201.345 163.508 244.657 153.786 229.04 175.32 182.307 190.619" fill="#ec8e56"/>
    <path d="M182.61816,191.56982l-.18261-.55664-1.38867-.999,19.48632-27.08984a.99806.99806,0,0,1,.59278-.39161l43.3125-9.72265a1,1,0,0,1,1.02832,1.5625l-15.61719,21.53418a.998.998,0,0,1-.49805.36328Zm19.31641-27.16894-17.63281,24.51367,44.11914-14.44434L242.294,155.34082Z" fill="#ab4004"/>
    <line x1="178.86655" y1="192.30297" x2="101.47212" y2="251.97172" fill="#ab4004"/>
    <rect x="91.30614" y="221.76257" width="97.72562" height="0.74928" transform="translate(-106.40056 131.60681) rotate(-37.5868)" fill="#ab4004"/>
    <line x1="181.85817" y1="271.65129" x2="102.36886" y2="184.80891" fill="#ab4004"/>
    <rect x="141.86355" y="169.36571" width="0.50043" height="117.72903" transform="translate(-116.81417 155.83078) rotate(-42.46877)" fill="#ab4004"/>
    <rect x="91.75525" y="221.88758" width="97.72485" height="0.49926" transform="translate(-106.34329 131.97873) rotate(-37.60959)" fill="#ffe8d8"/>
    <rect x="141.75125" y="168.92981" width="0.50043" height="115.47533" transform="translate(-115.78865 155.34552) rotate(-42.46889)" fill="#fff"/>
    <polygon points="229.733 116.192 218.021 131.091 223.095 114.778 229.733 116.192" fill="#ab4004"/>
    <path d="M218.02051,131.96631a.87455.87455,0,0,1-.835-1.13477l5.07422-16.31347a.87343.87343,0,0,1,1.01757-.59571l6.6377,1.41407a.87474.87474,0,0,1,.50488,1.396L218.708,131.63184A.87408.87408,0,0,1,218.02051,131.96631Zm5.67285-16.16651-3.42871,11.02051,7.91211-10.06543Z" fill="#ab4004"/>
    <polygon points="278.895 58.436 210.419 112.204 191.059 108.153 278.895 58.436" fill="#ffe8d8"/>
    <path d="M210.419,113.20459a1.00829,1.00829,0,0,1-.20508-.021l-19.35938-4.05127a.99985.99985,0,0,1-.28711-1.84912l87.83594-49.71728a.99972.99972,0,0,1,1.10938,1.65674l-68.47657,53.76855A.99876.99876,0,0,1,210.419,113.20459Zm-16.55957-5.48682,16.30859,3.4126,57.68457-45.29443Z" fill="#ab4004"/>
    <polygon points="278.895 58.436 252.293 120.998 229.733 116.192 223.095 114.778 278.895 58.436" fill="#ec8e56"/>
    <path d="M252.293,121.99756a.97865.97865,0,0,1-.208-.022l-29.19824-6.21973a1.00031,1.00031,0,0,1-.50293-1.68164l55.80078-56.3418a.99992.99992,0,0,1,1.63086,1.09473l-26.60254,62.56152A.99949.99949,0,0,1,252.293,121.99756Zm-27.2002-7.81641,26.60254,5.66651,24.23731-56.99854Z" fill="#ab4004"/>
    <polygon points="278.895 58.436 223.095 114.778 218.021 131.091 210.419 112.204 278.895 58.436" fill="#ab4004"/>
    <path d="M218.02051,132.09131a1.00061,1.00061,0,0,1-.92774-.62647l-7.60156-18.88672a.99954.99954,0,0,1,.31055-1.16015l68.47656-53.76856a1.00007,1.00007,0,0,1,1.32813,1.49024l-55.62891,56.16846-5.00195,16.08007a1.00075,1.00075,0,0,1-.91407.70215Zm-6.39356-19.564,6.27246,15.58545,4.24024-13.63183a1.00613,1.00613,0,0,1,.24414-.40674l44.51758-44.94873Z" fill="#ab4004"/>
    <polygon points="184.44 80.475 171.785 74.031 167.603 71.805 167.597 71.805 176.602 56.799 184.44 80.475" fill="#ff9e01"/>
    <path d="M184.44043,81.60449a1.12866,1.12866,0,0,1-.5127-.12256l-12.65527-6.44384-4.16992-2.21973a1.12987,1.12987,0,0,1-.47461-1.59424l9.00488-15.00586a1.12971,1.12971,0,0,1,2.041.22608l7.83887,23.67578a1.12884,1.12884,0,0,1-1.07227,1.48437ZM169.17871,71.36426l3.13672,1.66992,10.18945,5.1875-6.20215-18.73Z" fill="#ab4004"/>
    <polygon points="171.785 74.031 147.541 120.821 138.793 115.621 167.603 71.805 171.785 74.031" fill="#ab4004"/>
    <path d="M147.541,121.69531a.87583.87583,0,0,1-.44727-.12256l-8.74805-5.1997a.87413.87413,0,0,1-.2832-1.23243l28.80957-43.81591a.87357.87357,0,0,1,1.1416-.29151l4.18262,2.22608a.87437.87437,0,0,1,.36523,1.17431l-24.24414,46.78955a.871.871,0,0,1-.77636.47217Zm-7.51465-6.3584,7.165,4.2583L170.61035,74.397l-2.71484-1.44482Z" fill="#ab4004"/>
    <polygon points="167.597 71.805 167.603 71.805 138.793 115.621 134.683 121.874 137.345 104.331 131.416 92.131 139.039 85.136 167.077 59.408 170.583 56.297 176.602 56.799 167.597 71.805" fill="#ff9e01"/>
    <path d="M134.68262,123.00342a1.131,1.131,0,0,1-1.11719-1.29932l2.61035-17.1958-5.77539-11.88379a1.12879,1.12879,0,0,1,.252-1.32617L166.3125,58.57568l3.52051-3.12353a1.11636,1.11636,0,0,1,.84375-.28076l6.01855.50244a1.12983,1.12983,0,0,1,.875,1.70654l-8.94824,14.91211a1.43379,1.43379,0,0,1-.07519.1333L135.627,122.49414A1.13086,1.13086,0,0,1,134.68262,123.00342ZM132.7998,92.394l5.56153,11.44287a1.126,1.126,0,0,1,.10156.66309l-1.88867,12.43994,30.02539-45.665c.00879-.01709.01855-.03418.02832-.05078l8.07129-13.45019-3.72852-.311-3.14453,2.79053Z" fill="#ab4004"/>
    <polygon points="167.074 59.408 139.036 85.136 133.005 82.773 166.476 28.349 167.074 59.408" fill="#ab4004"/>
    <path d="M139.03613,86.01074a.87534.87534,0,0,1-.31933-.06006l-6.03125-2.36328a.87527.87527,0,0,1-.42578-1.27246l33.4707-54.42432a.875.875,0,0,1,1.62012.44092l.59863,31.05957a.87573.87573,0,0,1-.2832.66162l-28.03809,25.728A.87651.87651,0,0,1,139.03613,86.01074Zm-4.73828-3.67041,4.54883,1.78223,27.3457-25.09229-.53418-27.6831Z" fill="#ab4004"/>
    <polygon points="137.345 104.331 134.683 121.874 134.515 122.125 120.389 114.012 137.345 104.331" fill="#ab4004"/>
    <path d="M134.51465,123a.867.867,0,0,1-.43457-.1167l-14.127-8.11328a.87427.87427,0,0,1,.002-1.51807l16.957-9.68115a.87511.87511,0,0,1,1.29883.89111l-2.66309,17.543a.88323.88323,0,0,1-.13672.35254l-.167.25147A.87513.87513,0,0,1,134.51465,123Zm-12.36524-8.98584,11.81153,6.78369,2.249-14.81152Z" fill="#ab4004"/>
    <polygon points="137.345 104.331 120.389 114.012 64.08 129.036 118.127 90.461 118.767 90.928 137.345 104.331" fill="#ff9e01"/>
    <path d="M64.08008,130.16553a1.13,1.13,0,0,1-.65625-2.04932L117.4707,89.542a1.13049,1.13049,0,0,1,1.32129.00635l.64063.4668,18.57422,13.39941a1.13,1.13,0,0,1-.10059,1.897l-16.957,9.68116a1.135,1.135,0,0,1-.26953.11035L64.37109,130.127A1.12437,1.12437,0,0,1,64.08008,130.16553Zm54.04-38.31153L69.80176,126.33984,119.95605,112.958l15.30567-8.73828Z" fill="#ab4004"/>
    <polygon points="118.125 90.461 64.078 129.036 84.319 80.344 94.437 80.248 94.395 80.194 103.711 80.074 103.717 80.074 118.125 90.461" fill="#ff9e01"/>
    <path d="M64.07715,130.165a1.1287,1.1287,0,0,1-1.043-1.563L83.27637,79.91016a1.12888,1.12888,0,0,1,1.03222-.6958l9.74707-.09229a1.01058,1.01058,0,0,1,.32422-.05762l9.31641-.11963a1.1097,1.1097,0,0,1,.68066.21289l14.40821,10.38721a1.12911,1.12911,0,0,1-.00391,1.83594L64.7334,129.95508A1.12543,1.12543,0,0,1,64.07715,130.165Zm20.999-48.69873L66.63672,125.8208,116.18652,90.457,103.3584,81.2085l-8.58008.11035a1.013,1.013,0,0,1-.331.05859Z" fill="#ab4004"/>
    <polygon points="137.343 104.331 118.765 90.928 118.125 90.461 103.717 80.074 117.556 79.901 119.692 79.877 125.424 79.805 131.414 92.131 137.343 104.331" fill="#ff9e01"/>
    <path d="M137.34277,105.46a1.12649,1.12649,0,0,1-.66113-.21338l-33.625-24.25586a1.12943,1.12943,0,0,1,.64648-2.0459l21.708-.269h.01367a1.12891,1.12891,0,0,1,1.01563.63574l11.918,24.52539a1.12918,1.12918,0,0,1-1.01563,1.623Zm-30.1875-24.29932,27.21094,19.62989-9.64453-19.84668Z" fill="#ab4004"/>
    <polygon points="117.556 79.901 103.717 80.074 103.711 80.074 94.395 80.194 71.395 51.594 117.556 79.901" fill="#ff9e01"/>
    <path d="M94.39453,81.32324a1.1283,1.1283,0,0,1-.87988-.42138l-22.999-28.6001a1.12953,1.12953,0,0,1,1.47071-1.6709L118.14746,78.938a1.12966,1.12966,0,0,1-.57715,2.09228l-23.16113.293ZM76.35742,55.96191,94.92969,79.05713l18.7041-.23682Z" fill="#ab4004"/>
    <rect x="117.55657" y="78.9914" width="2.13588" height="1.79503" transform="translate(-0.86223 1.29545) rotate(-0.62343)" fill="#a75136"/>
    <polygon points="166.476 28.349 133.005 82.773 125.424 79.805 119.692 79.877 120.386 57.003 166.476 28.349" fill="#ff9e01"/>
    <path d="M133.00488,83.90283a1.12988,1.12988,0,0,1-.41211-.07812l-7.374-2.88721-5.5127.06885a1.293,1.293,0,0,1-.81933-.33789,1.12791,1.12791,0,0,1-.32324-.82569l.69433-22.874a1.13024,1.13024,0,0,1,.53223-.92529l46.08887-28.6543a1.1296,1.1296,0,0,1,1.55859,1.55127L133.9668,83.36475A1.1287,1.1287,0,0,1,133.00488,83.90283Zm-7.58008-5.227a1.1368,1.1368,0,0,1,.41211.07764l6.7002,2.62353,30.4668-49.54L121.49707,57.64258l-.63965,21.09033,4.55371-.05713Z" fill="#ab4004"/>
    <polygon points="118.635 91.203 117.619 89.722 118.695 91.161 118.635 91.203" fill="#a75136"/>
    <polygon points="139.036 85.136 131.414 92.131 125.424 79.805 133.005 82.773 139.036 85.136" fill="#ab4004"/>
    <path d="M131.41406,93.00537a.87365.87365,0,0,1-.78711-.49219L124.6377,80.1875a.875.875,0,0,1,1.10644-1.19678l13.61133,5.33106a.87457.87457,0,0,1,.27246,1.459l-7.62207,6.99463A.87635.87635,0,0,1,131.41406,93.00537Zm-4.22461-11.56982,4.49805,9.25683,5.72461-5.25293Z" fill="#ab4004"/>
    <rect x="138.2048" y="85.09375" width="1.79449" height="0.13476" transform="translate(10.09682 184.95818) rotate(-69.20097)" fill="#a75136"/>
    <polygon points="131.954 92.851 130.819 91.46 131.983 92.827 131.954 92.851" fill="#a75136"/>
    <polygon points="101.472 183.456 79.679 204.23 150.04 214.528 182.307 190.619 101.472 183.456" fill="#ffe8d8"/>
    <path d="M150.04,215.40186a.93507.93507,0,0,1-.12695-.00879L79.55273,205.09521a.87472.87472,0,0,1-.47656-1.499l21.792-20.77344a.87476.87476,0,0,1,.68067-.23779l80.835,7.16358a.87439.87439,0,0,1,.44336,1.57373L150.56055,215.23A.87325.87325,0,0,1,150.04,215.40186ZM81.583,203.624l68.22656,9.98536,30.126-22.32178-78.14649-6.9253Z" fill="#ab4004"/>
    <polygon points="40.447 153.628 35.82 158.879 35.566 159.167 33.017 162.059 33.015 162.06 33.003 162.039 21.105 140.373 38.435 152.25 38.783 152.489 40.447 153.628" fill="#ffe8d8"/>
    <path d="M33.0166,162.80957q-.03369,0-.06738-.00293a.75057.75057,0,0,1-.5752-.35791L20.44727,140.73389a.74975.74975,0,0,1,1.08105-.9795l19.34277,13.2544a.75066.75066,0,0,1,.13868,1.11523l-7.42969,8.43067A.75315.75315,0,0,1,33.0166,162.80957Zm-9.73926-20.03809,9.88184,17.99414,6.165-6.99755Z" fill="#ab4004"/>
    <polygon points="51.11 142.05 40.45 153.63 38.78 152.49 47.27 145.01 50.98 141.74 51.11 142.05" fill="#ab4004"/>
    <path d="M40.4502,154.37988a.75231.75231,0,0,1-.42286-.13037l-1.66992-1.13965a.7495.7495,0,0,1-.07324-1.18213l12.2002-10.75048a.75.75,0,0,1,1.18847.2749l.12891.30957a.74966.74966,0,0,1-.14063.7959L41.002,154.1377A.74782.74782,0,0,1,40.4502,154.37988ZM40,152.415l.33789.23,2.56836-2.791Z" fill="#ab4004"/>
    <polygon points="50.979 141.735 47.266 145.008 41.437 127.489 50.979 141.735" fill="#ab4004"/>
    <path d="M47.26562,145.7583a.74036.74036,0,0,1-.19531-.02588.751.751,0,0,1-.5166-.4873l-5.82812-17.519a.75016.75016,0,0,1,1.335-.65429l9.541,14.24609a.75.75,0,0,1-.127.98l-3.71289,3.27295A.74829.74829,0,0,1,47.26562,145.7583Zm-3.36621-13.24609,3.71973,11.18408,2.37109-2.08936Z" fill="#ab4004"/>
    <polygon points="68.404 143.855 57.866 145.166 52.694 145.808 51.111 142.046 50.979 141.735 41.437 127.489 59.912 136.018 67.743 143.151 68.404 143.855" fill="#ffe8d8"/>
    <path d="M52.69336,146.55811a.75028.75028,0,0,1-.69141-.459l-1.68652-4.00537-9.501-14.187a.75021.75021,0,0,1,.9375-1.09863l18.47461,8.5288a.7654.7654,0,0,1,.19043.12647l7.83106,7.13281.70312.74561a.75008.75008,0,0,1-.4541,1.25732l-15.71094,1.95313A.75257.75257,0,0,1,52.69336,146.55811Zm-9.14844-17.27,8.05664,12.02978a.7521.7521,0,0,1,.06739.125l1.49511,3.55078,13.63184-1.69433-7.30274-6.64893Z" fill="#ab4004"/>
    <polygon points="81.125 157.379 78.544 157.502 58.636 158.452 57.866 145.166 68.404 143.855 81.125 157.379" fill="#ffe8d8"/>
    <path d="M58.63574,159.20215a.75028.75028,0,0,1-.748-.70654L57.11719,145.209a.75059.75059,0,0,1,.65625-.78759l10.53808-1.31055a.7416.7416,0,0,1,.63868.23047l12.7207,13.52392a.74952.74952,0,0,1-.50977,1.2627l-22.48828,1.07324Zm.01953-13.37891.6875,11.84424,20.1211-.96-11.34473-12.061Z" fill="#ab4004"/>
    <polygon points="50.56 177.273 50.422 177.597 46.735 174.466 39.071 167.954 40.697 166.795 50.56 177.273" fill="#ab4004"/>
    <path d="M50.42188,178.34668a.75008.75008,0,0,1-.48536-.17822L38.585,168.52539a.75077.75077,0,0,1,.04981-1.18262l1.626-1.15869a.75132.75132,0,0,1,.98145.09668l9.86328,10.47754a.75.75,0,0,1,.14453.80713l-.1377.32422a.75113.75113,0,0,1-.51757.437A.77336.77336,0,0,1,50.42188,178.34668ZM40.29,168.00537l2.57715,2.19043-2.26856-2.41016Z" fill="#ab4004"/>
    <polygon points="50.422 177.597 40.482 192.749 46.735 174.466 50.422 177.597" fill="#ec8e56"/>
    <path d="M40.48145,193.499a.74962.74962,0,0,1-.71-.99267l6.25391-18.28321a.75023.75023,0,0,1,1.19531-.3291l3.68653,3.13086a.74934.74934,0,0,1,.1416.9834L41.1084,193.16064A.75007.75007,0,0,1,40.48145,193.499Zm6.60742-17.749-3.97364,11.61768,6.31641-9.62842Z" fill="#ab4004"/>
    <polygon points="68.115 174.51 67.344 175.254 68.015 174.503 68.115 174.51" fill="#ffe8d8"/>
    <path d="M67.34375,176.00391a.75029.75029,0,0,1-.55957-1.24952l.6709-.75146a.76181.76181,0,0,1,.61426-.24854.82418.82418,0,0,1,.70019.49659.74206.74206,0,0,1-.13379.79834l-.77051.74414A.75074.75074,0,0,1,67.34375,176.00391Z" fill="#ab4004"/>
    <polygon points="80.827 160.184 68.015 174.503 57.414 173.737 58.352 160.304 78.543 160.196 80.827 160.184" fill="#ec8e56"/>
    <path d="M68.01465,175.25244c-.01758,0-.03613-.00049-.05371-.00195l-10.60059-.76514a.7493.7493,0,0,1-.69433-.80029l.9375-13.4336a.74962.74962,0,0,1,.74414-.69775l22.47558-.11963h.00391a.74986.74986,0,0,1,.55859,1.25l-12.8125,14.31836A.74829.74829,0,0,1,68.01465,175.25244ZM58.21387,173.043l9.4873.68506L79.1416,160.94287l-20.08984.10693Z" fill="#ab4004"/>
    <polygon points="51.11 142.05 40.45 153.63 38.78 152.49 47.27 145.01 50.98 141.74 51.11 142.05" fill="#ffe8d8"/>
    <polygon points="78.54 157.5 78.54 160.2 58.35 160.3 57.41 173.73 52.22 173.36 51.74 159.17 40.44 164.89 35.61 159.22 35.57 159.17 35.82 158.88 40.45 153.63 51.11 142.05 52.69 145.81 57.87 145.17 58.64 158.45 78.54 157.5" fill="#ffe8d8"/>
    <polygon points="51.74 159.17 52.22 173.36 50.56 177.27 40.7 166.8 41.55 166.19 40.44 164.89 51.74 159.17" fill="#ec8e56"/>
    <path d="M50.80176,178.62061,39.56641,166.69043l.88281-.63379-1.2002-1.40478,13.20118-6.68165L52.97461,173.5ZM41.834,166.90918l8.48536,9.01025,1.1455-2.6997-.43457-12.8501-9.40039,4.75879,1.02051,1.19482Z" fill="#ab4004"/>
    <polygon points="57.41 173.73 57.41 173.74 52.22 173.36 57.41 173.73" fill="#ec8e56"/>
    <polygon points="58.16 174.547 52.165 174.108 52.277 172.612 58.16 173.032 58.16 174.547" fill="#ab4004"/>
    <line x1="187.20784" y1="159.64803" x2="179.17512" y2="183.72083" fill="#ec8e56"/>
    <rect x="170.50253" y="170.68469" width="25.37774" height="1.99928" transform="translate(-37.64976 291.11538) rotate(-71.54735)" fill="#ab4004"/>
    <line x1="197.93873" y1="127.4893" x2="187.20784" y2="159.64803" fill="#ab4004"/>
    <rect x="175.6224" y="142.56897" width="33.90169" height="1.99928" transform="translate(-4.5673 280.79835) rotate(-71.54735)" fill="#ffe8d8"/>
    <rect x="128.28008" y="124.66851" width="1.99941" height="67.41396" transform="translate(-66.11016 98.21878) rotate(-33.66313)" fill="#ec8e56"/>
    <line x1="150.92598" y1="114.77782" x2="157.52173" y2="153.51568" fill="#ec8e56"/>
    <rect x="153.22407" y="114.49908" width="1.99913" height="39.29529" transform="translate(-20.32846 27.78959) rotate(-9.66282)" fill="#ab4004"/>
    <rect x="100.35873" y="174.67735" width="2.00031" height="13.63894" transform="translate(-106.51859 180.20195) rotate(-60.46146)" fill="#ec8e56"/>
    <rect x="87.66739" y="166.32281" width="1.75018" height="15.82313" transform="translate(-106.69799 165.37171) rotate(-60.46214)" fill="#ab4004"/>
    <rect x="178.31445" y="195.12891" width="2" height="74.85986" fill="#ffe8d8"/>
    <path d="M250.762,119.44064l-23.52807-5.63958a1.00116,1.00116,0,0,1-.48142-1.6722l48.51706-48.63817.52124.51062L228.1814,113.52817l-.48145-1.672,23.52832,5.63956-.46631,1.94491Z" fill="#ffe8d8"/>
    <path d="M70.41211,122.52344l-1.834-.79688L85.67969,82.37451a.99906.99906,0,0,1,.917-.60156h16.50879v2H87.25293Z" fill="#ffe8d8"/>
    <path d="M120.56128,78.38794l1.05054-20.12222a.98271.98271,0,0,1,.45581-.78788L162.523,32.1358l.35181.54419L123.15332,59.15753l.45557-.78753-1.0503,20.12222-1.99731-.10428Z" fill="#ffe8d8"/>
    <rect x="128.63135" y="75.50545" width="47.7871" height="1.99984" transform="translate(-10.83001 125.82161) rotate(-43.43688)" fill="#ffe8d8"/>
    <rect x="118.67723" y="57.59466" width="62.83597" height="1.50014" transform="translate(22.19439 156.19185) rotate(-58.65884)" fill="#ec8e56"/>
    <path d="M75.36719,124.50732l-1.13281-1.64843L116.2959,93.93945a1.00774,1.00774,0,0,1,.25586-.12646l2.83008-.92529.62109,1.90087-2.69238.88086Z" fill="#ffe8d8"/>
    <polygon points="83.256 203.328 82.574 202.597 102.193 184.29 177.562 191.673 177.464 192.668 102.545 185.329 83.256 203.328" fill="#fff"/>
    <polygon points="58.105 174.532 52.166 174.108 52.273 172.612 56.715 172.928 57.65 159.553 77.79 159.454 77.79 158.287 57.935 159.235 57.168 146.012 52.218 146.624 50.87 143.417 41.002 154.138 36.56 159.176 41.011 164.404 39.868 165.376 34.622 159.217 35.252 158.39 39.888 153.134 51.349 140.683 53.161 144.996 58.572 144.328 59.347 157.666 79.29 156.713 79.29 160.946 59.049 161.046 58.105 174.532" fill="#ab4004"/>
    <polygon points="41.584 166.251 40.725 166.851 39.094 168.001 22.235 179.891 27.334 171.481 32.844 162.411 32.844 162.401 33.055 162.061 33.064 162.081 33.075 162.081 35.635 159.201 35.675 159.251 40.455 164.911 41.584 166.251" fill="#ec8e56"/>
    <polygon points="40.455 164.911 27.334 171.481 32.844 162.411 32.844 162.401 33.055 162.061 33.064 162.081 33.075 162.081 35.635 159.201 35.675 159.251 40.455 164.911" fill="#ffe8d8"/>
    <path d="M19.72559,182.57959,33.084,160.56836l.126.22559,2.44434-2.74707.55664.6748,6.47363,7.6665Zm13.68554-19.65967-8.67187,14.2876L40.4834,166.106l-4.86621-5.76123Z" fill="#ab4004"/>
    <polygon points="68.011 174.506 67.341 175.256 59.371 182.956 40.481 192.746 41.461 191.246 50.421 177.596 50.561 177.276 52.101 173.616 52.211 173.366 57.411 173.736 68.011 174.506" fill="#ec8e56"/>
    <polygon points="67.341 175.256 54.251 179.926 41.441 191.296 41.461 191.246 50.421 177.596 50.561 177.276 52.101 173.616 67.341 175.256" fill="#ffe8d8"/>
    <path d="M38.2832,194.73389,49.75879,177.2417l1.97559-4.666,17.85644,1.28858-1.68652,1.88916L59.71387,183.625Zm14.41407-20.585L51.0498,178.0083l-8.36816,12.75635,16.24512-8.4209,7.46-7.207Z" fill="#ab4004"/>
    <polygon points="181.462 192.795 182.024 271.208 209.145 243.078 181.462 192.795" fill="#ec8e56"/>
    <path d="M181.8584,272.52637a.87506.87506,0,0,1-.875-.875V190.59814a.87511.87511,0,0,1,.60547-.832l47.18164-15.27832a.87465.87465,0,0,1,1.14453.832v47.315a.87291.87291,0,0,1-.24512.60644l-47.18164,49.0166A.87307.87307,0,0,1,181.8584,272.52637Zm.875-81.292v78.24707L228.165,222.28223V176.52246Z" fill="#ab4004"/>
    <line x1="156.59978" y1="148.10097" x2="163.2239" y2="187.0054" fill="#ab4004"/>
    <rect x="158.91206" y="147.82113" width="1.99913" height="39.46419" transform="translate(-25.85493 29.21813) rotate(-9.66278)" fill="#ffe8d8"/>
  </g>
</svg>
