<?xml version="1.0"?>
<svg xmlns="http://www.w3.org/2000/svg" id="Layer_1" data-name="Layer 1" viewBox="0 0 300 300">
  <path d="M206.79772,48.714l-.26,125.54-77.07007,77.8H113.19787a55.24414,55.24414,0,0,1-55.24024-55.24v-92.86a55.24419,55.24419,0,0,1,55.24024-55.24Z" fill="#ffcea8"/>
  <path d="M266.15783,103.95407v92.86a55.24414,55.24414,0,0,1-55.24023,55.24h-81.45l77.07007-77.8.26-125.54h4.11988A55.24419,55.24419,0,0,1,266.15783,103.95407Z" fill="#ffe7d3"/>
  <polygon points="172.713 74.481 174.464 169.176 51.051 192.207 51.051 44.726 172.713 74.481" fill="#ffc292"/>
  <path d="M52.18078,189.83084,51.44054,46.85477a.99986.99986,0,0,1,1.23731-.97656l118.81152,29.062-.47461,1.94238L53.44738,48.12528l.7334,141.69482Z" fill="#ffe8d8"/>
  <path d="M50.05187,193.41092V43.45145L173.69836,73.69217l.01465.77,1.7666,95.54151Zm2-147.41162V191.00272l121.39649-22.6543-1.72071-93.0791Z" fill="#ab4004"/>
  <path d="M51.05187,171.1077a.37495.37495,0,0,1-.0459-.74707l123.15821-15.251a.365.365,0,0,1,.418.32617.37444.37444,0,0,1-.32618.418l-123.1582,15.251A.37446.37446,0,0,1,51.05187,171.1077Z" fill="#ab4004"/>
  <path d="M51.05187,149.77127a.37513.37513,0,0,1-.02344-.74951l122.90625-7.55322a.38189.38189,0,0,1,.39747.35156.37515.37515,0,0,1-.35059.39746L51.07531,149.77079Z" fill="#ab4004"/>
  <path d="M173.70715,128.63553h0L51.05187,128.5701a.375.375,0,0,1,0-.75h0l122.65528.06543a.375.375,0,0,1,0,.75Z" fill="#ab4004"/>
  <path d="M173.45715,115.10819l-.02344-.00049-122.40528-7.604a.37558.37558,0,0,1-.35058-.39795.382.382,0,0,1,.39746-.35108l122.40527,7.604a.37513.37513,0,0,1-.02343.74951Z" fill="#ab4004"/>
  <path d="M173.20812,101.63651a.37458.37458,0,0,1-.0459-.00293L51.006,86.56815a.37489.37489,0,1,1,.0918-.74414L173.254,100.88944a.37495.37495,0,0,1-.0459.74707Z" fill="#ab4004"/>
  <path d="M172.96008,88.219a.36761.36761,0,0,1-.06836-.00635L50.98351,65.76395a.37494.37494,0,1,1,.13672-.73731l121.9082,22.44874a.37493.37493,0,0,1-.06835.74365Z" fill="#ab4004"/>
  <path d="M162.58215,171.76834a.37535.37535,0,0,1-.375-.36865l-1.667-99.79785a.37589.37589,0,0,1,.36914-.38135.38957.38957,0,0,1,.38086.36865l1.667,99.79786a.37587.37587,0,0,1-.36914.38134Z" fill="#ab4004"/>
  <path d="M149.33508,174.24051a.3746.3746,0,0,1-.375-.36963L147.40832,68.38895a.37473.37473,0,0,1,.36914-.38037.36407.36407,0,0,1,.38086.36963l1.55176,105.48193a.37473.37473,0,0,1-.36915.38037Z" fill="#ab4004"/>
  <path d="M134.47277,177.014a.37535.37535,0,0,1-.375-.37012l-1.39648-111.852a.375.375,0,1,1,.75-.00976l1.39648,111.85205a.37451.37451,0,0,1-.37012.37988Z" fill="#ab4004"/>
  <path d="M117.6798,180.14774a.37523.37523,0,0,1-.375-.3711l-1.18652-119.0415a.37513.37513,0,0,1,.37109-.37891h.00391a.37523.37523,0,0,1,.375.3711l1.18652,119.0415a.37512.37512,0,0,1-.37109.37891Z" fill="#ab4004"/>
  <path d="M98.5548,183.71707a.37521.37521,0,0,1-.375-.37255L97.27648,56.12528a.375.375,0,0,1,.37207-.37744h.00293a.3752.3752,0,0,1,.375.37255l.90332,127.21924a.37437.37437,0,0,1-.37207.37744Z" fill="#ab4004"/>
  <path d="M76.57531,187.81864a.37543.37543,0,0,1-.375-.37354l-.52051-136.603a.37489.37489,0,0,1,.374-.37646h.001a.3754.3754,0,0,1,.375.37353l.52051,136.603a.37489.37489,0,0,1-.374.37647Z" fill="#ab4004"/>
  <polygon points="51.051 192.207 109.529 265.352 276.263 184.153 174.464 169.176 51.051 192.207" fill="#ec8e56"/>
  <polygon points="147.012 211.777 160.915 216.312 198.381 203.266 189.829 191.318 201.213 173.119 276.22 184.154 109.48 265.354 147.012 211.777" fill="#ffe8d8"/>
  <polygon points="107.708 194.301 86.244 185.212 85.571 166.954 107.708 194.301" fill="#ec8e56"/>
  <path d="M41.38683,194.24784a.99974.99974,0,0,1-1-1V57.00614a1,1,0,0,1,2,0v136.2417A.99974.99974,0,0,1,41.38683,194.24784Z" fill="#ab4004"/>
  <path d="M46.2257,71.30008a.99952.99952,0,0,1-.94141-.66406L41.32336,59.54129l-4.66407,9.28614A.9999.9999,0,1,1,34.87218,67.93l5.7129-11.37549a.99972.99972,0,0,1,1.835.1123l4.74707,13.29639a1.001,1.001,0,0,1-.94141,1.33691Z" fill="#ab4004"/>
  <path d="M90.672,273.98807a.99932.99932,0,0,1-.84082-.457L41.93273,199.4827a1.00008,1.00008,0,0,1,1.67969-1.08594L91.51086,272.4451a1,1,0,0,1-.83887,1.543Z" fill="#ab4004"/>
  <path d="M90.62218,274.02176a.99907.99907,0,0,1-.60839-.206l-7.25391-5.55762a1.00025,1.00025,0,1,1,1.2168-1.58789l5.39746,4.13574-.64063-5.8667a1,1,0,1,1,1.98828-.21679l.89454,8.19091a1.00107,1.00107,0,0,1-.99415,1.1084Z" fill="#ab4004"/>
  <polygon points="86.244 185.212 98.737 183.308 107.708 194.301 86.244 185.212" fill="#843a26"/>
  <path d="M109.47961,266.35428a1.00081,1.00081,0,0,1-.78125-.37549l-58.4795-73.14648a.99985.99985,0,0,1,.59766-1.60742l123.417-23.03174a.98035.98035,0,0,1,.3291-.00635l101.80274,14.978a.99973.99973,0,0,1,.292,1.88818l-166.74023,81.2002A.99269.99269,0,0,1,109.47961,266.35428ZM52.82238,192.885l56.93848,71.21973,163.11132-79.43262-98.43554-14.48242Z" fill="#ab4004"/>
  <path d="M91.95715,243.8118a.37516.37516,0,0,1-.13477-.7251l162.47949-62.48779a.37514.37514,0,0,1,.26953.7002L92.09191,243.7869A.37173.37173,0,0,1,91.95715,243.8118Z" fill="#ab4004"/>
  <path d="M79.85363,228.67264a.37482.37482,0,0,1-.11426-.73193l156.1377-50.0625a.37477.37477,0,1,1,.22851.71386L79.96789,228.65457A.37207.37207,0,0,1,79.85363,228.67264Z" fill="#ab4004"/>
  <path d="M70.99133,217.58817a.3749.3749,0,0,1-.09961-.73633L220.0714,175.54618a.3748.3748,0,1,1,.19922.72265L71.09093,217.5745A.36853.36853,0,0,1,70.99133,217.58817Z" fill="#ab4004"/>
  <path d="M64.22277,209.12186a.375.375,0,0,1-.08887-.73926l142.2295-34.85742a.37494.37494,0,1,1,.17773.72852L64.31164,209.11112A.3689.3689,0,0,1,64.22277,209.12186Z" fill="#ab4004"/>
  <path d="M58.8839,202.44413a.375.375,0,0,1-.081-.74122l135.55957-29.94628a.37507.37507,0,0,1,.16211.73242L58.965,202.43534A.38839.38839,0,0,1,58.8839,202.44413Z" fill="#ab4004"/>
  <path d="M54.56554,197.04227a.3751.3751,0,0,1-.07421-.74268l129.27734-26.104a.37509.37509,0,0,1,.14844.73535L54.63976,197.035A.39022.39022,0,0,1,54.56554,197.04227Z" fill="#ab4004"/>
  <path d="M265.6964,189.6536a.43123.43123,0,0,1-.06445-.00537L162.53722,171.75077a.37406.37406,0,0,1-.30468-.4336.36857.36857,0,0,1,.43359-.30566L265.76086,188.909a.37515.37515,0,0,1-.06446.74463Z" fill="#ab4004"/>
  <path d="M253.01379,195.82987a.367.367,0,0,1-.07618-.00781L149.33508,174.20975a.375.375,0,1,1,.15234-.73437L253.09,195.08768a.375.375,0,0,1-.07617.74219Z" fill="#ab4004"/>
  <path d="M237.43273,203.41776a.39141.39141,0,0,1-.09375-.01172L134.49914,176.97147a.37518.37518,0,0,1,.1875-.72656l102.83984,26.43457a.37509.37509,0,0,1-.09375.73828Z" fill="#ab4004"/>
  <path d="M217.82922,212.96463a.37663.37663,0,0,1-.11719-.01855L117.70422,180.094a.37521.37521,0,1,1,.23437-.71289L217.9464,212.23319a.37508.37508,0,0,1-.11718.73144Z" fill="#ab4004"/>
  <path d="M192.41613,225.34012a.37629.37629,0,0,1-.15234-.03223L98.53527,183.65116a.3751.3751,0,1,1,.30469-.68555l93.72851,41.65674a.375.375,0,0,1-.15234.71777Z" fill="#ab4004"/>
  <path d="M158.16125,242.02176a.37712.37712,0,0,1-.208-.063L76.44347,187.7327a.375.375,0,1,1,.416-.624l81.50977,54.22607a.37494.37494,0,0,1-.208.687Z" fill="#ab4004"/>
  <polygon points="89.303 255.966 60.589 269.225 47.104 230.562 66.722 221.184 58.725 208.865 89.303 255.966" fill="#ff9e01"/>
  <path d="M60.589,270.22489a1.00073,1.00073,0,0,1-.94433-.6709l-13.48536-38.6626A.99981.99981,0,0,1,46.672,229.66l18.59082-8.8877-7.377-11.36279a1.00005,1.00005,0,1,1,1.67773-1.08887l30.5791,47.10107a.99939.99939,0,0,1-.41992,1.45215L61.00793,270.1326A.99478.99478,0,0,1,60.589,270.22489ZM48.34289,231.0784,61.17,267.85526l26.666-12.313L66.36144,222.46414Z" fill="#ab4004"/>
  <polygon points="58.725 208.865 66.722 221.184 84.177 202.785 114.177 229.287 89.303 255.966 58.725 208.865" fill="#ff9e01"/>
  <path d="M89.30383,256.9661c-.0293,0-.05762-.00147-.08692-.00391a1.00116,1.00116,0,0,1-.75195-.45166L65.89562,221.74637l-.01269-.01855-7.99707-12.31836a1.00005,1.00005,0,1,1,1.67773-1.08887l7.30664,11.25391,16.58106-17.478a1.00135,1.00135,0,0,1,1.38769-.061l30,26.502a.99993.99993,0,0,1,.06934,1.43164l-24.87305,26.6792A1.00083,1.00083,0,0,1,89.30383,256.9661ZM67.99035,221.29959l21.45508,33.04834,23.2998-24.9917L84.2384,204.17313Z" fill="#ab4004"/>
  <polygon points="58.725 208.865 84.177 202.785 66.722 221.184 58.725 208.865" fill="#ff9e01"/>
  <path d="M66.72179,222.18338c-.03027,0-.06054-.00146-.09179-.00439a1.00025,1.00025,0,0,1-.74707-.45117l-7.99707-12.31836a1,1,0,0,1,.60644-1.51709l25.45215-6.08008a1.00023,1.00023,0,0,1,.958,1.66113L67.44738,221.87186A1,1,0,0,1,66.72179,222.18338Zm-6.38671-12.6748,6.53418,10.06592,14.26367-15.03418Z" fill="#ab4004"/>
  <polygon points="47.104 230.562 58.725 208.865 66.722 221.184 47.104 230.562" fill="#ff9e01"/>
  <path d="M47.10363,231.56229a1.00049,1.00049,0,0,1-.88184-1.47217l11.6211-21.69726a1.00022,1.00022,0,0,1,.83984-.52686,1.01514,1.01514,0,0,1,.88086.45459L67.56066,220.639a.9999.9999,0,0,1-.40723,1.44678l-19.61816,9.3789A.998.998,0,0,1,47.10363,231.56229Zm11.7041-20.7334-9.38086,17.51465,15.83594-7.5708Z" fill="#ab4004"/>
  <polygon points="85.571 166.954 107.708 194.301 132.643 185.947 110.837 163.299 85.571 166.954" fill="#ff9e01"/>
  <path d="M107.70812,195.30106a1.00066,1.00066,0,0,1-.77734-.37061L84.79406,167.58329a1.00071,1.00071,0,0,1,.63379-1.61915l25.26562-3.65478a1.00209,1.00209,0,0,1,.86426.29639l21.80664,22.647a.99985.99985,0,0,1-.40332,1.64209l-24.93554,8.35449A1.00467,1.00467,0,0,1,107.70812,195.30106ZM87.45519,167.69168l20.59375,25.44043,22.77735-7.63134-20.35352-21.13868Z" fill="#ab4004"/>
  <polygon points="177.495 219.991 144.777 212.731 169.114 202.348 180.364 204.226 183.242 180.644 199.506 206.999 177.495 219.991" fill="#ff9e01"/>
  <path d="M177.49523,220.99051a.99337.99337,0,0,1-.2168-.02392l-32.71875-7.25977a.99988.99988,0,0,1-.17578-1.896L168.72179,201.428a.991.991,0,0,1,.55762-.0664l10.21875,1.706,2.75195-22.54492a.9994.9994,0,0,1,1.84278-.4043l16.26367,26.35547a.99943.99943,0,0,1-.34277,1.38672L178.003,220.85184A.99756.99756,0,0,1,177.49523,220.99051ZM148.03234,212.429l29.29395,6.5,20.793-12.27246-14.2295-23.06006-2.5332,20.75049a.9946.9946,0,0,1-.39355.67968.98377.98377,0,0,1-.76368.18555L169.2384,203.3826Z" fill="#ab4004"/>
  <polygon points="180.364 204.226 199.506 206.999 183.242 180.644 180.364 204.226" fill="#ff9e01"/>
  <path d="M199.506,207.9993a1.01466,1.01466,0,0,1-.14355-.01025l-19.1416-2.77344a.99914.99914,0,0,1-.84864-1.11084l2.87793-23.582a.99921.99921,0,0,1,1.84278-.40381l16.26367,26.35547a.99954.99954,0,0,1-.85059,1.5249Zm-18.03027-4.62305,16.05469,2.32666-13.64063-22.10644Z" fill="#ab4004"/>
  <polygon points="183.242 180.644 169.114 202.348 180.364 204.226 183.242 180.644" fill="#ff9e01"/>
  <path d="M180.36437,205.22586a.99885.99885,0,0,1-.165-.01367l-11.25-1.87793a1.00028,1.00028,0,0,1-.67285-1.53174l14.12793-21.7041a.99965.99965,0,0,1,1.83008.66651l-2.87793,23.582a.99976.99976,0,0,1-.99219.8789Zm-9.57812-3.61279,8.71191,1.45459,2.22852-18.26318Z" fill="#ab4004"/>
  <line x1="194.44347" y1="146.75769" x2="210.99987" y2="123.82582" fill="#ab4004"/>
  <polygon points="192.065 131.123 173.869 155.529 181.783 128.726 192.065 131.123" fill="#ec8e56"/>
  <path d="M173.86828,156.5286a.9997.9997,0,0,1-.958-1.28321l7.91309-26.80224a1.001,1.001,0,0,1,1.18554-.69092l10.28223,2.39649a.99989.99989,0,0,1,.5752,1.57177L174.671,156.12625A1.00121,1.00121,0,0,1,173.86828,156.5286Zm8.60644-26.61426-6.06152,20.52881,13.93652-18.69336Z" fill="#ab4004"/>
  <polygon points="181.783 128.726 226.411 139.128 265.766 39.869 181.783 128.726" fill="#ffe8d8"/>
  <path d="M226.41125,140.12772a.99568.99568,0,0,1-.22657-.02588l-44.6289-10.40137a.99967.99967,0,0,1-.5-1.66113l83.98437-88.85693a1.00008,1.00008,0,0,1,1.65625,1.05566l-39.35547,99.2583A1.00119,1.00119,0,0,1,226.41125,140.12772Zm-42.70606-11.98,42.09375,9.81055,37.12012-93.62012Z" fill="#ab4004"/>
  <polygon points="130.995 117.219 161.921 124.306 265.766 39.869 130.995 117.219" fill="#ec8e56"/>
  <path d="M161.921,125.30594a.9975.9975,0,0,1-.22363-.02539l-30.92578-7.08691a.99987.99987,0,0,1-.27442-1.8418L265.26867,39.00223a1,1,0,0,1,1.12891,1.64307L162.55187,125.08182A.99867.99867,0,0,1,161.921,125.30594Zm-28.21289-8.49121,27.96094,6.40772,93.8877-76.34034Z" fill="#ab4004"/>
  <polygon points="161.921 124.306 173.869 155.529 181.783 128.726 265.766 39.869 161.921 124.306" fill="#ab4004"/>
  <path d="M173.86926,156.5286a.99947.99947,0,0,1-.9336-.64258l-11.94824-31.22266a.99891.99891,0,0,1,.30273-1.1333L265.13586,39.09354a.99994.99994,0,0,1,1.35742,1.46289l-83.81934,88.68262-7.8457,26.57275a.99906.99906,0,0,1-.91992.71582ZM163.1134,124.62479l10.63378,27.78613,7.07618-23.96777a1.00438,1.00438,0,0,1,.23242-.40381l73.50488-77.76953Z" fill="#ab4004"/>
  <rect x="129.12514" y="119.64618" width="44.5771" height="2.00018" transform="translate(-41.70737 134.2802) rotate(-42.58606)" fill="#ab4004"/>
  <line x1="160.66198" y1="145.61963" x2="151.49133" y2="156.17351" fill="#ab4004"/>
  <rect x="149.08577" y="149.89658" width="13.98201" height="1.99987" transform="translate(-60.19548 169.76525) rotate(-49.01937)" fill="#ffe8d8"/>
  <rect x="157.19813" y="137.02012" width="20.13522" height="1.99987" transform="translate(-46.62344 173.78012) rotate(-49.01937)" fill="#ff9e01"/>
  <line x1="136.59313" y1="115.69503" x2="265.76623" y2="39.86942" fill="#ab4004"/>
  <rect x="126.28753" y="77.28239" width="149.78455" height="0.99973" transform="translate(-11.70253 112.48826) rotate(-30.39744)" fill="#ffe8d8"/>
  <rect x="103.00034" y="222.81268" width="177.83059" height="1.0002" transform="translate(-78.092 105.85605) rotate(-25.81449)" fill="#fff"/>
  <line x1="183.84313" y1="184.6487" x2="196.27697" y2="204.67292" fill="#ab4004"/>
  <rect x="189.5597" y="182.87564" width="0.99996" height="23.57056" transform="translate(-74.09051 129.54385) rotate(-31.83704)" fill="#ffe8d8"/>
  <line x1="195.27941" y1="207.77202" x2="177.49499" y2="218.47388" fill="#ab4004"/>
  <rect x="176.00943" y="212.62324" width="20.75578" height="0.99968" transform="translate(-83.22006 126.67345) rotate(-31.05015)" fill="#ffe8d8"/>
  <line x1="84.17663" y1="205.45269" x2="110.92126" y2="229.3754" fill="#ab4004"/>
  <rect x="97.04925" y="199.47302" width="0.99939" height="35.88215" transform="translate(-129.53207 145.17215) rotate(-48.18769)" fill="#ffe8d8"/>
  <path d="M128.48351,184.99491l-18.43261-19.2334L89.378,168.88163l-.14843-.98926,20.92871-3.15869a.50622.50622,0,0,1,.43554.14843l18.61231,19.42041Z" fill="#ffe8d8"/>
  <rect x="188.57981" y="134.29191" width="28.28396" height="1.99974" transform="translate(-25.65188 220.41202) rotate(-54.15983)" fill="#ffe8d8"/>
</svg>
